JosefinSans-Italic.ufo
<glyph name="exclam" format="2">
  <advance width="201.0"/>
  <unicode hex="0021"/>
  <outline>
    <contour>
      <point x="129.99999999999997" y="746.5" type="line"/>
      <point x="59.5" y="174.0" type="line"/>
      <point x="143.5" y="174.0" type="line"/>
      <point x="214.00000000000003" y="746.5" type="line"/>
    </contour>
    <contour>
      <point x="72.0" y="-2.0000000000000036" type="curve" smooth="yes"/>
      <point x="102.0" y="-7.000000000000003"/>
      <point x="126.0" y="5.500000000000001"/>
      <point x="134.0" y="33.00000000000001" type="curve" smooth="yes"/>
      <point x="141.5" y="59.00000000000001"/>
      <point x="128.0" y="84.00000000000001"/>
      <point x="98.5" y="90.50000000000001" type="curve" smooth="yes"/>
      <point x="68.5" y="96.00000000000001"/>
      <point x="40.99999999999999" y="80.0"/>
      <point x="33.99999999999999" y="54.0" type="curve" smooth="yes"/>
      <point x="26.499999999999993" y="26.5"/>
      <point x="41.5" y="3.9999999999999964"/>
    </contour>
  </outline>
</glyph>
<glyph name="quotedbl" format="2">
  <advance width="339.0"/>
  <unicode hex="0022"/>
  <outline>
    <contour>
      <point x="236.50000000000003" y="729.0" type="curve"/>
      <point x="153.00000000000003" y="729.0" type="line"/>
      <point x="122.5" y="477.50000000000006" type="line"/>
      <point x="202.00000000000003" y="477.50000000000006" type="line"/>
      <point x="213.00000000000003" y="562.0"/>
      <point x="225.50000000000003" y="645.0"/>
    </contour>
    <contour>
      <point x="371.50000000000006" y="729.0" type="curve"/>
      <point x="288.00000000000006" y="729.0" type="line"/>
      <point x="257.0" y="477.50000000000006" type="line"/>
      <point x="337.00000000000006" y="477.50000000000006" type="line"/>
      <point x="348.00000000000006" y="562.0"/>
      <point x="360.50000000000006" y="645.0"/>
    </contour>
  </outline>
</glyph>
<glyph name="numbersign" format="2">
  <advance width="578.0"/>
  <unicode hex="0023"/>
  <outline>
    <contour>
      <point x="339.5" y="651.0" type="curve"/>
      <point x="254.5" y="651.0" type="line"/>
      <point x="238.0" y="586.0"/>
      <point x="222.49999999999997" y="523.0"/>
      <point x="205.99999999999997" y="457.5" type="curve"/>
      <point x="113.0" y="457.5" type="line"/>
      <point x="106.5" y="430.5"/>
      <point x="101.0" y="403.0"/>
      <point x="94.5" y="376.0" type="curve"/>
      <point x="186.99999999999997" y="376.0" type="line"/>
      <point x="178.0" y="341.5"/>
      <point x="171.0" y="307.00000000000006"/>
      <point x="161.99999999999997" y="272.5" type="curve"/>
      <point x="69.0" y="272.5" type="line"/>
      <point x="63.0" y="245.0"/>
      <point x="55.5" y="218.0"/>
      <point x="49.0" y="190.0" type="curve"/>
      <point x="141.99999999999997" y="190.0" type="line"/>
      <point x="127.0" y="126.49999999999999"/>
      <point x="111.0" y="63.5"/>
      <point x="96.0" y="0.0" type="curve"/>
      <point x="181.5" y="0.0" type="line"/>
      <point x="196.0" y="63.5"/>
      <point x="212.5" y="126.49999999999999"/>
      <point x="227.00000000000003" y="190.0" type="curve"/>
      <point x="328.5" y="190.0" type="line"/>
      <point x="313.49999999999994" y="126.49999999999999"/>
      <point x="297.49999999999994" y="63.5"/>
      <point x="282.5" y="0.0" type="curve"/>
      <point x="367.5" y="0.0" type="line"/>
      <point x="382.5" y="63.5"/>
      <point x="398.5" y="126.49999999999999"/>
      <point x="413.00000000000006" y="190.0" type="curve"/>
      <point x="517.0" y="190.0" type="line"/>
      <point x="523.0" y="218.0"/>
      <point x="530.0" y="245.0"/>
      <point x="537.0000000000001" y="272.5" type="curve"/>
      <point x="433.5" y="272.5" type="line"/>
      <point x="442.0" y="307.00000000000006"/>
      <point x="449.50000000000006" y="341.5"/>
      <point x="458.5" y="376.0" type="curve"/>
      <point x="562.5" y="376.0" type="line"/>
      <point x="569.0" y="403.0"/>
      <point x="574.5000000000001" y="430.5"/>
      <point x="580.5" y="457.5" type="curve"/>
      <point x="477.5" y="457.5" type="line"/>
      <point x="493.50000000000006" y="523.0"/>
      <point x="509.0" y="586.0"/>
      <point x="526.0" y="651.0" type="curve"/>
      <point x="440.49999999999994" y="651.0" type="line"/>
      <point x="424.5" y="586.0"/>
      <point x="408.0" y="523.0"/>
      <point x="392.5" y="457.5" type="curve"/>
      <point x="291.0" y="457.5" type="line"/>
      <point x="307.0" y="523.0"/>
      <point x="322.5" y="586.0"/>
    </contour>
    <contour>
      <point x="272.0" y="376.0" type="curve"/>
      <point x="373.0" y="376.0" type="line"/>
      <point x="364.5" y="341.5"/>
      <point x="356.99999999999994" y="307.00000000000006"/>
      <point x="348.5" y="272.5" type="curve"/>
      <point x="247.0" y="272.5" type="line"/>
      <point x="256.0" y="307.00000000000006"/>
      <point x="263.5" y="341.5"/>
    </contour>
  </outline>
</glyph>
<glyph name="dollar" format="2">
  <advance width="579.5"/>
  <unicode hex="0024"/>
  <anchor x="275.0" y="0.0" name="bottom"/>
  <anchor x="331.99999999999994" y="700.0" name="top"/>
  <outline>
    <contour>
      <point x="222.49999999999997" y="-68.0" type="line"/>
      <point x="281.0" y="-68.0" type="line"/>
      <point x="331.5" y="346.5" type="line"/>
      <point x="360.5" y="379.5" type="line"/>
      <point x="410.50000000000006" y="789.5000000000001" type="line"/>
      <point x="351.99999999999994" y="789.5000000000001" type="line"/>
      <point x="304.5" y="403.0" type="line"/>
      <point x="275.5" y="371.0" type="line"/>
    </contour>
    <component base="S"/>
  </outline>
</glyph>
<glyph name="percent" format="2">
  <advance width="814.5"/>
  <unicode hex="0025"/>
  <outline>
    <contour>
      <point x="218.99999999999997" y="267.0" type="curve"/>
      <point x="316.0" y="265.5"/>
      <point x="369.00000000000006" y="347.0"/>
      <point x="375.5" y="444.00000000000006" type="curve"/>
      <point x="382.0" y="557.0"/>
      <point x="317.5" y="605.0"/>
      <point x="250.5" y="608.5" type="curve"/>
      <point x="150.5" y="611.0"/>
      <point x="97.5" y="529.5"/>
      <point x="91.0" y="432.50000000000006" type="curve"/>
      <point x="84.5" y="318.5"/>
      <point x="146.99999999999997" y="270.5"/>
    </contour>
    <contour>
      <point x="225.0" y="333.5" type="curve"/>
      <point x="199.5" y="334.5"/>
      <point x="170.0" y="356.0"/>
      <point x="173.0" y="429.00000000000006" type="curve"/>
      <point x="177.0" y="491.5"/>
      <point x="195.5" y="541.0"/>
      <point x="242.0" y="541.0" type="curve"/>
      <point x="266.0" y="540.0"/>
      <point x="297.49999999999994" y="524.0"/>
      <point x="293.5" y="447.0" type="curve"/>
      <point x="290.0" y="389.50000000000006"/>
      <point x="269.99999999999994" y="333.5"/>
    </contour>
    <contour>
      <point x="592.5" y="-16.000000000000004" type="curve"/>
      <point x="691.0000000000001" y="-19.000000000000004"/>
      <point x="745.0" y="64.5"/>
      <point x="751.5" y="160.0" type="curve"/>
      <point x="758.0000000000001" y="271.5"/>
      <point x="696.5000000000001" y="322.00000000000006"/>
      <point x="626.5" y="325.5" type="curve"/>
      <point x="526.5" y="328.5"/>
      <point x="473.50000000000006" y="246.0"/>
      <point x="467.0" y="148.5" type="curve"/>
      <point x="460.50000000000006" y="36.5"/>
      <point x="522.0" y="-12.500000000000004"/>
    </contour>
    <contour>
      <point x="600.0000000000001" y="50.50000000000001" type="curve"/>
      <point x="575.5" y="51.50000000000001"/>
      <point x="545.5" y="73.0"/>
      <point x="548.5" y="146.00000000000003" type="curve"/>
      <point x="552.5" y="209.00000000000003"/>
      <point x="572.0" y="259.0"/>
      <point x="618.5000000000001" y="258.0" type="curve"/>
      <point x="642.5000000000001" y="257.0"/>
      <point x="673.0" y="240.0"/>
      <point x="669.0000000000001" y="165.00000000000003" type="curve"/>
      <point x="665.5000000000001" y="108.5"/>
      <point x="648.0" y="50.00000000000001"/>
    </contour>
    <contour>
      <point x="719.0" y="609.5" type="line"/>
      <point x="625.0" y="609.5" type="line"/>
      <point x="135.0" y="0.0" type="line"/>
      <point x="227.5" y="-1.5000000000000002" type="line"/>
    </contour>
  </outline>
</glyph>
<glyph name="ampersand" format="2">
  <advance width="712.5"/>
  <unicode hex="0026"/>
  <outline>
    <contour>
      <point x="626.0" y="0.0" type="curve"/>
      <point x="313.0" y="505.5" type="line" smooth="yes"/>
      <point x="305.0" y="519.0"/>
      <point x="286.0" y="555.4999999999999"/>
      <point x="288.5" y="582.0" type="curve" smooth="yes"/>
      <point x="291.0" y="631.5"/>
      <point x="325.0" y="675.5"/>
      <point x="392.50000000000006" y="675.5" type="curve" smooth="yes"/>
      <point x="431.0" y="675.5"/>
      <point x="466.5" y="651.5"/>
      <point x="503.5" y="614.5" type="curve"/>
      <point x="560.0" y="679.4999999999999" type="line"/>
      <point x="525.5" y="720.9999999999999"/>
      <point x="466.0" y="757.5"/>
      <point x="387.50000000000006" y="757.5" type="curve" smooth="yes"/>
      <point x="265.5" y="757.5"/>
      <point x="194.50000000000003" y="676.5"/>
      <point x="188.99999999999997" y="590.5" type="curve" smooth="yes"/>
      <point x="184.0" y="541.5"/>
      <point x="208.0" y="490.50000000000006"/>
      <point x="226.0" y="462.5" type="curve" smooth="yes"/>
      <point x="513.0" y="0.0" type="line"/>
      <point x="513.0" y="0.0"/>
      <point x="602.5000000000001" y="0.0"/>
    </contour>
    <contour>
      <point x="317.00000000000006" y="346.0" type="curve"/>
      <point x="324.5" y="423.0" type="line"/>
      <point x="198.5" y="427.00000000000006"/>
      <point x="61.5" y="338.5"/>
      <point x="51.0" y="209.5" type="curve" smooth="yes"/>
      <point x="41.0" y="89.0"/>
      <point x="134.0" y="-5.0"/>
      <point x="269.5" y="-10.0" type="curve" smooth="yes"/>
      <point x="376.0" y="-14.5"/>
      <point x="457.0" y="31.5"/>
      <point x="499.00000000000006" y="94.5" type="curve"/>
      <point x="443.5" y="152.0" type="line"/>
      <point x="417.0" y="108.0"/>
      <point x="364.5" y="73.00000000000001"/>
      <point x="292.5" y="75.50000000000001" type="curve" smooth="yes"/>
      <point x="210.5" y="78.00000000000001"/>
      <point x="147.0" y="132.5"/>
      <point x="152.5" y="208.0" type="curve" smooth="yes"/>
      <point x="156.5" y="291.0"/>
      <point x="240.5" y="350.5"/>
    </contour>
    <contour>
      <point x="574.9999999999999" y="424.50000000000006" type="line"/>
      <point x="443.99999999999994" y="163.5" type="line"/>
      <point x="508.0" y="119.0" type="line"/>
      <point x="664.5" y="424.50000000000006" type="line"/>
    </contour>
  </outline>
</glyph>
<glyph name="quotesingle" format="2">
  <advance width="164.5"/>
  <unicode hex="0027"/>
  <outline>
    <contour>
      <point x="216.5" y="729.0" type="curve"/>
      <point x="131.49999999999997" y="729.0" type="line"/>
      <point x="101.0" y="477.50000000000006" type="line"/>
      <point x="182.0" y="477.50000000000006" type="line"/>
      <point x="193.0" y="562.0"/>
      <point x="205.5" y="645.0"/>
    </contour>
  </outline>
</glyph>
<glyph name="parenleft" format="2">
  <advance width="376.5"/>
  <unicode hex="0028"/>
  <outline>
    <contour>
      <point x="94.5" y="273.0" type="curve" smooth="yes"/>
      <point x="94.5" y="273.0" type="line" smooth="yes"/>
      <point x="78.5" y="83.5"/>
      <point x="137.49999999999997" y="-78.5"/>
      <point x="206.49999999999997" y="-167.0" type="curve"/>
      <point x="285.0" y="-130.0" type="line"/>
      <point x="222.5" y="-43.5"/>
      <point x="178.0" y="95.5"/>
      <point x="191.50000000000003" y="269.0" type="curve" smooth="yes"/>
      <point x="206.00000000000003" y="467.0"/>
      <point x="294.5" y="618.0"/>
      <point x="387.0" y="708.9999999999999" type="curve"/>
      <point x="319.5" y="754.0" type="line"/>
      <point x="219.0" y="662.5"/>
      <point x="110.5" y="488.0"/>
    </contour>
  </outline>
</glyph>
<glyph name="parenright" format="2">
  <advance width="376.5"/>
  <unicode hex="0029"/>
  <outline>
    <contour>
      <point x="303.5" y="316.0" type="curve" smooth="yes"/>
      <point x="303.5" y="316.0" type="line" smooth="yes"/>
      <point x="319.0" y="505.50000000000006"/>
      <point x="260.5" y="667.4999999999999"/>
      <point x="191.5" y="756.0" type="curve"/>
      <point x="113.0" y="719.5" type="line"/>
      <point x="175.00000000000003" y="633.0"/>
      <point x="219.99999999999997" y="493.5"/>
      <point x="205.99999999999997" y="320.49999999999994" type="curve" smooth="yes"/>
      <point x="191.49999999999997" y="121.99999999999999"/>
      <point x="103.5" y="-29.0"/>
      <point x="10.5" y="-119.99999999999999" type="curve"/>
      <point x="78.50000000000001" y="-165.00000000000003" type="line"/>
      <point x="179.00000000000003" y="-73.5"/>
      <point x="287.5" y="101.5"/>
    </contour>
  </outline>
</glyph>
<glyph name="asterisk" format="2">
  <advance width="335.0"/>
  <unicode hex="002A"/>
  <outline>
    <contour>
      <point x="203.49999999999997" y="525.0" type="curve"/>
      <point x="192.5" y="434.0" type="line"/>
      <point x="248.50000000000003" y="434.0" type="line"/>
      <point x="253.0" y="464.49999999999994"/>
      <point x="256.5" y="494.50000000000006"/>
      <point x="260.5" y="524.5" type="curve"/>
      <point x="286.0" y="509.00000000000006"/>
      <point x="310.0" y="492.5"/>
      <point x="335.5" y="476.99999999999994" type="curve"/>
      <point x="347.5" y="494.0"/>
      <point x="359.5" y="511.50000000000006"/>
      <point x="371.5" y="528.5" type="curve"/>
      <point x="346.0" y="544.0000000000001"/>
      <point x="321.00000000000006" y="559.5000000000001"/>
      <point x="296.0" y="575.0" type="curve"/>
      <point x="296.0" y="575.0" type="line"/>
      <point x="326.00000000000006" y="590.5"/>
      <point x="354.5" y="606.9999999999999"/>
      <point x="385.00000000000006" y="622.4999999999999" type="curve"/>
      <point x="377.00000000000006" y="638.5"/>
      <point x="369.5" y="654.5000000000001"/>
      <point x="362.49999999999994" y="670.5" type="curve"/>
      <point x="333.50000000000006" y="655.5"/>
      <point x="303.5" y="639.5"/>
      <point x="274.5" y="624.5" type="curve"/>
      <point x="279.0" y="656.5"/>
      <point x="283.50000000000006" y="688.0000000000001"/>
      <point x="287.5" y="720.0" type="curve"/>
      <point x="227.5" y="720.0" type="line"/>
      <point x="216.0" y="624.5" type="line"/>
      <point x="191.0" y="640.0"/>
      <point x="166.0" y="656.0"/>
      <point x="140.5" y="671.5" type="curve"/>
      <point x="129.5" y="655.5000000000001"/>
      <point x="118.5" y="639.5"/>
      <point x="108.0" y="623.4999999999999" type="curve"/>
      <point x="132.0" y="607.9999999999999"/>
      <point x="157.0" y="591.5"/>
      <point x="181.0" y="576.0" type="curve"/>
      <point x="152.5" y="561.5"/>
      <point x="124.49999999999999" y="546.0000000000001"/>
      <point x="95.5" y="531.5000000000001" type="curve"/>
      <point x="103.5" y="514.5"/>
      <point x="111.5" y="496.5"/>
      <point x="119.0" y="479.49999999999994" type="curve"/>
      <point x="147.49999999999997" y="495.00000000000006"/>
      <point x="175.5" y="509.50000000000006"/>
    </contour>
  </outline>
</glyph>
<glyph name="plus" format="2">
  <advance width="550.0"/>
  <unicode hex="002B"/>
  <outline>
    <contour>
      <point x="278.0" y="416.00000000000006" type="line"/>
      <point x="260.5" y="274.5" type="line"/>
      <point x="121.0" y="274.5" type="line"/>
      <point x="111.0" y="192.99999999999997" type="line"/>
      <point x="250.5" y="192.99999999999997" type="line"/>
      <point x="232.99999999999997" y="51.5" type="line"/>
      <point x="318.5" y="51.5" type="line"/>
      <point x="336.0" y="192.99999999999997" type="line"/>
      <point x="475.5" y="192.99999999999997" type="line"/>
      <point x="485.5" y="274.5" type="line"/>
      <point x="346.0" y="274.5" type="line"/>
      <point x="363.0" y="416.00000000000006" type="line"/>
    </contour>
  </outline>
</glyph>
<glyph name="comma" format="2">
  <advance width="203.0"/>
  <unicode hex="002C"/>
  <outline>
    <contour>
      <point x="39.0" y="-201.5" type="line"/>
      <point x="97.0" y="-167.5"/>
      <point x="125.5" y="-92.0"/>
      <point x="118.5" y="-36.5" type="curve"/>
      <point x="35.49999999999999" y="-35.5" type="line"/>
      <point x="41.0" y="-86.5"/>
      <point x="24.999999999999996" y="-141.5"/>
      <point x="-8.500000000000004" y="-168.0" type="curve"/>
    </contour>
  </outline>
</glyph>
<glyph name="hyphen" format="2">
  <advance width="304.0"/>
  <unicode hex="002D"/>
  <outline>
    <contour>
      <point x="85.5" y="256.0" type="line"/>
      <point x="75.5" y="173.99999999999997" type="line"/>
      <point x="262.0" y="173.99999999999997" type="line"/>
      <point x="272.0" y="256.0" type="line"/>
    </contour>
  </outline>
</glyph>
<glyph name="period" format="2">
  <advance width="165.5"/>
  <unicode hex="002E"/>
  <outline>
    <contour>
      <point x="39.5" y="47.0" type="curve" smooth="yes"/>
      <point x="39.5" y="47.0" type="line" smooth="yes"/>
      <point x="39.5" y="19.0"/>
      <point x="62.0" y="0.0"/>
      <point x="86.5" y="0.0" type="curve" smooth="yes"/>
      <point x="113.0" y="0.0"/>
      <point x="145.0" y="23.5"/>
      <point x="145.0" y="58.00000000000001" type="curve" smooth="yes"/>
      <point x="145.0" y="85.0"/>
      <point x="123.0" y="106.50000000000001"/>
      <point x="100.0" y="106.50000000000001" type="curve" smooth="yes"/>
      <point x="71.0" y="106.50000000000001"/>
      <point x="39.5" y="80.5"/>
    </contour>
  </outline>
</glyph>
<glyph name="slash" format="2">
  <advance width="384.5"/>
  <unicode hex="002F"/>
  <outline>
    <contour>
      <point x="476.00000000000006" y="745.5" type="curve"/>
      <point x="391.00000000000006" y="745.5" type="line"/>
      <point x="265.0" y="490.5"/>
      <point x="141.00000000000003" y="236.00000000000003"/>
      <point x="15.0" y="-19.0" type="curve"/>
      <point x="100.00000000000001" y="-19.0" type="line"/>
      <point x="225.5" y="236.00000000000003"/>
      <point x="350.0" y="490.5"/>
    </contour>
  </outline>
</glyph>
<glyph name="zero" format="2">
  <advance width="642.5"/>
  <unicode hex="0030"/>
  <outline>
    <contour>
      <point x="303.50000000000006" y="-0.9999999999999996" type="curve"/>
      <point x="495.5" y="-5.499999999999998"/>
      <point x="598.5" y="157.0"/>
      <point x="613.5" y="346.5" type="curve"/>
      <point x="635.0000000000001" y="542.5"/>
      <point x="516.5" y="659.5"/>
      <point x="372.5" y="663.0" type="curve"/>
      <point x="116.5" y="667.5"/>
      <point x="65.5" y="398.0"/>
      <point x="58.0" y="297.5" type="curve"/>
      <point x="50.5" y="107.99999999999997"/>
      <point x="156.0" y="2.4999999999999996"/>
    </contour>
    <contour>
      <point x="315.0" y="91.00000000000001" type="curve"/>
      <point x="226.00000000000003" y="93.50000000000001"/>
      <point x="152.0" y="155.5"/>
      <point x="160.5" y="304.5" type="curve"/>
      <point x="170.0" y="441.50000000000006"/>
      <point x="240.5" y="575.0"/>
      <point x="357.5" y="570.9999999999999" type="curve"/>
      <point x="446.5" y="568.5"/>
      <point x="520.4999999999999" y="506.5"/>
      <point x="511.99999999999994" y="357.5" type="curve"/>
      <point x="502.50000000000006" y="220.50000000000003"/>
      <point x="432.50000000000006" y="87.00000000000001"/>
    </contour>
  </outline>
</glyph>
<glyph name="one" format="2">
  <advance width="349.5"/>
  <unicode hex="0031"/>
  <outline>
    <contour>
      <point x="125.0" y="658.0" type="line"/>
      <point x="113.0" y="564.5" type="line"/>
      <point x="188.0" y="564.5" type="line"/>
      <point x="118.99999999999999" y="0.0" type="line"/>
      <point x="216.50000000000003" y="0.0" type="line"/>
      <point x="298.0" y="658.0" type="line"/>
    </contour>
  </outline>
</glyph>
<glyph name="two" format="2">
  <advance width="567.5"/>
  <unicode hex="0032"/>
  <outline>
    <contour>
      <point x="45.0" y="0.0" type="curve"/>
      <point x="493.50000000000006" y="0.0" type="line"/>
      <point x="505.0" y="93.50000000000001" type="line"/>
      <point x="212.5" y="93.50000000000001" type="line"/>
      <point x="256.0" y="79.00000000000001" type="line"/>
      <point x="466.5" y="279.5"/>
      <point x="512.5" y="366.5"/>
      <point x="513.5" y="475.5" type="curve" smooth="yes"/>
      <point x="515.0" y="597.0"/>
      <point x="427.0" y="666.0"/>
      <point x="302.50000000000006" y="666.0" type="curve" smooth="yes"/>
      <point x="126.0" y="666.0"/>
      <point x="72.0" y="535.5"/>
      <point x="72.0" y="452.49999999999994" type="curve" smooth="yes"/>
      <point x="72.0" y="392.5"/>
      <point x="100.5" y="336.0"/>
      <point x="128.5" y="304.5" type="curve"/>
      <point x="194.0" y="358.49999999999994" type="line"/>
      <point x="175.5" y="381.5"/>
      <point x="167.0" y="410.5"/>
      <point x="167.0" y="446.99999999999994" type="curve" smooth="yes"/>
      <point x="167.0" y="492.49999999999994"/>
      <point x="192.5" y="573.0"/>
      <point x="292.50000000000006" y="573.0" type="curve" smooth="yes"/>
      <point x="359.5" y="573.0"/>
      <point x="412.0" y="536.9999999999999"/>
      <point x="412.0" y="455.99999999999994" type="curve" smooth="yes"/>
      <point x="412.0" y="381.0"/>
      <point x="386.0" y="304.50000000000006"/>
    </contour>
  </outline>
</glyph>
<glyph name="three" format="2">
  <advance width="503.0"/>
  <unicode hex="0033"/>
  <outline>
    <contour>
      <point x="461.5" y="658.0" type="line"/>
      <point x="116.0" y="658.0" type="line"/>
      <point x="104.5" y="565.0" type="line"/>
      <point x="345.0" y="565.0" type="line"/>
      <point x="315.5" y="578.0" type="line"/>
      <point x="140.99999999999997" y="339.0" type="line"/>
      <point x="144.49999999999997" y="335.0" type="line"/>
      <point x="161.0" y="343.0"/>
      <point x="194.0" y="351.0"/>
      <point x="226.00000000000003" y="350.0" type="curve" smooth="yes"/>
      <point x="306.0" y="348.0"/>
      <point x="362.0" y="304.5"/>
      <point x="362.0" y="232.5" type="curve" smooth="yes"/>
      <point x="362.0" y="156.5"/>
      <point x="315.49999999999994" y="88.50000000000001"/>
      <point x="225.0" y="86.50000000000001" type="curve" smooth="yes"/>
      <point x="178.50000000000003" y="85.50000000000001"/>
      <point x="126.5" y="106.00000000000001"/>
      <point x="94.5" y="150.5" type="curve"/>
      <point x="37.0" y="76.5" type="line"/>
      <point x="83.5" y="15.5"/>
      <point x="164.0" y="-8.0"/>
      <point x="226.5" y="-6.5" type="curve" smooth="yes"/>
      <point x="400.0" y="-2.0"/>
      <point x="462.0" y="128.5"/>
      <point x="462.0" y="235.5" type="curve" smooth="yes"/>
      <point x="462.0" y="344.50000000000006"/>
      <point x="381.5" y="412.00000000000006"/>
      <point x="289.5" y="416.0" type="curve"/>
      <point x="268.5" y="417.0"/>
      <point x="240.0" y="415.5"/>
      <point x="205.00000000000003" y="405.5" type="curve"/>
      <point x="261.5" y="377.0" type="line"/>
    </contour>
  </outline>
</glyph>
<glyph name="four" format="2">
  <advance width="515.5"/>
  <unicode hex="0034"/>
  <outline>
    <contour>
      <point x="2.999999999999993" y="158.99999999999997" type="line"/>
      <point x="308.0" y="158.99999999999997" type="line"/>
      <point x="288.49999999999994" y="0.0" type="line"/>
      <point x="386.0" y="0.0" type="line"/>
      <point x="405.50000000000006" y="158.99999999999997" type="line"/>
      <point x="491.0" y="158.99999999999997" type="line"/>
      <point x="500.0" y="233.50000000000003" type="line"/>
      <point x="414.50000000000006" y="233.50000000000003" type="line"/>
      <point x="467.0" y="666.0" type="line"/>
      <point x="466.0" y="666.0" type="line"/>
      <point x="2.999999999999993" y="159.99999999999997" type="line"/>
    </contour>
    <contour>
      <point x="355.0" y="453.0" type="line"/>
      <point x="345.49999999999994" y="464.4999999999999" type="line"/>
      <point x="317.0" y="233.50000000000003" type="line"/>
      <point x="135.5" y="233.50000000000003" type="line"/>
      <point x="146.0" y="217.0" type="line"/>
    </contour>
  </outline>
</glyph>
<glyph name="five" format="2">
  <advance width="521.5"/>
  <unicode hex="0035"/>
  <outline>
    <contour>
      <point x="235.00000000000003" y="-7.5" type="curve" smooth="yes"/>
      <point x="410.5" y="-6.5"/>
      <point x="469.0" y="129.5"/>
      <point x="469.0" y="225.0" type="curve" smooth="yes"/>
      <point x="469.00000000000006" y="366.0"/>
      <point x="360.0" y="427.5"/>
      <point x="269.99999999999994" y="430.00000000000006" type="curve" smooth="yes"/>
      <point x="242.00000000000003" y="430.5"/>
      <point x="212.50000000000003" y="426.5"/>
      <point x="195.0" y="419.0" type="curve"/>
      <point x="200.00000000000003" y="397.00000000000006" type="line"/>
      <point x="229.5" y="565.0" type="line"/>
      <point x="465.5" y="565.0" type="line"/>
      <point x="476.5" y="658.0" type="line"/>
      <point x="167.5" y="658.0" type="line"/>
      <point x="102.5" y="313.0" type="line"/>
      <point x="104.99999999999997" y="312.5" type="line"/>
      <point x="146.5" y="340.5"/>
      <point x="189.5" y="351.5"/>
      <point x="228.5" y="350.49999999999994" type="curve" smooth="yes"/>
      <point x="292.0" y="348.0"/>
      <point x="369.0" y="313.5"/>
      <point x="368.99999999999994" y="220.0" type="curve" smooth="yes"/>
      <point x="369.0" y="152.0"/>
      <point x="329.0" y="87.50000000000001"/>
      <point x="232.0" y="87.50000000000001" type="curve" smooth="yes"/>
      <point x="200.0" y="87.50000000000001"/>
      <point x="147.0" y="99.00000000000001"/>
      <point x="113.5" y="146.0" type="curve"/>
      <point x="53.49999999999999" y="72.5" type="line"/>
      <point x="104.0" y="13.0"/>
      <point x="190.49999999999997" y="-7.5"/>
    </contour>
  </outline>
</glyph>
<glyph name="six" format="2">
  <advance width="561.0"/>
  <unicode hex="0036"/>
  <outline>
    <contour>
      <point x="275.0" y="-7.5" type="curve" smooth="yes"/>
      <point x="434.0" y="-7.499999999999998"/>
      <point x="517.5" y="120.5"/>
      <point x="517.5" y="225.0" type="curve" smooth="yes"/>
      <point x="517.5" y="358.5"/>
      <point x="413.0" y="419.50000000000006"/>
      <point x="334.0" y="419.5" type="curve" smooth="yes"/>
      <point x="248.50000000000003" y="419.5"/>
      <point x="191.50000000000003" y="383.0"/>
      <point x="149.5" y="317.5" type="curve"/>
      <point x="173.0" y="308.99999999999994" type="line"/>
      <point x="196.5" y="399.5"/>
      <point x="292.5" y="514.0"/>
      <point x="464.5" y="584.0" type="curve"/>
      <point x="408.99999999999994" y="659.0000000000001" type="line"/>
      <point x="127.0" y="507.0"/>
      <point x="54.0" y="349.0"/>
      <point x="54.0" y="222.5" type="curve" smooth="yes"/>
      <point x="54.0" y="81.5"/>
      <point x="147.5" y="-7.500000000000001"/>
    </contour>
    <contour>
      <point x="276.0" y="79.50000000000001" type="curve" smooth="yes"/>
      <point x="202.50000000000003" y="79.50000000000001"/>
      <point x="149.0" y="135.0"/>
      <point x="149.0" y="204.0" type="curve" smooth="yes"/>
      <point x="149.0" y="247.50000000000003"/>
      <point x="176.5" y="339.5"/>
      <point x="289.0" y="339.5" type="curve" smooth="yes"/>
      <point x="361.99999999999994" y="339.5"/>
      <point x="417.5" y="291.0"/>
      <point x="417.5" y="220.00000000000003" type="curve" smooth="yes"/>
      <point x="417.5" y="170.5"/>
      <point x="386.5" y="79.50000000000001"/>
    </contour>
  </outline>
</glyph>
<glyph name="seven" format="2">
  <advance width="489.5"/>
  <unicode hex="0037"/>
  <outline>
    <contour>
      <point x="517.5" y="658.0" type="line"/>
      <point x="86.5" y="658.0" type="line"/>
      <point x="74.5" y="565.0" type="line"/>
      <point x="403.0" y="565.0" type="line"/>
      <point x="366.5" y="579.0" type="line"/>
      <point x="60.0" y="0.0" type="line"/>
      <point x="175.0" y="0.0" type="line"/>
    </contour>
  </outline>
</glyph>
<glyph name="eight" format="2">
  <advance width="549.5"/>
  <unicode hex="0038"/>
  <outline>
    <contour>
      <point x="42.0" y="197.50000000000003" type="curve" smooth="yes"/>
      <point x="42.0" y="88.0"/>
      <point x="132.0" y="-7.500000000000001"/>
      <point x="264.0" y="-7.5" type="curve" smooth="yes"/>
      <point x="431.50000000000006" y="-7.499999999999998"/>
      <point x="509.0" y="134.0"/>
      <point x="509.0" y="220.50000000000003" type="curve" smooth="yes"/>
      <point x="509.0" y="304.0"/>
      <point x="455.00000000000006" y="361.50000000000006"/>
      <point x="401.5" y="390.00000000000006" type="curve"/>
      <point x="452.50000000000006" y="421.5"/>
      <point x="486.5" y="460.50000000000006"/>
      <point x="486.50000000000006" y="525.5" type="curve" smooth="yes"/>
      <point x="486.5" y="603.5"/>
      <point x="414.0" y="666.0"/>
      <point x="315.5" y="666.0" type="curve" smooth="yes"/>
      <point x="196.0" y="666.0"/>
      <point x="143.0" y="581.4999999999999"/>
      <point x="139.5" y="509.49999999999994" type="curve" smooth="yes"/>
      <point x="136.99999999999997" y="461.99999999999994"/>
      <point x="160.5" y="427.5"/>
      <point x="194.0" y="402.0" type="curve"/>
      <point x="114.0" y="372.99999999999994"/>
      <point x="42.0" y="302.50000000000006"/>
    </contour>
    <contour>
      <point x="141.0" y="202.5" type="curve" smooth="yes"/>
      <point x="141.0" y="273.5"/>
      <point x="196.0" y="347.99999999999994"/>
      <point x="286.00000000000006" y="347.99999999999994" type="curve" smooth="yes"/>
      <point x="358.49999999999994" y="347.99999999999994"/>
      <point x="413.0" y="289.49999999999994"/>
      <point x="413.0" y="220.00000000000003" type="curve" smooth="yes"/>
      <point x="413.0" y="140.5"/>
      <point x="348.5" y="74.50000000000001"/>
      <point x="266.0" y="74.50000000000001" type="curve" smooth="yes"/>
      <point x="188.5" y="74.50000000000001"/>
      <point x="141.0" y="132.5"/>
    </contour>
    <contour>
      <point x="232.5" y="504.5" type="curve" smooth="yes"/>
      <point x="237.00000000000003" y="552.4999999999999"/>
      <point x="270.0" y="584.4999999999999"/>
      <point x="318.00000000000006" y="584.5" type="curve" smooth="yes"/>
      <point x="359.5" y="584.4999999999999"/>
      <point x="391.5" y="553.9999999999999"/>
      <point x="391.49999999999994" y="509.0" type="curve" smooth="yes"/>
      <point x="391.5" y="475.5"/>
      <point x="367.5" y="429.0"/>
      <point x="309.0" y="429.00000000000006" type="curve" smooth="yes"/>
      <point x="265.5" y="429.0"/>
      <point x="230.0" y="463.0"/>
    </contour>
  </outline>
</glyph>
<glyph name="nine" format="2">
  <advance width="554.5"/>
  <unicode hex="0039"/>
  <outline>
    <contour>
      <point x="253.49999999999997" y="217.5" type="curve" smooth="yes"/>
      <point x="339.0" y="216.0"/>
      <point x="390.5" y="251.00000000000003"/>
      <point x="437.5" y="315.0" type="curve"/>
      <point x="410.0" y="324.5" type="line"/>
      <point x="388.5" y="242.5"/>
      <point x="272.99999999999994" y="145.0"/>
      <point x="97.0" y="72.0" type="curve"/>
      <point x="153.0" y="-3.0000000000000004" type="line"/>
      <point x="394.5" y="124.0"/>
      <point x="525.0" y="253.0"/>
      <point x="533.5" y="424.00000000000006" type="curve"/>
      <point x="539.0" y="549.5000000000001"/>
      <point x="444.5" y="642.5"/>
      <point x="314.5" y="644.5000000000001" type="curve" smooth="yes"/>
      <point x="156.99999999999997" y="647.0"/>
      <point x="72.5" y="523.0"/>
      <point x="67.5" y="421.0" type="curve" smooth="yes"/>
      <point x="62.5" y="297.0"/>
      <point x="160.0" y="219.99999999999997"/>
    </contour>
    <contour>
      <point x="290.5" y="298.0" type="curve" smooth="yes"/>
      <point x="217.50000000000003" y="300.0"/>
      <point x="164.0" y="351.50000000000006"/>
      <point x="168.5" y="423.99999999999994" type="curve" smooth="yes"/>
      <point x="173.5" y="488.00000000000006"/>
      <point x="223.0" y="560.0"/>
      <point x="313.5" y="557.5" type="curve" smooth="yes"/>
      <point x="388.99999999999994" y="555.0"/>
      <point x="440.99999999999994" y="496.00000000000006"/>
      <point x="435.0" y="425.0" type="curve"/>
      <point x="423.99999999999994" y="334.00000000000006"/>
      <point x="372.99999999999994" y="295.0"/>
    </contour>
  </outline>
</glyph>
<glyph name="colon" format="2">
  <advance width="177.5"/>
  <unicode hex="003A"/>
  <outline>
    <contour>
      <point x="39.0" y="47.0" type="curve" smooth="yes"/>
      <point x="39.0" y="47.0" type="line" smooth="yes"/>
      <point x="39.0" y="19.0"/>
      <point x="61.5" y="0.0"/>
      <point x="86.5" y="0.0" type="curve" smooth="yes"/>
      <point x="113.0" y="0.0"/>
      <point x="144.5" y="23.5"/>
      <point x="144.5" y="58.00000000000001" type="curve" smooth="yes"/>
      <point x="144.5" y="85.0"/>
      <point x="123.0" y="106.50000000000001"/>
      <point x="99.5" y="106.50000000000001" type="curve" smooth="yes"/>
      <point x="70.5" y="106.50000000000001"/>
      <point x="39.0" y="80.5"/>
    </contour>
    <contour>
      <point x="72.5" y="319.0" type="curve" smooth="yes"/>
      <point x="72.5" y="319.0" type="line" smooth="yes"/>
      <point x="72.5" y="291.00000000000006"/>
      <point x="95.5" y="272.0"/>
      <point x="120.0" y="272.0" type="curve" smooth="yes"/>
      <point x="146.5" y="272.0"/>
      <point x="178.0" y="295.5"/>
      <point x="178.0" y="330.0" type="curve" smooth="yes"/>
      <point x="178.0" y="357.50000000000006"/>
      <point x="156.5" y="378.5"/>
      <point x="133.0" y="378.5" type="curve" smooth="yes"/>
      <point x="104.0" y="378.5"/>
      <point x="72.5" y="352.5"/>
    </contour>
  </outline>
</glyph>
<glyph name="semicolon" format="2">
  <advance width="203.5"/>
  <unicode hex="003B"/>
  <outline>
    <contour>
      <point x="102.5" y="300.50000000000006" type="curve" smooth="yes"/>
      <point x="102.5" y="300.50000000000006" type="line" smooth="yes"/>
      <point x="102.5" y="272.0"/>
      <point x="124.0" y="253.00000000000003"/>
      <point x="148.00000000000003" y="253.00000000000003" type="curve" smooth="yes"/>
      <point x="176.0" y="253.00000000000003"/>
      <point x="207.00000000000003" y="276.5"/>
      <point x="207.00000000000003" y="311.0" type="curve" smooth="yes"/>
      <point x="207.00000000000003" y="338.5"/>
      <point x="185.5" y="359.50000000000006"/>
      <point x="161.5" y="359.50000000000006" type="curve" smooth="yes"/>
      <point x="133.50000000000003" y="359.50000000000006"/>
      <point x="102.5" y="334.00000000000006"/>
    </contour>
    <contour>
      <point x="162.0" y="87.5" type="curve"/>
      <point x="77.0" y="87.5" type="line"/>
      <point x="41.5" y="17.0"/>
      <point x="7.9999999999999964" y="-51.5"/>
      <point x="-27.000000000000004" y="-121.5" type="curve"/>
      <point x="49.00000000000001" y="-121.5" type="line"/>
      <point x="86.5" y="-51.5"/>
      <point x="123.5" y="17.0"/>
    </contour>
  </outline>
</glyph>
<glyph name="less" format="2">
  <advance width="601.0"/>
  <unicode hex="003C"/>
  <outline>
    <contour>
      <point x="478.5" y="-14.5" type="curve"/>
      <point x="493.00000000000006" y="100.50000000000001" type="line"/>
      <point x="493.00000000000006" y="100.50000000000001" type="line"/>
      <point x="418.0" y="147.0"/>
      <point x="341.5" y="194.5"/>
      <point x="266.0" y="241.00000000000003" type="curve"/>
      <point x="352.5" y="288.0"/>
      <point x="440.5" y="335.5"/>
      <point x="526.9999999999999" y="382.0" type="curve"/>
      <point x="541.0" y="496.00000000000006" type="line"/>
      <point x="383.0" y="411.50000000000006"/>
      <point x="225.5" y="326.00000000000006"/>
      <point x="67.49999999999999" y="241.00000000000003" type="curve"/>
      <point x="205.0" y="156.00000000000003"/>
      <point x="341.0" y="71.0"/>
    </contour>
  </outline>
</glyph>
<glyph name="equal" format="2">
  <advance width="717.0"/>
  <unicode hex="003D"/>
  <outline>
    <contour>
      <point x="125.0" y="195.50000000000003" type="line"/>
      <point x="115.0" y="113.5" type="line"/>
      <point x="627.0" y="113.5" type="line"/>
      <point x="637.5000000000001" y="195.50000000000003" type="line"/>
    </contour>
    <contour>
      <point x="149.0" y="392.00000000000006" type="line"/>
      <point x="138.99999999999997" y="309.99999999999994" type="line"/>
      <point x="651.0" y="309.99999999999994" type="line"/>
      <point x="661.5000000000001" y="392.00000000000006" type="line"/>
    </contour>
  </outline>
</glyph>
<glyph name="greater" format="2">
  <advance width="590.5"/>
  <unicode hex="003E"/>
  <outline>
    <contour>
      <point x="95.0" y="100.50000000000001" type="curve"/>
      <point x="81.0" y="-14.5" type="line"/>
      <point x="81.0" y="-14.5" type="line"/>
      <point x="239.5" y="71.0"/>
      <point x="396.5" y="156.00000000000003"/>
      <point x="554.9999999999999" y="241.00000000000003" type="curve"/>
      <point x="417.0" y="326.00000000000006"/>
      <point x="281.5" y="411.50000000000006"/>
      <point x="143.49999999999997" y="496.00000000000006" type="curve"/>
      <point x="129.5" y="382.0" type="line"/>
      <point x="205.0" y="335.5"/>
      <point x="280.99999999999994" y="288.0"/>
      <point x="357.0" y="241.00000000000003" type="curve"/>
      <point x="269.5" y="194.5"/>
      <point x="182.5" y="147.0"/>
    </contour>
  </outline>
</glyph>
<glyph name="question" format="2">
  <advance width="447.0"/>
  <unicode hex="003F"/>
  <outline>
    <contour>
      <point x="157.0" y="264.0" type="curve" smooth="yes"/>
      <point x="145.0" y="166.00000000000003" type="line"/>
      <point x="229.5" y="166.00000000000003" type="line"/>
      <point x="239.5" y="245.00000000000003" type="line" smooth="yes"/>
      <point x="248.5" y="316.5"/>
      <point x="307.00000000000006" y="341.0"/>
      <point x="347.99999999999994" y="368.5" type="curve" smooth="yes"/>
      <point x="423.5" y="420.0"/>
      <point x="470.0" y="480.00000000000006"/>
      <point x="470.0" y="564.0" type="curve" smooth="yes"/>
      <point x="470.0" y="662.0"/>
      <point x="397.5" y="741.5"/>
      <point x="294.49999999999994" y="741.5" type="curve" smooth="yes"/>
      <point x="157.0" y="741.5"/>
      <point x="99.0" y="645.0"/>
      <point x="73.0" y="586.4999999999999" type="curve"/>
      <point x="95.5" y="577.0"/>
      <point x="120.0" y="568.0"/>
      <point x="143.0" y="559.5" type="curve"/>
      <point x="143.0" y="559.5" type="line"/>
      <point x="171.0" y="624.5"/>
      <point x="208.99999999999997" y="659.0"/>
      <point x="284.49999999999994" y="659.0" type="curve" smooth="yes"/>
      <point x="345.0" y="659.0"/>
      <point x="383.5" y="615.9999999999999"/>
      <point x="383.5" y="557.5" type="curve" smooth="yes"/>
      <point x="383.5" y="504.00000000000006"/>
      <point x="354.5" y="456.5"/>
      <point x="295.5" y="413.50000000000006" type="curve" smooth="yes"/>
      <point x="228.0" y="365.0"/>
      <point x="167.99999999999997" y="350.5"/>
    </contour>
    <contour>
      <point x="165.49999999999997" y="0.49999999999999645" type="curve" smooth="yes"/>
      <point x="165.49999999999997" y="0.49999999999999645" type="line" smooth="yes"/>
      <point x="193.0" y="0.49999999999999645"/>
      <point x="223.99999999999997" y="23.5"/>
      <point x="223.99999999999997" y="58.0" type="curve" smooth="yes"/>
      <point x="223.99999999999997" y="85.0"/>
      <point x="201.49999999999997" y="106.0"/>
      <point x="178.49999999999997" y="106.0" type="curve" smooth="yes"/>
      <point x="150.5" y="106.0"/>
      <point x="118.99999999999997" y="80.5"/>
      <point x="118.99999999999997" y="47.5" type="curve" smooth="yes"/>
      <point x="118.99999999999997" y="19.0"/>
      <point x="141.5" y="0.49999999999999645"/>
    </contour>
  </outline>
</glyph>
<glyph name="at" format="2">
  <advance width="1017.0"/>
  <unicode hex="0040"/>
  <outline>
    <contour>
      <point x="434.5" y="-219.0" type="curve"/>
      <point x="524.5" y="-219.0"/>
      <point x="631.0" y="-190.5"/>
      <point x="708.5" y="-131.99999999999997" type="curve"/>
      <point x="670.5" y="-77.5" type="line"/>
      <point x="604.0" y="-118.99999999999997"/>
      <point x="527.0" y="-145.5"/>
      <point x="448.50000000000006" y="-145.5" type="curve"/>
      <point x="263.5" y="-145.5"/>
      <point x="127.0" y="-47.0"/>
      <point x="127.0" y="164.5" type="curve"/>
      <point x="127.0" y="292.0"/>
      <point x="223.50000000000003" y="571.0"/>
      <point x="578.5" y="571.0" type="curve"/>
      <point x="780.5000000000001" y="571.0"/>
      <point x="892.4999999999999" y="445.0"/>
      <point x="892.4999999999999" y="292.00000000000006" type="curve"/>
      <point x="892.4999999999999" y="171.5"/>
      <point x="825.0" y="77.00000000000001"/>
      <point x="757.5000000000001" y="77.00000000000001" type="curve"/>
      <point x="719.5" y="77.00000000000001"/>
      <point x="710.5" y="107.0"/>
      <point x="715.5" y="144.5" type="curve"/>
      <point x="753.5" y="414.0" type="line"/>
      <point x="665.0" y="414.0" type="line"/>
      <point x="647.4999999999999" y="342.0" type="line"/>
      <point x="625.0" y="391.0"/>
      <point x="580.5" y="431.00000000000006"/>
      <point x="493.5" y="431.00000000000006" type="curve"/>
      <point x="354.5" y="431.00000000000006"/>
      <point x="255.00000000000003" y="320.0"/>
      <point x="255.00000000000003" y="182.0" type="curve"/>
      <point x="253.5" y="64.0"/>
      <point x="334.50000000000006" y="-10.0"/>
      <point x="444.0" y="-10.0" type="curve"/>
      <point x="524.0" y="-10.0"/>
      <point x="605.0" y="49.0"/>
      <point x="637.5" y="102.0" type="curve"/>
      <point x="621.0" y="145.5" type="line"/>
      <point x="603.9999999999999" y="54.0"/>
      <point x="654.0" y="-8.499999999999998"/>
      <point x="735.0" y="-8.499999999999998" type="curve"/>
      <point x="878.0" y="-8.499999999999998"/>
      <point x="980.0" y="131.5"/>
      <point x="980.0" y="292.00000000000006" type="curve"/>
      <point x="980.0" y="489.5"/>
      <point x="835.5" y="645.0"/>
      <point x="592.0000000000001" y="645.0" type="curve"/>
      <point x="194.00000000000003" y="645.0"/>
      <point x="41.5" y="364.00000000000006"/>
      <point x="41.5" y="161.0" type="curve"/>
      <point x="41.5" y="-92.5"/>
      <point x="215.5" y="-219.0"/>
    </contour>
    <contour>
      <point x="479.50000000000006" y="67.0" type="curve"/>
      <point x="405.5" y="67.0"/>
      <point x="354.00000000000006" y="122.0"/>
      <point x="354.5" y="194.0" type="curve"/>
      <point x="354.5" y="279.0"/>
      <point x="423.0" y="354.0"/>
      <point x="508.0" y="354.0" type="curve"/>
      <point x="576.5000000000001" y="354.0"/>
      <point x="626.5" y="312.5"/>
      <point x="634.4999999999999" y="254.5" type="curve"/>
      <point x="622.9999999999999" y="173.0" type="line"/>
      <point x="600.0" y="108.0"/>
      <point x="544.5" y="67.0"/>
    </contour>
  </outline>
</glyph>
<glyph name="A" format="2">
  <advance width="701.0"/>
  <unicode hex="0041"/>
  <anchor x="332.5" y="0.0" name="bottom"/>
  <anchor x="623.0" y="10.0" name="ogonek"/>
  <anchor x="414.49999999999994" y="738.0000000000001" name="top"/>
  <outline>
    <contour>
      <point x="99.5" y="0.0" type="line"/>
      <point x="441.5" y="642.9999999999999" type="line"/>
      <point x="366.0" y="597.5" type="line"/>
      <point x="529.9999999999999" y="0.0" type="line"/>
      <point x="641.5000000000001" y="0.0" type="line"/>
      <point x="417.99999999999994" y="753.0" type="line"/>
      <point x="412.0" y="753.0" type="line"/>
      <point x="3.499999999999993" y="0.0" type="line"/>
    </contour>
    <contour>
      <point x="223.50000000000003" y="273.5" type="line"/>
      <point x="184.5" y="189.5" type="line"/>
      <point x="513.4999999999999" y="189.5" type="line"/>
      <point x="491.5" y="273.5" type="line"/>
    </contour>
  </outline>
</glyph>
<glyph name="B" format="2">
  <advance width="614.0"/>
  <unicode hex="0042"/>
  <anchor x="278.5" y="0.0" name="bottom"/>
  <anchor x="302.49999999999994" y="700.0" name="top"/>
  <outline>
    <contour>
      <point x="351.50000000000006" y="723.0" type="curve" smooth="yes"/>
      <point x="165.49999999999997" y="723.0" type="line"/>
      <point x="77.0" y="0.0" type="line"/>
      <point x="299.00000000000006" y="0.0" type="line" smooth="yes"/>
      <point x="435.0" y="0.0"/>
      <point x="553.0" y="66.0"/>
      <point x="553.0" y="217.50000000000003" type="curve" smooth="yes"/>
      <point x="553.0" y="308.0"/>
      <point x="490.5" y="355.5"/>
      <point x="423.50000000000006" y="369.5" type="curve"/>
      <point x="426.5" y="365.0" type="line"/>
      <point x="528.5" y="390.00000000000006"/>
      <point x="560.5" y="486.5"/>
      <point x="560.5" y="565.5" type="curve" smooth="yes"/>
      <point x="560.5" y="678.0000000000001"/>
      <point x="482.5" y="723.0"/>
    </contour>
    <contour>
      <point x="332.5" y="406.5" type="curve" smooth="yes"/>
      <point x="226.5" y="406.5" type="line"/>
      <point x="254.50000000000003" y="632.4999999999999" type="line"/>
      <point x="342.50000000000006" y="632.4999999999999" type="line" smooth="yes"/>
      <point x="415.49999999999994" y="632.4999999999999"/>
      <point x="458.5" y="603.5"/>
      <point x="458.5" y="539.0" type="curve" smooth="yes"/>
      <point x="458.5" y="489.5"/>
      <point x="430.5" y="406.5"/>
    </contour>
    <contour>
      <point x="302.5" y="90.00000000000001" type="curve" smooth="yes"/>
      <point x="188.5" y="90.00000000000001" type="line"/>
      <point x="216.0" y="322.0" type="line"/>
      <point x="320.00000000000006" y="322.0" type="line" smooth="yes"/>
      <point x="385.5" y="322.0"/>
      <point x="454.99999999999994" y="294.99999999999994"/>
      <point x="454.99999999999994" y="221.00000000000003" type="curve" smooth="yes"/>
      <point x="454.99999999999994" y="145.5"/>
      <point x="401.0" y="90.00000000000001"/>
    </contour>
  </outline>
</glyph>
<glyph name="C" format="2">
  <advance width="698.5"/>
  <unicode hex="0043"/>
  <anchor x="429.50000000000006" y="-1.4999999999999996" name="bottom"/>
  <anchor x="454.0" y="717.5" name="top"/>
  <outline>
    <contour>
      <point x="617.5000000000001" y="37.5" type="curve"/>
      <point x="586.4999999999999" y="126.50000000000001" type="line"/>
      <point x="554.0000000000001" y="109.50000000000001"/>
      <point x="502.0" y="81.50000000000001"/>
      <point x="427.5" y="81.50000000000001" type="curve" smooth="yes"/>
      <point x="281.0" y="81.50000000000001"/>
      <point x="179.0" y="183.5"/>
      <point x="179.0" y="331.5" type="curve" smooth="yes"/>
      <point x="179.0" y="493.00000000000006"/>
      <point x="276.0" y="638.5"/>
      <point x="467.0" y="632.5" type="curve" smooth="yes"/>
      <point x="538.0" y="629.5"/>
      <point x="596.5" y="597.4999999999999"/>
      <point x="634.0" y="566.4999999999999" type="curve"/>
      <point x="684.0" y="654.5" type="line"/>
      <point x="633.0" y="691.5000000000001"/>
      <point x="555.5000000000001" y="726.5"/>
      <point x="458.49999999999994" y="726.5" type="curve" smooth="yes"/>
      <point x="184.0" y="726.5"/>
      <point x="78.0" y="512.5"/>
      <point x="78.0" y="324.5" type="curve" smooth="yes"/>
      <point x="78.0" y="90.5"/>
      <point x="255.00000000000003" y="-12.5"/>
      <point x="424.0" y="-12.5" type="curve" smooth="yes"/>
      <point x="510.0" y="-12.5"/>
      <point x="583.0" y="17.5"/>
    </contour>
  </outline>
</glyph>
<glyph name="D" format="2">
  <advance width="752.5"/>
  <unicode hex="0044"/>
  <anchor x="350.0" y="0.0" name="bottom"/>
  <anchor x="174.0" y="350.0" name="center"/>
  <anchor x="398.0" y="700.0" name="top"/>
  <outline>
    <contour>
      <point x="77.0" y="0.0" type="line"/>
      <point x="319.5" y="0.0" type="line" smooth="yes"/>
      <point x="522.0" y="0.0"/>
      <point x="696.0" y="135.50000000000003"/>
      <point x="711.0" y="366.99999999999994" type="curve" smooth="yes"/>
      <point x="724.5000000000001" y="545.0"/>
      <point x="646.0" y="723.0"/>
      <point x="377.0" y="723.0" type="curve" smooth="yes"/>
      <point x="165.49999999999997" y="723.0" type="line"/>
    </contour>
    <contour>
      <point x="185.0" y="93.50000000000001" type="line"/>
      <point x="250.5" y="629.4999999999999" type="line"/>
      <point x="376.0" y="629.4999999999999" type="line" smooth="yes"/>
      <point x="510.5" y="629.4999999999999"/>
      <point x="627.0" y="552.0"/>
      <point x="612.5" y="372.49999999999994" type="curve" smooth="yes"/>
      <point x="602.0" y="189.0"/>
      <point x="477.5" y="93.50000000000001"/>
      <point x="317.50000000000006" y="93.50000000000001" type="curve"/>
    </contour>
  </outline>
</glyph>
<glyph name="E" format="2">
  <advance width="653.0"/>
  <unicode hex="0045"/>
  <anchor x="335.0" y="0.0" name="bottom"/>
  <anchor x="542.0000000000001" y="10.0" name="ogonek"/>
  <anchor x="390.00000000000006" y="719.0000000000001" name="top"/>
  <anchor x="32.49999999999999" y="700.0" name="topleft"/>
  <outline>
    <contour>
      <point x="165.49999999999997" y="723.0" type="line"/>
      <point x="77.0" y="0.0" type="line"/>
      <point x="561.0" y="0.0" type="line"/>
      <point x="572.5" y="93.00000000000001" type="line"/>
      <point x="188.5" y="93.00000000000001" type="line"/>
      <point x="215.5" y="316.5" type="line"/>
      <point x="545.5" y="316.5" type="line"/>
      <point x="557.0000000000001" y="408.50000000000006" type="line"/>
      <point x="227.0" y="408.50000000000006" type="line"/>
      <point x="254.50000000000003" y="632.5" type="line"/>
      <point x="624.5" y="632.5" type="line"/>
      <point x="635.5" y="723.0" type="line"/>
    </contour>
  </outline>
</glyph>
<glyph name="F" format="2">
  <advance width="589.0"/>
  <unicode hex="0046"/>
  <anchor x="270.0" y="0.0" name="bottom"/>
  <anchor x="355.5" y="700.0" name="top"/>
  <outline>
    <contour>
      <point x="165.49999999999997" y="723.0" type="line"/>
      <point x="77.0" y="0.0" type="line"/>
      <point x="177.0" y="0.0" type="line"/>
      <point x="214.0" y="306.5" type="line"/>
      <point x="502.0" y="306.5" type="line"/>
      <point x="514.0" y="399.5" type="line"/>
      <point x="226.0" y="399.5" type="line"/>
      <point x="254.00000000000003" y="630.4999999999999" type="line"/>
      <point x="582.5000000000001" y="630.4999999999999" type="line"/>
      <point x="594.0" y="723.0" type="line"/>
    </contour>
  </outline>
</glyph>
<glyph name="G" format="2">
  <advance width="759.0"/>
  <unicode hex="0047"/>
  <anchor x="388.5" y="0.0" name="bottom"/>
  <anchor x="468.50000000000006" y="725.5000000000001" name="top"/>
  <outline>
    <contour>
      <point x="655.5000000000001" y="45.5" type="curve"/>
      <point x="692.5" y="350.00000000000006" type="line"/>
      <point x="449.49999999999994" y="350.00000000000006" type="line"/>
      <point x="438.0" y="257.5" type="line"/>
      <point x="582.0" y="257.5" type="line"/>
      <point x="564.0" y="106.00000000000001" type="line"/>
      <point x="529.9999999999999" y="90.00000000000001"/>
      <point x="481.5" y="83.00000000000001"/>
      <point x="437.5" y="85.00000000000001" type="curve" smooth="yes"/>
      <point x="321.5" y="90.50000000000001"/>
      <point x="176.0" y="164.50000000000003"/>
      <point x="178.0" y="332.00000000000006" type="curve" smooth="yes"/>
      <point x="180.5" y="456.49999999999994"/>
      <point x="255.00000000000003" y="627.9999999999999"/>
      <point x="471.49999999999994" y="627.9999999999999" type="curve" smooth="yes"/>
      <point x="534.9999999999999" y="628.4999999999999"/>
      <point x="608.5" y="606.0"/>
      <point x="658.5" y="572.0" type="curve"/>
      <point x="702.0" y="659.5000000000001" type="line"/>
      <point x="638.0000000000001" y="702.0"/>
      <point x="554.0" y="724.0000000000001"/>
      <point x="473.49999999999994" y="725.5" type="curve" smooth="yes"/>
      <point x="198.0" y="728.0"/>
      <point x="81.5" y="504.50000000000006"/>
      <point x="77.0" y="329.0" type="curve" smooth="yes"/>
      <point x="73.5" y="87.5"/>
      <point x="285.0" y="-9.499999999999998"/>
      <point x="430.0" y="-10.999999999999998" type="curve" smooth="yes"/>
      <point x="509.5" y="-12.5"/>
      <point x="612.5000000000001" y="15.000000000000004"/>
    </contour>
  </outline>
</glyph>
<glyph name="H" format="2">
  <advance width="781.5"/>
  <unicode hex="0048"/>
  <anchor x="362.00000000000006" y="0.0" name="bottom"/>
  <anchor x="403.0" y="356.5" name="center"/>
  <anchor x="444.0" y="725.5000000000001" name="top"/>
  <anchor x="-6.000000000000014" y="700.0" name="topleft"/>
  <outline>
    <contour>
      <point x="737.5000000000001" y="723.0" type="line"/>
      <point x="637.5" y="723.0" type="line"/>
      <point x="599.4999999999999" y="411.0" type="line"/>
      <point x="227.0" y="411.0" type="line"/>
      <point x="265.5" y="723.0" type="line"/>
      <point x="165.49999999999997" y="723.0" type="line"/>
      <point x="77.0" y="0.0" type="line"/>
      <point x="177.0" y="0.0" type="line"/>
      <point x="216.0" y="316.5" type="line"/>
      <point x="588.5" y="316.5" type="line"/>
      <point x="548.9999999999999" y="0.0" type="line"/>
      <point x="649.0" y="0.0" type="line"/>
    </contour>
  </outline>
</glyph>
<glyph name="I" format="2">
  <advance width="309.5"/>
  <unicode hex="0049"/>
  <anchor x="125.0" y="0.0" name="bottom"/>
  <anchor x="176.0" y="3.499999999999999" name="ogonek"/>
  <anchor x="213.50000000000003" y="719.0000000000001" name="top"/>
  <anchor x="25.499999999999993" y="700.0" name="topleft"/>
  <outline>
    <contour>
      <point x="165.49999999999997" y="723.0" type="line"/>
      <point x="77.0" y="0.0" type="line"/>
      <point x="177.0" y="0.0" type="line"/>
      <point x="265.5" y="723.0" type="line"/>
    </contour>
  </outline>
</glyph>
<glyph name="J" format="2">
  <advance width="368.0"/>
  <unicode hex="004A"/>
  <anchor x="156.0" y="0.0" name="bottom"/>
  <anchor x="270.5" y="723.0" name="top"/>
  <outline>
    <contour>
      <point x="251.5" y="131.0" type="curve" smooth="yes"/>
      <point x="324.0" y="723.0" type="line"/>
      <point x="227.0" y="723.0" type="line"/>
      <point x="155.0" y="134.0" type="line" smooth="yes"/>
      <point x="139.5" y="8.500000000000007"/>
      <point x="65.0" y="-49.499999999999986"/>
      <point x="-28.5" y="-54.499999999999986" type="curve"/>
      <point x="-40.0" y="-149.0" type="line"/>
      <point x="-40.0" y="-149.0" type="line"/>
      <point x="109.0" y="-144.5"/>
      <point x="230.5" y="-44.5"/>
    </contour>
  </outline>
</glyph>
<glyph name="K" format="2">
  <advance width="678.0"/>
  <unicode hex="004B"/>
  <anchor x="313.5" y="0.0" name="bottom"/>
  <anchor x="403.0" y="723.0" name="top"/>
  <outline>
    <contour>
      <point x="227.5" y="432.0" type="line"/>
      <point x="263.5" y="723.0" type="line"/>
      <point x="165.49999999999997" y="723.0" type="line"/>
      <point x="77.0" y="0.0" type="line"/>
      <point x="175.0" y="0.0" type="line"/>
      <point x="210.5" y="292.0" type="line"/>
      <point x="278.5" y="350.99999999999994" type="line"/>
      <point x="499.5" y="0.0" type="line"/>
      <point x="622.5000000000001" y="0.0" type="line"/>
      <point x="357.5" y="412.49999999999994" type="line"/>
      <point x="694.0" y="723.0" type="line"/>
      <point x="568.5" y="723.0" type="line"/>
      <point x="235.00000000000003" y="414.5" type="line"/>
      <point x="220.0" y="396.00000000000006" type="line"/>
    </contour>
  </outline>
</glyph>
<glyph name="L" format="2">
  <advance width="608.0"/>
  <unicode hex="004C"/>
  <anchor x="299.99999999999994" y="0.0" name="bottom"/>
  <anchor x="416.9999999999999" y="361.50000000000006" name="center"/>
  <anchor x="211.0" y="735.5" name="top"/>
  <anchor x="645.0" y="723.0" name="topright"/>
  <outline>
    <contour>
      <point x="165.49999999999997" y="723.0" type="line"/>
      <point x="77.0" y="0.0" type="line"/>
      <point x="541.5000000000001" y="0.0" type="line"/>
      <point x="553.0" y="93.50000000000001" type="line"/>
      <point x="185.0" y="93.50000000000001" type="line"/>
      <point x="262.0" y="723.0" type="line"/>
    </contour>
  </outline>
</glyph>
<glyph name="M" format="2">
  <advance width="928.5"/>
  <unicode hex="004D"/>
  <anchor x="448.00000000000006" y="0.0" name="bottom"/>
  <anchor x="505.0" y="700.0" name="top"/>
  <outline>
    <contour>
      <point x="170.5" y="0.0" type="line"/>
      <point x="234.5" y="522.0" type="line"/>
      <point x="212.5" y="476.5" type="line"/>
      <point x="442.0" y="90.99999999999996" type="line"/>
      <point x="444.0" y="90.99999999999996" type="line"/>
      <point x="763.9999999999999" y="476.5" type="line"/>
      <point x="763.5" y="525.9999999999999" type="line"/>
      <point x="698.9999999999999" y="0.0" type="line"/>
      <point x="795.5000000000001" y="0.0" type="line"/>
      <point x="887.5" y="746.0" type="line"/>
      <point x="886.0" y="746.0" type="line"/>
      <point x="441.49999999999994" y="216.0" type="line"/>
      <point x="483.00000000000006" y="207.5" type="line"/>
      <point x="169.5" y="746.0" type="line"/>
      <point x="168.5" y="746.0" type="line"/>
      <point x="76.5" y="0.0" type="line"/>
    </contour>
  </outline>
</glyph>
<glyph name="N" format="2">
  <advance width="838.5"/>
  <unicode hex="004E"/>
  <anchor x="401.00000000000006" y="0.0" name="bottom"/>
  <anchor x="472.00000000000006" y="700.0" name="top"/>
  <outline>
    <contour>
      <point x="703.0" y="-23.5" type="line"/>
      <point x="794.5" y="723.0" type="line"/>
      <point x="698.0" y="723.0" type="line"/>
      <point x="633.5" y="181.00000000000003" type="line"/>
      <point x="655.0" y="174.50000000000003" type="line"/>
      <point x="172.0" y="745.0000000000001" type="line"/>
      <point x="168.0" y="745.0000000000001" type="line"/>
      <point x="76.5" y="0.0" type="line"/>
      <point x="173.5" y="0.0" type="line"/>
      <point x="237.5" y="536.9999999999999" type="line"/>
      <point x="211.50000000000003" y="546.0" type="line"/>
      <point x="700.0" y="-23.5" type="line"/>
    </contour>
  </outline>
</glyph>
<glyph name="O" format="2">
  <advance width="858.5"/>
  <unicode hex="004F"/>
  <anchor x="444.50000000000006" y="0.0" name="bottom"/>
  <anchor x="460.00000000000006" y="350.0" name="center"/>
  <anchor x="564.5" y="6.500000000000001" name="ogonek"/>
  <anchor x="476.0" y="719.0000000000001" name="top"/>
  <anchor x="56.0" y="700.0" name="topleft"/>
  <anchor x="716.5" y="590.5" name="topright"/>
  <outline>
    <contour>
      <point x="425.0" y="-7.0" type="curve" smooth="yes"/>
      <point x="686.0" y="-7.0"/>
      <point x="818.0000000000001" y="211.00000000000003"/>
      <point x="818.0000000000001" y="387.0" type="curve" smooth="yes"/>
      <point x="818.0000000000001" y="613.0"/>
      <point x="647.4999999999999" y="730.0"/>
      <point x="470.99999999999994" y="730.0" type="curve" smooth="yes"/>
      <point x="210.0" y="730.0"/>
      <point x="78.0" y="512.0"/>
      <point x="78.0" y="335.50000000000006" type="curve" smooth="yes"/>
      <point x="78.0" y="110.0"/>
      <point x="248.5" y="-7.0"/>
    </contour>
    <contour>
      <point x="426.49999999999994" y="86.50000000000001" type="curve" smooth="yes"/>
      <point x="281.0" y="86.50000000000001"/>
      <point x="178.0" y="204.00000000000003"/>
      <point x="178.0" y="340.5" type="curve" smooth="yes"/>
      <point x="178.0" y="471.99999999999994"/>
      <point x="267.0" y="636.5"/>
      <point x="467.0" y="636.5" type="curve" smooth="yes"/>
      <point x="611.9999999999999" y="636.5"/>
      <point x="718.0" y="518.5"/>
      <point x="718.0" y="382.00000000000006" type="curve" smooth="yes"/>
      <point x="718.0" y="251.0"/>
      <point x="626.5" y="86.50000000000001"/>
    </contour>
  </outline>
</glyph>
<glyph name="P" format="2">
  <advance width="584.0"/>
  <unicode hex="0050"/>
  <outline>
    <contour>
      <point x="358.0" y="723.0" type="curve" smooth="yes"/>
      <point x="165.49999999999997" y="723.0" type="line"/>
      <point x="77.0" y="0.0" type="line"/>
      <point x="177.0" y="0.0" type="line"/>
      <point x="209.50000000000003" y="265.49999999999994" type="line"/>
      <point x="313.0" y="265.49999999999994" type="line" smooth="yes"/>
      <point x="509.00000000000006" y="265.49999999999994"/>
      <point x="585.0" y="406.5"/>
      <point x="585.0" y="525.4999999999999" type="curve" smooth="yes"/>
      <point x="585.0" y="653.4999999999999"/>
      <point x="490.0" y="723.0"/>
    </contour>
    <contour>
      <point x="322.00000000000006" y="359.5" type="curve" smooth="yes"/>
      <point x="221.0" y="359.5" type="line"/>
      <point x="254.00000000000003" y="629.0" type="line"/>
      <point x="356.0" y="629.0" type="line" smooth="yes"/>
      <point x="448.00000000000006" y="629.0"/>
      <point x="483.49999999999994" y="566.5"/>
      <point x="483.49999999999994" y="512.0" type="curve" smooth="yes"/>
      <point x="483.49999999999994" y="458.49999999999994"/>
      <point x="445.0" y="359.5"/>
    </contour>
  </outline>
</glyph>
<glyph name="Q" format="2">
  <advance width="942.0"/>
  <unicode hex="0051"/>
  <outline>
    <contour>
      <point x="635.5" y="71.5" type="line"/>
      <point x="499.49999999999994" y="0.0" type="line"/>
      <point x="871.5" y="0.0" type="line"/>
      <point x="883.0" y="95.00000000000001" type="line"/>
    </contour>
    <contour>
      <point x="467.5" y="-7.0" type="curve" smooth="yes"/>
      <point x="728.5" y="-7.0"/>
      <point x="860.5000000000001" y="211.00000000000003"/>
      <point x="860.5000000000001" y="387.0" type="curve" smooth="yes"/>
      <point x="860.5000000000001" y="613.0"/>
      <point x="689.9999999999999" y="730.0"/>
      <point x="513.4999999999999" y="730.0" type="curve" smooth="yes"/>
      <point x="252.5" y="730.0"/>
      <point x="120.49999999999999" y="512.0"/>
      <point x="120.49999999999999" y="335.50000000000006" type="curve" smooth="yes"/>
      <point x="120.49999999999999" y="110.0"/>
      <point x="291.0" y="-7.0"/>
    </contour>
    <contour>
      <point x="468.99999999999994" y="86.50000000000001" type="curve" smooth="yes"/>
      <point x="324.0" y="86.50000000000001"/>
      <point x="220.5" y="204.00000000000003"/>
      <point x="220.5" y="340.5" type="curve" smooth="yes"/>
      <point x="220.5" y="471.99999999999994"/>
      <point x="309.5" y="636.5"/>
      <point x="509.5" y="636.5" type="curve" smooth="yes"/>
      <point x="654.4999999999999" y="636.5"/>
      <point x="760.5" y="518.5"/>
      <point x="760.5" y="382.00000000000006" type="curve" smooth="yes"/>
      <point x="760.5" y="251.0"/>
      <point x="669.0" y="86.50000000000001"/>
    </contour>
  </outline>
</glyph>
<glyph name="R" format="2">
  <advance width="660.0"/>
  <unicode hex="0052"/>
  <anchor x="316.50000000000006" y="0.0" name="bottom"/>
  <anchor x="362.0" y="719.0000000000001" name="top"/>
  <outline>
    <contour>
      <point x="358.0" y="723.0" type="curve" smooth="yes"/>
      <point x="165.49999999999997" y="723.0" type="line"/>
      <point x="77.0" y="0.0" type="line"/>
      <point x="173.5" y="0.0" type="line"/>
      <point x="206.5" y="265.99999999999994" type="line"/>
      <point x="313.0" y="265.99999999999994" type="line" smooth="yes"/>
      <point x="495.00000000000006" y="265.99999999999994"/>
      <point x="572.0" y="385.0"/>
      <point x="586.0" y="498.5" type="curve" smooth="yes"/>
      <point x="603.5" y="644.5"/>
      <point x="503.0" y="723.0"/>
    </contour>
    <contour>
      <point x="323.00000000000006" y="359.50000000000006" type="curve" smooth="yes"/>
      <point x="218.00000000000003" y="359.50000000000006" type="line"/>
      <point x="250.5" y="629.5" type="line"/>
      <point x="362.50000000000006" y="629.5" type="line" smooth="yes"/>
      <point x="464.5" y="629.5"/>
      <point x="492.5" y="552.5"/>
      <point x="485.5" y="495.0" type="curve" smooth="yes"/>
      <point x="478.5" y="437.5"/>
      <point x="438.0" y="359.50000000000006"/>
    </contour>
    <contour>
      <point x="434.50000000000006" y="303.49999999999994" type="line"/>
      <point x="319.0" y="301.0" type="line"/>
      <point x="474.0" y="0.0" type="line"/>
      <point x="587.0000000000001" y="0.0" type="line"/>
    </contour>
  </outline>
</glyph>
<glyph name="S" format="2">
  <advance width="565.0"/>
  <unicode hex="0053"/>
  <anchor x="275.0" y="0.0" name="bottom"/>
  <anchor x="331.99999999999994" y="700.0" name="top"/>
  <outline>
    <contour>
      <point x="516.0" y="580.9999999999999" type="curve"/>
      <point x="562.5" y="652.5" type="line"/>
      <point x="509.0" y="689.0"/>
      <point x="442.0" y="719.5000000000001"/>
      <point x="347.0" y="724.0" type="curve" smooth="yes"/>
      <point x="222.0" y="725.0"/>
      <point x="124.99999999999999" y="655.0"/>
      <point x="115.5" y="537.9999999999999" type="curve" smooth="yes"/>
      <point x="104.0" y="419.0"/>
      <point x="205.5" y="370.49999999999994"/>
      <point x="290.0" y="331.5" type="curve" smooth="yes"/>
      <point x="356.5" y="301.49999999999994"/>
      <point x="416.99999999999994" y="263.5"/>
      <point x="413.5" y="198.49999999999997" type="curve" smooth="yes"/>
      <point x="408.5" y="127.0"/>
      <point x="345.5" y="77.50000000000001"/>
      <point x="260.5" y="79.50000000000001" type="curve" smooth="yes"/>
      <point x="193.50000000000003" y="82.00000000000001"/>
      <point x="119.5" y="116.50000000000001"/>
      <point x="76.0" y="157.5" type="curve"/>
      <point x="23.499999999999996" y="84.0" type="line"/>
      <point x="81.5" y="34.0"/>
      <point x="163.50000000000003" y="-2.9999999999999996"/>
      <point x="258.0" y="-6.5" type="curve" smooth="yes"/>
      <point x="422.5" y="-12.5"/>
      <point x="505.50000000000006" y="93.5"/>
      <point x="514.5" y="194.0" type="curve" smooth="yes"/>
      <point x="525.0" y="321.50000000000006"/>
      <point x="439.0" y="370.50000000000006"/>
      <point x="355.5" y="408.0" type="curve" smooth="yes"/>
      <point x="282.0" y="441.50000000000006"/>
      <point x="211.5" y="479.00000000000006"/>
      <point x="216.00000000000003" y="540.4999999999999" type="curve" smooth="yes"/>
      <point x="220.0" y="587.5"/>
      <point x="257.5" y="639.5"/>
      <point x="350.50000000000006" y="638.0" type="curve" smooth="yes"/>
      <point x="407.5" y="636.0"/>
      <point x="469.5" y="609.5"/>
    </contour>
  </outline>
</glyph>
<glyph name="T" format="2">
  <advance width="581.5"/>
  <unicode hex="0054"/>
  <anchor x="261.0" y="0.0" name="bottom"/>
  <anchor x="304.0" y="350.0" name="center"/>
  <anchor x="349.5" y="700.0" name="top"/>
  <outline>
    <contour>
      <point x="111.5" y="723.0" type="line"/>
      <point x="99.5" y="627.5" type="line"/>
      <point x="288.0" y="627.5" type="line"/>
      <point x="210.99999999999997" y="0.0" type="line"/>
      <point x="311.00000000000006" y="0.0" type="line"/>
      <point x="388.00000000000006" y="627.5" type="line"/>
      <point x="580.0000000000001" y="627.5" type="line"/>
      <point x="592.0" y="723.0" type="line"/>
    </contour>
  </outline>
</glyph>
<glyph name="U" format="2">
  <advance width="752.0"/>
  <unicode hex="0055"/>
  <anchor x="348.00000000000006" y="0.0" name="bottom"/>
  <anchor x="486.5" y="10.0" name="ogonek"/>
  <anchor x="438.5" y="719.0000000000001" name="top"/>
  <anchor x="690.0" y="617.0" name="topright"/>
  <outline>
    <contour>
      <point x="208.5" y="256.0" type="curve" smooth="yes"/>
      <point x="265.5" y="723.0" type="line"/>
      <point x="165.49999999999997" y="723.0" type="line"/>
      <point x="108.0" y="253.0" type="line" smooth="yes"/>
      <point x="88.5" y="94.5"/>
      <point x="195.00000000000003" y="-8.0"/>
      <point x="346.5" y="-8.0" type="curve" smooth="yes"/>
      <point x="346.5" y="-8.0" type="line" smooth="yes"/>
      <point x="505.5" y="-8.0"/>
      <point x="630.5" y="94.5"/>
      <point x="650.5000000000001" y="253.0" type="curve" smooth="yes"/>
      <point x="707.5" y="723.0" type="line"/>
      <point x="607.4999999999999" y="723.0" type="line"/>
      <point x="550.4999999999999" y="256.0" type="line" smooth="yes"/>
      <point x="538.4999999999999" y="159.0"/>
      <point x="459.5" y="86.00000000000001"/>
      <point x="358.0" y="86.00000000000001" type="curve" smooth="yes"/>
      <point x="260.5" y="86.00000000000001"/>
      <point x="196.00000000000003" y="159.0"/>
    </contour>
  </outline>
</glyph>
<glyph name="V" format="2">
  <advance width="719.0"/>
  <unicode hex="0056"/>
  <anchor x="334.5" y="0.0" name="bottom"/>
  <anchor x="366.0" y="700.0" name="top"/>
  <outline>
    <contour>
      <point x="329.5" y="-28.5" type="line"/>
      <point x="333.00000000000006" y="-28.5" type="line"/>
      <point x="742.0000000000001" y="723.0" type="line"/>
      <point x="628.0" y="723.0" type="line"/>
      <point x="330.50000000000006" y="140.50000000000003" type="line"/>
      <point x="385.0" y="130.00000000000003" type="line"/>
      <point x="219.5" y="723.0" type="line"/>
      <point x="104.0" y="723.0" type="line"/>
    </contour>
  </outline>
</glyph>
<glyph name="W" format="2">
  <advance width="1008.0"/>
  <unicode hex="0057"/>
  <anchor x="500.0" y="0.0" name="bottom"/>
  <anchor x="589.5000000000001" y="723.0" name="top"/>
  <outline>
    <contour>
      <point x="103.5" y="719.5000000000001" type="line"/>
      <point x="299.49999999999994" y="-33.5" type="line"/>
      <point x="546.0000000000001" y="413.5" type="line"/>
      <point x="516.5" y="544.5" type="line"/>
      <point x="328.5" y="175.5" type="line"/>
      <point x="344.50000000000006" y="169.00000000000003" type="line"/>
      <point x="216.50000000000003" y="719.5000000000001" type="line"/>
    </contour>
    <contour>
      <point x="452.0" y="719.5000000000001" type="line"/>
      <point x="654.0" y="-32.0" type="line"/>
      <point x="1030.5" y="719.5000000000001" type="line"/>
      <point x="926.5" y="719.5000000000001" type="line"/>
      <point x="674.5" y="180.50000000000003" type="line"/>
      <point x="694.0000000000001" y="176.50000000000003" type="line"/>
      <point x="548.5" y="719.5000000000001" type="line"/>
    </contour>
  </outline>
</glyph>
<glyph name="X" format="2">
  <advance width="644.5"/>
  <unicode hex="0058"/>
  <outline>
    <contour>
      <point x="96.0" y="723.0" type="line"/>
      <point x="477.0" y="0.0" type="line"/>
      <point x="601.5" y="0.0" type="line"/>
      <point x="218.5" y="723.0" type="line"/>
    </contour>
    <contour>
      <point x="-2.5000000000000036" y="0.0" type="line"/>
      <point x="117.50000000000001" y="0.0" type="line"/>
      <point x="332.50000000000006" y="299.0" type="line"/>
      <point x="295.5" y="393.5" type="line"/>
    </contour>
    <contour>
      <point x="351.0" y="428.5" type="line"/>
      <point x="393.00000000000006" y="346.5" type="line"/>
      <point x="679.5" y="723.0" type="line"/>
      <point x="561.5" y="723.0" type="line"/>
    </contour>
  </outline>
</glyph>
<glyph name="Y" format="2">
  <advance width="691.5"/>
  <unicode hex="0059"/>
  <anchor x="313.5" y="0.0" name="bottom"/>
  <anchor x="402.5" y="723.0" name="top"/>
  <anchor x="103.0" y="723.0" name="topleft"/>
  <outline>
    <contour>
      <point x="299.99999999999994" y="241.0" type="line"/>
      <point x="270.5" y="0.0" type="line"/>
      <point x="368.0" y="0.0" type="line"/>
      <point x="397.50000000000006" y="241.0" type="line"/>
      <point x="727.5000000000001" y="723.0" type="line"/>
      <point x="607.4999999999999" y="723.0" type="line"/>
      <point x="346.0" y="322.0" type="line"/>
      <point x="376.0" y="324.0" type="line"/>
      <point x="210.00000000000003" y="723.0" type="line"/>
      <point x="91.5" y="723.0" type="line"/>
    </contour>
  </outline>
</glyph>
<glyph name="Z" format="2">
  <advance width="658.5"/>
  <unicode hex="005A"/>
  <anchor x="306.0" y="0.0" name="bottom"/>
  <anchor x="416.50000000000006" y="723.0" name="top"/>
  <outline>
    <contour>
      <point x="4.499999999999998" y="0.0" type="line"/>
      <point x="612.0" y="0.0" type="line"/>
      <point x="623.5" y="93.50000000000001" type="line"/>
      <point x="169.00000000000003" y="93.50000000000001" type="line"/>
      <point x="178.00000000000003" y="81.50000000000001" type="line"/>
      <point x="689.0" y="723.0" type="line"/>
      <point x="255.5" y="723.0" type="line"/>
      <point x="232.5" y="723.0"/>
      <point x="226.0" y="730.5000000000001"/>
      <point x="227.0" y="746.0" type="curve" smooth="yes"/>
      <point x="228.5" y="759.0" type="line"/>
      <point x="138.5" y="759.0" type="line"/>
      <point x="130.0" y="690.9999999999999" type="line" smooth="yes"/>
      <point x="125.0" y="651.4999999999999"/>
      <point x="164.00000000000003" y="629.5"/>
      <point x="204.5" y="629.5" type="curve" smooth="yes"/>
      <point x="537.0" y="629.5" type="line"/>
      <point x="524.0" y="656.0" type="line"/>
    </contour>
  </outline>
</glyph>
<glyph name="bracketleft" format="2">
  <advance width="351.0"/>
  <unicode hex="005B"/>
  <outline>
    <contour>
      <point x="169.99999999999997" y="755.5" type="line"/>
      <point x="58.5" y="-151.00000000000003" type="line"/>
      <point x="253.5" y="-151.00000000000003" type="line"/>
      <point x="263.5" y="-68.99999999999999" type="line"/>
      <point x="153.0" y="-68.99999999999999" type="line"/>
      <point x="244.0" y="673.0" type="line"/>
      <point x="354.5" y="673.0" type="line"/>
      <point x="364.5" y="755.5" type="line"/>
    </contour>
  </outline>
</glyph>
<glyph name="backslash" format="2">
  <advance width="389.5"/>
  <unicode hex="005C"/>
  <outline>
    <contour>
      <point x="186.0" y="745.5" type="curve"/>
      <point x="91.0" y="745.5" type="line"/>
      <point x="154.0" y="490.5"/>
      <point x="216.0" y="236.00000000000003"/>
      <point x="278.5" y="-19.0" type="curve"/>
      <point x="373.5" y="-19.0" type="line"/>
      <point x="311.0" y="236.00000000000003"/>
      <point x="249.00000000000003" y="490.5"/>
    </contour>
  </outline>
</glyph>
<glyph name="bracketright" format="2">
  <advance width="371.0"/>
  <unicode hex="005D"/>
  <outline>
    <contour>
      <point x="137.0" y="755.5" type="line"/>
      <point x="127.0" y="673.0" type="line"/>
      <point x="237.0" y="673.0" type="line"/>
      <point x="146.5" y="-68.99999999999999" type="line"/>
      <point x="35.99999999999999" y="-68.99999999999999" type="line"/>
      <point x="25.499999999999993" y="-151.00000000000003" type="line"/>
      <point x="220.5" y="-151.00000000000003" type="line"/>
      <point x="331.49999999999994" y="755.5" type="line"/>
    </contour>
  </outline>
</glyph>
<glyph name="asciicircum" format="2">
  <advance width="475.5"/>
  <unicode hex="005E"/>
  <outline>
    <contour>
      <point x="356.5" y="485.5" type="curve"/>
      <point x="416.00000000000006" y="485.5" type="line"/>
      <point x="382.50000000000006" y="546.0"/>
      <point x="350.00000000000006" y="607.5"/>
      <point x="317.00000000000006" y="668.0" type="curve"/>
      <point x="317.00000000000006" y="668.0" type="line"/>
      <point x="269.0" y="607.5"/>
      <point x="220.50000000000003" y="546.0"/>
      <point x="173.00000000000003" y="485.5" type="curve"/>
      <point x="232.50000000000003" y="485.5" type="line"/>
      <point x="247.5" y="503.99999999999994"/>
      <point x="290.0" y="551.5"/>
      <point x="304.99999999999994" y="570.4999999999999" type="curve"/>
      <point x="315.5" y="551.5"/>
      <point x="345.99999999999994" y="503.99999999999994"/>
    </contour>
  </outline>
</glyph>
<glyph name="underscore" format="2">
  <advance width="607.5"/>
  <unicode hex="005F"/>
  <outline>
    <contour>
      <point x="111.5" y="81.50000000000001" type="line"/>
      <point x="101.5" y="0.0" type="line"/>
      <point x="506.5" y="0.0" type="line"/>
      <point x="516.5" y="81.50000000000001" type="line"/>
    </contour>
  </outline>
</glyph>
<glyph name="grave" format="2">
  <advance width="203.0"/>
  <unicode hex="0060"/>
  <outline>
    <contour>
      <point x="145.5" y="619.5" type="line"/>
      <point x="41.5" y="619.5" type="line"/>
      <point x="152.00000000000003" y="485.5" type="line"/>
      <point x="211.50000000000003" y="485.5" type="line"/>
    </contour>
  </outline>
</glyph>
<glyph name="a" format="2">
  <advance width="589.5"/>
  <unicode hex="0061"/>
  <anchor x="267.5" y="-12.500000000000004" name="bottom"/>
  <anchor x="490.00000000000006" y="6.500000000000001" name="ogonek"/>
  <anchor x="322.5" y="435.0" name="top"/>
  <outline>
    <contour>
      <point x="223.99999999999997" y="-8.0" type="curve" smooth="yes"/>
      <point x="329.0" y="-9.5"/>
      <point x="393.50000000000006" y="56.0"/>
      <point x="409.99999999999994" y="80.5" type="curve"/>
      <point x="402.5" y="104.5" type="line"/>
      <point x="390.0" y="0.0" type="line"/>
      <point x="483.5" y="0.0" type="line"/>
      <point x="533.5" y="414.0" type="line"/>
      <point x="447.99999999999994" y="414.0" type="line"/>
      <point x="426.49999999999994" y="320.5" type="line"/>
      <point x="435.5" y="338.0" type="line"/>
      <point x="411.99999999999994" y="389.00000000000006"/>
      <point x="364.00000000000006" y="431.00000000000006"/>
      <point x="275.0" y="431.00000000000006" type="curve" smooth="yes"/>
      <point x="127.5" y="431.00000000000006"/>
      <point x="44.0" y="304.0"/>
      <point x="44.0" y="193.00000000000003" type="curve" smooth="yes"/>
      <point x="44.0" y="69.5"/>
      <point x="130.49999999999997" y="-9.5"/>
    </contour>
    <contour>
      <point x="275.0" y="67.5" type="curve" smooth="yes"/>
      <point x="196.00000000000003" y="67.5"/>
      <point x="141.0" y="124.0"/>
      <point x="141.0" y="204.0" type="curve" smooth="yes"/>
      <point x="141.0" y="262.5"/>
      <point x="181.5" y="354.0"/>
      <point x="291.0" y="354.0" type="curve" smooth="yes"/>
      <point x="359.5" y="354.0"/>
      <point x="411.99999999999994" y="310.5"/>
      <point x="420.0" y="250.5" type="curve"/>
      <point x="410.5" y="168.49999999999997" type="line"/>
      <point x="389.0" y="106.0"/>
      <point x="335.0" y="67.5"/>
    </contour>
  </outline>
</glyph>
<glyph name="b" format="2">
  <advance width="595.0"/>
  <unicode hex="0062"/>
  <anchor x="290.5" y="0.0" name="bottom"/>
  <anchor x="346.00000000000006" y="454.0" name="top"/>
  <outline>
    <contour>
      <point x="312.5" y="-9.5" type="curve" smooth="yes"/>
      <point x="464.5" y="-9.5"/>
      <point x="551.0" y="105.0"/>
      <point x="551.0" y="224.50000000000003" type="curve" smooth="yes"/>
      <point x="551.0" y="359.5"/>
      <point x="463.5" y="430.50000000000006"/>
      <point x="355.0" y="430.50000000000006" type="curve" smooth="yes"/>
      <point x="284.0" y="430.50000000000006"/>
      <point x="223.50000000000003" y="399.50000000000006"/>
      <point x="188.5" y="357.0" type="curve"/>
      <point x="188.0" y="323.0" type="line"/>
      <point x="243.0" y="774.5" type="line"/>
      <point x="150.0" y="774.5" type="line"/>
      <point x="55.0" y="0.0" type="line"/>
      <point x="148.5" y="0.0" type="line"/>
      <point x="162.0" y="110.5" type="line"/>
      <point x="148.0" y="84.0" type="line"/>
      <point x="176.5" y="29.999999999999996"/>
      <point x="231.5" y="-9.5"/>
    </contour>
    <contour>
      <point x="303.00000000000006" y="70.0" type="curve" smooth="yes"/>
      <point x="215.0" y="70.0"/>
      <point x="182.5" y="133.00000000000003"/>
      <point x="170.0" y="176.50000000000003" type="curve"/>
      <point x="181.00000000000003" y="260.5" type="line"/>
      <point x="203.50000000000003" y="317.5"/>
      <point x="256.5" y="356.49999999999994"/>
      <point x="322.0" y="356.49999999999994" type="curve" smooth="yes"/>
      <point x="404.5" y="356.49999999999994"/>
      <point x="455.0" y="302.0"/>
      <point x="455.0" y="218.50000000000003" type="curve" smooth="yes"/>
      <point x="455.0" y="156.0"/>
      <point x="414.0" y="70.0"/>
    </contour>
  </outline>
</glyph>
<glyph name="c" format="2">
  <advance width="460.5"/>
  <unicode hex="0063"/>
  <anchor x="197.50000000000003" y="0.0" name="bottom"/>
  <anchor x="260.0" y="422.50000000000006" name="top"/>
  <outline>
    <contour>
      <point x="397.00000000000006" y="28.0" type="curve"/>
      <point x="356.5" y="90.0" type="line"/>
      <point x="333.0" y="74.5"/>
      <point x="305.5" y="65.5"/>
      <point x="274.0" y="65.5" type="curve" smooth="yes"/>
      <point x="192.0" y="65.5"/>
      <point x="138.0" y="123.0"/>
      <point x="138.0" y="195.0" type="curve" smooth="yes"/>
      <point x="138.0" y="281.0"/>
      <point x="205.00000000000003" y="345.0"/>
      <point x="280.0" y="345.0" type="curve" smooth="yes"/>
      <point x="327.5" y="345.0"/>
      <point x="364.50000000000006" y="324.0"/>
      <point x="386.5" y="302.5" type="curve"/>
      <point x="440.50000000000006" y="360.5" type="line"/>
      <point x="404.0" y="397.0"/>
      <point x="349.50000000000006" y="422.5"/>
      <point x="274.00000000000006" y="422.5" type="curve" smooth="yes"/>
      <point x="127.99999999999999" y="422.5"/>
      <point x="43.5" y="303.0"/>
      <point x="43.5" y="189.0" type="curve" smooth="yes"/>
      <point x="43.5" y="41.99999999999999"/>
      <point x="172.50000000000003" y="-11.0"/>
      <point x="258.0" y="-11.0" type="curve" smooth="yes"/>
      <point x="307.0" y="-11.0"/>
      <point x="359.0" y="3.4999999999999996"/>
    </contour>
  </outline>
</glyph>
<glyph name="d" format="2">
  <advance width="595.0"/>
  <unicode hex="0064"/>
  <anchor x="290.0" y="0.0" name="bottom"/>
  <anchor x="387.0" y="373.4999999999999" name="center"/>
  <anchor x="307.0" y="454.0" name="top"/>
  <anchor x="625.0000000000001" y="583.5" name="topright"/>
  <outline>
    <contour>
      <point x="243.0" y="-8.5" type="curve" smooth="yes"/>
      <point x="311.5" y="-11.000000000000002"/>
      <point x="369.49999999999994" y="24.5"/>
      <point x="414.5" y="74.5" type="curve"/>
      <point x="407.0" y="99.0" type="line"/>
      <point x="394.49999999999994" y="0.0" type="line"/>
      <point x="488.0" y="0.0" type="line"/>
      <point x="584.0" y="774.5" type="line"/>
      <point x="490.5" y="774.5" type="line"/>
      <point x="434.5" y="315.5" type="line"/>
      <point x="454.00000000000006" y="339.0" type="line"/>
      <point x="427.0" y="389.0"/>
      <point x="366.00000000000006" y="429.0"/>
      <point x="290.00000000000006" y="431.00000000000006" type="curve" smooth="yes"/>
      <point x="142.49999999999997" y="433.5"/>
      <point x="49.5" y="320.5"/>
      <point x="44.5" y="200.5" type="curve" smooth="yes"/>
      <point x="39.5" y="88.5"/>
      <point x="124.0" y="-6.500000000000002"/>
    </contour>
    <contour>
      <point x="271.0" y="70.5" type="curve" smooth="yes"/>
      <point x="190.5" y="73.0"/>
      <point x="136.5" y="132.5"/>
      <point x="140.5" y="213.5" type="curve" smooth="yes"/>
      <point x="145.5" y="302.99999999999994"/>
      <point x="211.5" y="359.5"/>
      <point x="298.5" y="356.5" type="curve" smooth="yes"/>
      <point x="367.0" y="355.0"/>
      <point x="417.5" y="310.50000000000006"/>
      <point x="425.99999999999994" y="251.5" type="curve"/>
      <point x="416.49999999999994" y="172.49999999999997" type="line"/>
      <point x="393.0" y="108.5"/>
      <point x="335.0" y="68.00000000000001"/>
    </contour>
  </outline>
</glyph>
<glyph name="e" format="2">
  <advance width="521.5"/>
  <unicode hex="0065"/>
  <anchor x="243.0" y="-12.500000000000004" name="bottom"/>
  <anchor x="382.00000000000006" y="25.0" name="ogonek"/>
  <anchor x="284.0" y="441.5" name="top"/>
  <outline>
    <contour>
      <point x="272.5" y="70.0" type="curve" smooth="yes"/>
      <point x="203.50000000000003" y="70.0"/>
      <point x="138.0" y="116.0"/>
      <point x="138.0" y="211.0" type="curve" smooth="yes"/>
      <point x="138.0" y="287.00000000000006"/>
      <point x="191.0" y="355.49999999999994"/>
      <point x="280.5" y="355.49999999999994" type="curve" smooth="yes"/>
      <point x="335.0" y="355.49999999999994"/>
      <point x="375.49999999999994" y="319.50000000000006"/>
      <point x="389.99999999999994" y="267.5" type="curve"/>
      <point x="423.5" y="282.0" type="line"/>
      <point x="121.0" y="195.50000000000003" type="line"/>
      <point x="136.0" y="138.50000000000003" type="line"/>
      <point x="490.5" y="237.49999999999997" type="line"/>
      <point x="467.5" y="383.0"/>
      <point x="381.50000000000006" y="429.50000000000006"/>
      <point x="283.50000000000006" y="429.50000000000006" type="curve" smooth="yes"/>
      <point x="125.0" y="429.50000000000006"/>
      <point x="44.5" y="307.5"/>
      <point x="44.5" y="200.5" type="curve" smooth="yes"/>
      <point x="44.5" y="67.0"/>
      <point x="132.5" y="-9.0"/>
      <point x="263.0" y="-9.0" type="curve" smooth="yes"/>
      <point x="308.50000000000006" y="-9.0"/>
      <point x="357.5" y="5.0"/>
      <point x="398.5" y="28.5" type="curve"/>
      <point x="364.0" y="100.5" type="line"/>
      <point x="336.0" y="82.0"/>
      <point x="305.0" y="70.0"/>
    </contour>
  </outline>
</glyph>
<glyph name="g" format="2">
  <advance width="600.5"/>
  <unicode hex="0067"/>
  <anchor x="262.5" y="-65.5" name="bottom"/>
  <anchor x="322.0" y="454.0" name="top"/>
  <outline>
    <contour>
      <point x="252.0" y="-205.0" type="curve" smooth="yes"/>
      <point x="386.0" y="-205.0"/>
      <point x="478.5" y="-132.5"/>
      <point x="491.0" y="-21.5" type="curve" smooth="yes"/>
      <point x="545.5" y="414.0" type="line"/>
      <point x="460.50000000000006" y="414.0" type="line"/>
      <point x="436.5" y="327.0" type="line"/>
      <point x="447.5" y="346.0" type="line"/>
      <point x="425.0" y="395.5"/>
      <point x="363.0" y="430.50000000000006"/>
      <point x="280.5" y="430.50000000000006" type="curve" smooth="yes"/>
      <point x="115.5" y="430.50000000000006"/>
      <point x="44.5" y="290.0"/>
      <point x="44.5" y="202.5" type="curve" smooth="yes"/>
      <point x="44.5" y="71.5"/>
      <point x="131.5" y="-9.5"/>
      <point x="247.0" y="-9.5" type="curve" smooth="yes"/>
      <point x="329.0" y="-9.5"/>
      <point x="392.99999999999994" y="32.0"/>
      <point x="420.5" y="89.0" type="curve"/>
      <point x="413.5" y="106.0" type="line"/>
      <point x="400.0" y="-5.499999999999998" type="line"/>
      <point x="391.0" y="-76.5"/>
      <point x="342.0" y="-123.0"/>
      <point x="260.0" y="-123.0" type="curve" smooth="yes"/>
      <point x="195.00000000000003" y="-123.0"/>
      <point x="149.0" y="-101.5"/>
      <point x="105.0" y="-54.5" type="curve"/>
      <point x="42.0" y="-118.0" type="line"/>
      <point x="95.0" y="-171.49999999999997"/>
      <point x="151.5" y="-205.0"/>
    </contour>
    <contour>
      <point x="297.00000000000006" y="354.0" type="curve" smooth="yes"/>
      <point x="368.0" y="354.0"/>
      <point x="420.99999999999994" y="310.5"/>
      <point x="431.5" y="250.0" type="curve"/>
      <point x="421.49999999999994" y="167.5" type="line"/>
      <point x="398.5" y="108.0"/>
      <point x="341.0" y="67.5"/>
      <point x="278.0" y="67.5" type="curve" smooth="yes"/>
      <point x="194.5" y="67.5"/>
      <point x="140.0" y="121.5"/>
      <point x="140.0" y="202.5" type="curve" smooth="yes"/>
      <point x="140.0" y="259.0"/>
      <point x="180.0" y="354.0"/>
    </contour>
  </outline>
</glyph>
<glyph name="h" format="2">
  <advance width="553.5"/>
  <unicode hex="0068"/>
  <anchor x="261.0" y="0.0" name="bottom"/>
  <anchor x="173.00000000000003" y="606.0" name="center"/>
  <anchor x="187.00000000000003" y="696.0000000000001" name="top"/>
  <outline>
    <contour>
      <point x="184.5" y="335.5" type="curve"/>
      <point x="186.0" y="315.00000000000006" type="line"/>
      <point x="242.0" y="774.5" type="line"/>
      <point x="150.0" y="774.5" type="line"/>
      <point x="55.5" y="0.0" type="line"/>
      <point x="149.0" y="0.0" type="line"/>
      <point x="173.0" y="193.5" type="line" smooth="yes"/>
      <point x="184.00000000000003" y="284.0"/>
      <point x="246.5" y="349.49999999999994"/>
      <point x="321.0" y="349.49999999999994" type="curve"/>
      <point x="370.50000000000006" y="348.5"/>
      <point x="390.5" y="318.0"/>
      <point x="387.0" y="275.5" type="curve"/>
      <point x="354.00000000000006" y="0.0" type="line"/>
      <point x="447.50000000000006" y="0.0" type="line"/>
      <point x="485.0" y="306.0" type="line"/>
      <point x="491.5" y="379.0"/>
      <point x="443.0" y="430.00000000000006"/>
      <point x="365.00000000000006" y="430.00000000000006" type="curve" smooth="yes"/>
      <point x="285.5" y="430.00000000000006"/>
      <point x="220.0" y="391.0"/>
    </contour>
  </outline>
</glyph>
<glyph name="k" format="2">
  <advance width="499.0"/>
  <unicode hex="006B"/>
  <anchor x="227.5" y="0.0" name="bottom"/>
  <anchor x="279.0" y="414.0" name="top"/>
  <outline>
    <contour>
      <point x="55.5" y="0.0" type="line"/>
      <point x="149.0" y="0.0" type="line"/>
      <point x="244.00000000000003" y="774.5" type="line"/>
      <point x="150.0" y="774.5" type="line"/>
    </contour>
    <contour>
      <point x="283.0" y="275.5" type="line"/>
      <point x="214.0" y="222.49999999999997" type="line"/>
      <point x="330.5" y="0.0" type="line"/>
      <point x="439.5" y="0.0" type="line"/>
    </contour>
    <contour>
      <point x="136.0" y="131.49999999999997" type="line"/>
      <point x="465.0" y="373.5" type="line"/>
      <point x="411.5" y="423.50000000000006" type="line"/>
      <point x="135.0" y="221.5" type="line"/>
    </contour>
  </outline>
</glyph>
<glyph name="l" format="2">
  <advance width="255.5"/>
  <unicode hex="006C"/>
  <anchor x="105.0" y="0.0" name="bottom"/>
  <anchor x="130.5" y="264.5" name="center"/>
  <anchor x="188.50000000000003" y="766.5" name="top"/>
  <anchor x="313.5" y="741.0" name="topright"/>
  <outline>
    <contour>
      <point x="150.0" y="774.5" type="line"/>
      <point x="55.5" y="0.0" type="line"/>
      <point x="149.0" y="0.0" type="line"/>
      <point x="244.00000000000003" y="774.5" type="line"/>
    </contour>
  </outline>
</glyph>
<glyph name="m" format="2">
  <advance width="826.0"/>
  <unicode hex="006D"/>
  <anchor x="425.50000000000006" y="0.0" name="bottom"/>
  <anchor x="442.0" y="454.0" name="top"/>
  <outline>
    <contour>
      <point x="190.0" y="414.0" type="line"/>
      <point x="106.0" y="414.0" type="line"/>
      <point x="55.5" y="0.0" type="line"/>
      <point x="149.0" y="0.0" type="line"/>
      <point x="173.0" y="195.49999999999997" type="line" smooth="yes"/>
      <point x="183.00000000000003" y="275.0"/>
      <point x="243.0" y="348.99999999999994"/>
      <point x="317.5" y="348.99999999999994" type="curve"/>
      <point x="363.50000000000006" y="345.99999999999994"/>
      <point x="378.0" y="315.0"/>
      <point x="374.5" y="272.49999999999994" type="curve"/>
      <point x="341.0" y="0.0" type="line"/>
      <point x="435.0" y="0.0" type="line"/>
      <point x="459.0" y="196.5" type="line"/>
      <point x="470.0" y="275.99999999999994"/>
      <point x="529.0" y="348.99999999999994"/>
      <point x="605.0000000000001" y="348.99999999999994" type="curve"/>
      <point x="650.5" y="345.99999999999994"/>
      <point x="663.5" y="315.0"/>
      <point x="660.0" y="272.49999999999994" type="curve"/>
      <point x="626.5" y="0.0" type="line"/>
      <point x="720.0" y="0.0" type="line"/>
      <point x="757.0000000000001" y="306.50000000000006" type="line" smooth="yes"/>
      <point x="764.5000000000001" y="379.5"/>
      <point x="720.0000000000001" y="430.50000000000006"/>
      <point x="639.5" y="430.50000000000006" type="curve" smooth="yes"/>
      <point x="575.0" y="430.50000000000006"/>
      <point x="513.0" y="393.0"/>
      <point x="472.0" y="339.50000000000006" type="curve"/>
      <point x="475.0" y="342.00000000000006" type="line"/>
      <point x="469.0" y="400.5"/>
      <point x="427.0" y="430.50000000000006"/>
      <point x="359.5" y="430.50000000000006" type="curve" smooth="yes"/>
      <point x="285.0" y="430.50000000000006"/>
      <point x="223.50000000000003" y="394.0"/>
      <point x="184.00000000000003" y="334.50000000000006" type="curve"/>
      <point x="187.0" y="319.00000000000006" type="line"/>
    </contour>
  </outline>
</glyph>
<glyph name="n" format="2">
  <advance width="553.5"/>
  <unicode hex="006E"/>
  <anchor x="251.5" y="0.0" name="bottom"/>
  <anchor x="307.5" y="454.0" name="top"/>
  <outline>
    <contour>
      <point x="190.0" y="414.0" type="line"/>
      <point x="106.0" y="414.0" type="line"/>
      <point x="55.5" y="0.0" type="line"/>
      <point x="149.0" y="0.0" type="line"/>
      <point x="173.0" y="193.5" type="line" smooth="yes"/>
      <point x="183.50000000000003" y="284.0"/>
      <point x="243.5" y="349.49999999999994"/>
      <point x="317.0" y="349.49999999999994" type="curve" smooth="yes"/>
      <point x="369.0" y="349.49999999999994"/>
      <point x="391.5" y="319.0"/>
      <point x="387.50000000000006" y="274.0" type="curve" smooth="yes"/>
      <point x="354.00000000000006" y="0.0" type="line"/>
      <point x="447.50000000000006" y="0.0" type="line"/>
      <point x="485.0" y="306.0" type="line" smooth="yes"/>
      <point x="492.5" y="379.5"/>
      <point x="443.0" y="430.00000000000006"/>
      <point x="363.0" y="430.00000000000006" type="curve" smooth="yes"/>
      <point x="282.5" y="430.00000000000006"/>
      <point x="217.5" y="391.0"/>
      <point x="182.0" y="333.5" type="curve"/>
      <point x="189.0" y="320.5" type="line"/>
    </contour>
  </outline>
</glyph>
<glyph name="o" format="2">
  <advance width="546.0"/>
  <unicode hex="006F"/>
  <anchor x="255.0" y="0.0" name="bottom"/>
  <anchor x="263.5" y="227.00000000000003" name="center"/>
  <anchor x="357.5" y="4.500000000000002" name="ogonek"/>
  <anchor x="284.50000000000006" y="422.50000000000006" name="top"/>
  <anchor x="400.00000000000006" y="353.99999999999994" name="topright"/>
  <outline>
    <contour>
      <point x="263.5" y="-10.0" type="curve" smooth="yes"/>
      <point x="446.0" y="-10.0"/>
      <point x="502.0" y="136.5"/>
      <point x="502.0" y="226.5" type="curve" smooth="yes"/>
      <point x="502.0" y="353.5"/>
      <point x="396.50000000000006" y="429.50000000000006"/>
      <point x="283.50000000000006" y="429.50000000000006" type="curve" smooth="yes"/>
      <point x="110.0" y="429.50000000000006"/>
      <point x="44.0" y="297.0"/>
      <point x="44.0" y="193.5" type="curve" smooth="yes"/>
      <point x="44.0" y="58.5"/>
      <point x="159.5" y="-10.0"/>
    </contour>
    <contour>
      <point x="266.5" y="67.5" type="curve" smooth="yes"/>
      <point x="206.5" y="67.5"/>
      <point x="138.5" y="107.5"/>
      <point x="138.5" y="198.0" type="curve" smooth="yes"/>
      <point x="138.5" y="267.0"/>
      <point x="180.5" y="352.5"/>
      <point x="280.0" y="352.5" type="curve" smooth="yes"/>
      <point x="335.49999999999994" y="352.5"/>
      <point x="407.0" y="315.5"/>
      <point x="407.0" y="222.0" type="curve" smooth="yes"/>
      <point x="407.0" y="154.5"/>
      <point x="368.0" y="67.5"/>
    </contour>
  </outline>
</glyph>
<glyph name="p" format="2">
  <advance width="585.0"/>
  <unicode hex="0070"/>
  <anchor x="256.0" y="0.0" name="bottom"/>
  <anchor x="307.00000000000006" y="414.0" name="top"/>
  <outline>
    <contour>
      <point x="288.50000000000006" y="-10.0" type="curve" smooth="yes"/>
      <point x="440.00000000000006" y="-10.0"/>
      <point x="543.0" y="107.0"/>
      <point x="543.0" y="243.00000000000003" type="curve" smooth="yes"/>
      <point x="543.0" y="355.0"/>
      <point x="458.5" y="431.00000000000006"/>
      <point x="352.0" y="431.00000000000006" type="curve" smooth="yes"/>
      <point x="287.5" y="431.00000000000006"/>
      <point x="217.5" y="395.00000000000006"/>
      <point x="164.0" y="343.50000000000006" type="curve"/>
      <point x="184.50000000000003" y="314.0" type="line"/>
      <point x="188.5" y="420.5" type="line"/>
      <point x="107.5" y="420.5" type="line"/>
      <point x="30.499999999999996" y="-199.0" type="line"/>
      <point x="123.5" y="-199.0" type="line"/>
      <point x="156.5" y="98.0" type="line"/>
      <point x="134.0" y="74.0" type="line"/>
      <point x="157.5" y="24.999999999999996"/>
      <point x="223.50000000000003" y="-10.0"/>
    </contour>
    <contour>
      <point x="286.5" y="69.0" type="curve" smooth="yes"/>
      <point x="205.0" y="69.0"/>
      <point x="173.0" y="129.5"/>
      <point x="165.0" y="175.0" type="curve"/>
      <point x="174.5" y="250.0" type="line"/>
      <point x="199.00000000000003" y="314.50000000000006"/>
      <point x="254.00000000000003" y="356.0"/>
      <point x="320.00000000000006" y="356.0" type="curve" smooth="yes"/>
      <point x="389.49999999999994" y="356.0"/>
      <point x="447.99999999999994" y="303.5"/>
      <point x="447.99999999999994" y="228.5" type="curve" smooth="yes"/>
      <point x="447.99999999999994" y="144.5"/>
      <point x="381.00000000000006" y="69.0"/>
    </contour>
  </outline>
</glyph>
<glyph name="q" format="2">
  <advance width="588.0"/>
  <unicode hex="0071"/>
  <anchor x="255.00000000000003" y="0.0" name="bottom"/>
  <anchor x="306.0" y="414.0" name="top"/>
  <outline>
    <contour>
      <point x="235.5" y="-8.5" type="curve" smooth="yes"/>
      <point x="342.00000000000006" y="-10.0"/>
      <point x="409.0" y="57.5"/>
      <point x="425.99999999999994" y="84.0" type="curve"/>
      <point x="400.99999999999994" y="105.5" type="line"/>
      <point x="363.99999999999994" y="-199.0" type="line"/>
      <point x="457.5" y="-199.0" type="line"/>
      <point x="533.0" y="414.0" type="line"/>
      <point x="445.49999999999994" y="414.0" type="line"/>
      <point x="427.49999999999994" y="324.5" type="line"/>
      <point x="438.5" y="341.00000000000006" type="line"/>
      <point x="415.5" y="389.5"/>
      <point x="366.00000000000006" y="431.00000000000006"/>
      <point x="279.5" y="431.00000000000006" type="curve" smooth="yes"/>
      <point x="145.49999999999997" y="431.00000000000006"/>
      <point x="43.5" y="314.5"/>
      <point x="43.5" y="188.5" type="curve" smooth="yes"/>
      <point x="43.5" y="66.5"/>
      <point x="138.5" y="-10.0"/>
    </contour>
    <contour>
      <point x="262.0" y="66.0" type="curve" smooth="yes"/>
      <point x="192.50000000000003" y="66.0"/>
      <point x="134.0" y="118.5"/>
      <point x="134.0" y="192.5" type="curve" smooth="yes"/>
      <point x="134.0" y="277.5"/>
      <point x="201.0" y="353.0"/>
      <point x="295.50000000000006" y="353.0" type="curve" smooth="yes"/>
      <point x="377.49999999999994" y="353.0"/>
      <point x="411.49999999999994" y="293.5"/>
      <point x="419.5" y="245.5" type="curve"/>
      <point x="408.49999999999994" y="170.99999999999997" type="line"/>
      <point x="382.5" y="108.0"/>
      <point x="326.50000000000006" y="66.0"/>
    </contour>
  </outline>
</glyph>
<glyph name="r" format="2">
  <advance width="378.5"/>
  <unicode hex="0072"/>
  <anchor x="148.0" y="0.0" name="bottom"/>
  <anchor x="187.0" y="454.0" name="top"/>
  <outline>
    <contour>
      <point x="189.5" y="414.0" type="line"/>
      <point x="106.0" y="414.0" type="line"/>
      <point x="55.5" y="0.0" type="line"/>
      <point x="148.5" y="0.0" type="line"/>
      <point x="172.0" y="188.99999999999997" type="line" smooth="yes"/>
      <point x="181.0" y="269.0"/>
      <point x="255.5" y="343.0"/>
      <point x="349.00000000000006" y="337.5" type="curve"/>
      <point x="364.50000000000006" y="430.50000000000006" type="line"/>
      <point x="306.0" y="430.0"/>
      <point x="223.0" y="388.5"/>
      <point x="182.00000000000003" y="313.5" type="curve"/>
    </contour>
  </outline>
</glyph>
<glyph name="s" format="2">
  <advance width="408.5"/>
  <unicode hex="0073"/>
  <anchor x="164.50000000000003" y="0.0" name="bottom"/>
  <anchor x="242.0" y="454.0" name="top"/>
  <outline>
    <contour>
      <point x="184.5" y="-8.5" type="curve" smooth="yes"/>
      <point x="297.0" y="-8.999999999999998"/>
      <point x="342.5" y="63.5"/>
      <point x="347.0" y="121.5" type="curve" smooth="yes"/>
      <point x="351.0" y="187.50000000000003"/>
      <point x="309.0" y="219.0"/>
      <point x="253.5" y="242.50000000000003" type="curve" smooth="yes"/>
      <point x="212.50000000000003" y="259.5"/>
      <point x="167.5" y="272.0"/>
      <point x="167.0" y="310.00000000000006" type="curve" smooth="yes"/>
      <point x="167.0" y="334.0"/>
      <point x="186.50000000000003" y="361.5"/>
      <point x="230.0" y="361.49999999999994" type="curve" smooth="yes"/>
      <point x="262.0" y="361.5"/>
      <point x="298.00000000000006" y="349.99999999999994"/>
      <point x="324.0" y="318.00000000000006" type="curve"/>
      <point x="367.5" y="373.5" type="line"/>
      <point x="320.50000000000006" y="420.0"/>
      <point x="257.0" y="427.50000000000006"/>
      <point x="219.00000000000003" y="427.5" type="curve" smooth="yes"/>
      <point x="109.00000000000001" y="428.0"/>
      <point x="71.0" y="348.5"/>
      <point x="71.0" y="296.00000000000006" type="curve" smooth="yes"/>
      <point x="71.0" y="244.50000000000003"/>
      <point x="103.0" y="207.5"/>
      <point x="162.49999999999997" y="184.0" type="curve" smooth="yes"/>
      <point x="206.5" y="166.49999999999997"/>
      <point x="252.00000000000003" y="154.0"/>
      <point x="252.0" y="113.5" type="curve" smooth="yes"/>
      <point x="252.0" y="90.5"/>
      <point x="232.5" y="59.00000000000001"/>
      <point x="184.0" y="59.00000000000001" type="curve" smooth="yes"/>
      <point x="152.5" y="59.00000000000001"/>
      <point x="109.5" y="65.5"/>
      <point x="69.0" y="115.5" type="curve"/>
      <point x="23.0" y="64.5" type="line"/>
      <point x="67.5" y="3.499999999999999"/>
      <point x="144.0" y="-8.5"/>
    </contour>
  </outline>
</glyph>
<glyph name="t" format="2">
  <advance width="359.5"/>
  <unicode hex="0074"/>
  <anchor x="154.0" y="0.0" name="bottom"/>
  <anchor x="167.50000000000003" y="195.5" name="center"/>
  <anchor x="222.00000000000003" y="585.0" name="top"/>
  <anchor x="331.00000000000006" y="500.5" name="topright"/>
  <outline>
    <contour>
      <point x="165.5" y="596.0" type="line"/>
      <point x="143.5" y="412.5" type="line"/>
      <point x="67.5" y="412.5" type="line"/>
      <point x="58.5" y="338.5" type="line"/>
      <point x="134.5" y="338.5" type="line"/>
      <point x="93.5" y="0.0" type="line"/>
      <point x="187.0" y="0.0" type="line"/>
      <point x="228.00000000000003" y="338.5" type="line"/>
      <point x="342.00000000000006" y="338.5" type="line"/>
      <point x="351.00000000000006" y="412.5" type="line"/>
      <point x="237.00000000000003" y="412.5" type="line"/>
      <point x="259.5" y="596.0" type="line"/>
    </contour>
  </outline>
</glyph>
<glyph name="u" format="2">
  <advance width="546.5"/>
  <unicode hex="0075"/>
  <anchor x="264.5" y="-12.500000000000004" name="bottom"/>
  <anchor x="424.5" y="7.000000000000001" name="ogonek"/>
  <anchor x="304.00000000000006" y="454.0" name="top"/>
  <anchor x="459.5" y="301.50000000000006" name="topright"/>
  <outline>
    <contour>
      <point x="185.49999999999997" y="-16.000000000000004" type="curve" smooth="yes"/>
      <point x="263.5" y="-16.000000000000004"/>
      <point x="331.49999999999994" y="26.999999999999996"/>
      <point x="364.5" y="85.0" type="curve"/>
      <point x="360.49999999999994" y="98.5" type="line"/>
      <point x="356.0" y="0.0" type="line"/>
      <point x="440.50000000000006" y="0.0" type="line"/>
      <point x="491.5" y="414.0" type="line"/>
      <point x="398.0" y="414.0" type="line"/>
      <point x="374.00000000000006" y="221.00000000000003" type="line" smooth="yes"/>
      <point x="363.50000000000006" y="130.5"/>
      <point x="301.0" y="64.0"/>
      <point x="231.5" y="64.0" type="curve"/>
      <point x="182.0" y="65.5"/>
      <point x="162.0" y="96.0"/>
      <point x="165.5" y="138.5" type="curve" smooth="yes"/>
      <point x="199.50000000000003" y="414.0" type="line"/>
      <point x="106.0" y="414.0" type="line"/>
      <point x="68.5" y="106.5" type="line" smooth="yes"/>
      <point x="61.0" y="33.5"/>
      <point x="110.0" y="-16.000000000000004"/>
    </contour>
  </outline>
</glyph>
<glyph name="v" format="2">
  <advance width="494.5"/>
  <unicode hex="0076"/>
  <anchor x="203.5" y="0.0" name="bottom"/>
  <anchor x="259.5" y="454.0" name="top"/>
  <outline>
    <contour>
      <point x="220.5" y="-12.0" type="line"/>
      <point x="225.0" y="-12.0" type="line"/>
      <point x="498.00000000000006" y="414.0" type="line"/>
      <point x="393.49999999999994" y="414.0" type="line"/>
      <point x="211.0" y="90.50000000000001" type="line"/>
      <point x="267.5" y="88.50000000000001" type="line"/>
      <point x="152.5" y="414.0" type="line"/>
      <point x="42.0" y="414.0" type="line"/>
    </contour>
  </outline>
</glyph>
<glyph name="w" format="2">
  <advance width="675.0"/>
  <unicode hex="0077"/>
  <anchor x="309.0" y="0.0" name="bottom"/>
  <anchor x="360.0" y="414.0" name="top"/>
  <outline>
    <contour>
      <point x="433.0" y="-14.999999999999998" type="line"/>
      <point x="439.0" y="-14.999999999999998" type="line"/>
      <point x="678.5000000000001" y="414.0" type="line"/>
      <point x="586.5" y="414.0" type="line"/>
      <point x="438.5" y="140.00000000000003" type="line"/>
      <point x="457.00000000000006" y="141.50000000000003" type="line"/>
      <point x="369.5" y="414.0" type="line"/>
      <point x="288.5" y="414.0" type="line"/>
      <point x="312.0" y="344.5" type="line"/>
      <point x="193.5" y="135.50000000000003" type="line"/>
      <point x="226.0" y="129.50000000000003" type="line"/>
      <point x="133.5" y="414.0" type="line"/>
      <point x="42.0" y="414.0" type="line"/>
      <point x="177.99999999999997" y="-13.999999999999998" type="line"/>
      <point x="184.0" y="-13.999999999999998" type="line"/>
      <point x="336.50000000000006" y="264.5" type="line"/>
    </contour>
  </outline>
</glyph>
<glyph name="x" format="2">
  <advance width="456.5"/>
  <unicode hex="0078"/>
  <outline>
    <contour>
      <point x="427.50000000000006" y="0.0" type="line"/>
      <point x="166.5" y="414.0" type="line"/>
      <point x="51.5" y="414.0" type="line"/>
      <point x="315.0" y="0.0" type="line"/>
    </contour>
    <contour>
      <point x="249.0" y="261.0" type="line"/>
      <point x="276.5" y="193.0" type="line"/>
      <point x="463.00000000000006" y="414.00000000000006" type="line"/>
      <point x="366.5" y="414.00000000000006" type="line"/>
    </contour>
    <contour>
      <point x="228.0" y="153.99999999999997" type="line"/>
      <point x="190.99999999999997" y="217.5" type="line"/>
      <point x="4.9999999999999964" y="0.0" type="line"/>
      <point x="101.0" y="0.0" type="line"/>
    </contour>
  </outline>
</glyph>
<glyph name="y" format="2">
  <advance width="494.5"/>
  <unicode hex="0079"/>
  <anchor x="390.5" y="-3.499999999999999" name="bottom"/>
  <anchor x="289.0" y="414.0" name="top"/>
  <outline>
    <contour>
      <point x="77.0" y="-199.0" type="line"/>
      <point x="170.5" y="-199.0" type="line"/>
      <point x="513.0" y="414.0" type="line"/>
      <point x="425.0" y="414.0" type="line"/>
    </contour>
    <contour>
      <point x="205.00000000000003" y="-3.0" type="line"/>
      <point x="283.0" y="44.50000000000001" type="line"/>
      <point x="162.0" y="414.0" type="line"/>
      <point x="57.0" y="414.0" type="line"/>
    </contour>
  </outline>
</glyph>
<glyph name="z" format="2">
  <advance width="463.0"/>
  <unicode hex="007A"/>
  <anchor x="193.0" y="0.0" name="bottom"/>
  <anchor x="244.5" y="414.0" name="top"/>
  <outline>
    <contour>
      <point x="137.5" y="337.0" type="curve" smooth="yes"/>
      <point x="310.5" y="337.0" type="line"/>
      <point x="298.49999999999994" y="364.5" type="line"/>
      <point x="1.4999999999999964" y="0.0" type="line"/>
      <point x="384.0" y="0.0" type="line"/>
      <point x="393.5" y="77.0" type="line"/>
      <point x="129.5" y="77.0" type="line"/>
      <point x="146.0" y="57.50000000000001" type="line"/>
      <point x="438.0" y="414.0" type="line"/>
      <point x="173.0" y="414.0" type="line" smooth="yes"/>
      <point x="149.0" y="414.0"/>
      <point x="141.0" y="418.50000000000006"/>
      <point x="143.5" y="440.5" type="curve" smooth="yes"/>
      <point x="144.0" y="453.5" type="line"/>
      <point x="73.0" y="453.5" type="line"/>
      <point x="68.5" y="414.0" type="line" smooth="yes"/>
      <point x="63.0" y="362.99999999999994"/>
      <point x="92.0" y="337.0"/>
    </contour>
  </outline>
</glyph>
<glyph name="braceleft" format="2">
  <advance width="343.0"/>
  <unicode hex="007B"/>
  <outline>
    <contour>
      <point x="317.5" y="673.0" type="curve" smooth="yes"/>
      <point x="362.00000000000006" y="673.0" type="line"/>
      <point x="372.00000000000006" y="755.5" type="line"/>
      <point x="308.5" y="755.5" type="line" smooth="yes"/>
      <point x="243.5" y="755.5"/>
      <point x="190.49999999999997" y="761.5000000000001"/>
      <point x="174.5" y="636.0" type="curve" smooth="yes"/>
      <point x="154.99999999999997" y="478.50000000000006" type="line" smooth="yes"/>
      <point x="147.99999999999997" y="423.0"/>
      <point x="123.99999999999999" y="344.5"/>
      <point x="58.0" y="341.5" type="curve"/>
      <point x="48.0" y="259.0" type="line"/>
      <point x="48.0" y="259.0" type="line"/>
      <point x="113.0" y="256.0"/>
      <point x="118.49999999999999" y="177.5"/>
      <point x="111.5" y="122.5" type="curve" smooth="yes"/>
      <point x="92.5" y="-31.500000000000007" type="line" smooth="yes"/>
      <point x="77.0" y="-157.5"/>
      <point x="134.0" y="-151.00000000000003"/>
      <point x="197.0" y="-151.00000000000003" type="curve" smooth="yes"/>
      <point x="261.0" y="-151.00000000000003" type="line"/>
      <point x="271.0" y="-68.99999999999999" type="line"/>
      <point x="226.50000000000003" y="-68.99999999999999" type="line" smooth="yes"/>
      <point x="185.00000000000003" y="-68.99999999999999"/>
      <point x="175.0" y="-51.49999999999999"/>
      <point x="186.00000000000003" y="35.50000000000001" type="curve" smooth="yes"/>
      <point x="202.0" y="166.00000000000003" type="line" smooth="yes"/>
      <point x="212.0" y="246.0"/>
      <point x="177.0" y="285.5"/>
      <point x="153.5" y="301.5" type="curve"/>
      <point x="181.5" y="319.5"/>
      <point x="226.00000000000003" y="356.00000000000006"/>
      <point x="236.0" y="438.5" type="curve" smooth="yes"/>
      <point x="251.50000000000003" y="569.5" type="line" smooth="yes"/>
      <point x="262.0" y="656.5"/>
      <point x="276.0" y="673.0"/>
    </contour>
  </outline>
</glyph>
<glyph name="bar" format="2">
  <advance width="287.5"/>
  <unicode hex="007C"/>
  <outline>
    <contour>
      <point x="178.5" y="709.0" type="line"/>
      <point x="62.5" y="-235.00000000000003" type="line"/>
      <point x="147.5" y="-235.00000000000003" type="line"/>
      <point x="263.5" y="709.0" type="line"/>
    </contour>
  </outline>
</glyph>
<glyph name="braceright" format="2">
  <advance width="355.0"/>
  <unicode hex="007D"/>
  <outline>
    <contour>
      <point x="83.5" y="-68.99999999999999" type="curve" smooth="yes"/>
      <point x="38.99999999999999" y="-68.99999999999999" type="line"/>
      <point x="28.999999999999993" y="-151.00000000000003" type="line"/>
      <point x="92.5" y="-151.00000000000003" type="line" smooth="yes"/>
      <point x="157.5" y="-151.00000000000003"/>
      <point x="211.5" y="-157.0"/>
      <point x="226.5" y="-31.5" type="curve" smooth="yes"/>
      <point x="245.0" y="122.5" type="line" smooth="yes"/>
      <point x="252.0" y="177.50000000000003"/>
      <point x="277.0" y="256.99999999999994"/>
      <point x="342.5" y="259.0" type="curve"/>
      <point x="352.5" y="341.5" type="line"/>
      <point x="352.5" y="341.5" type="line"/>
      <point x="288.0" y="343.5"/>
      <point x="282.50000000000006" y="423.49999999999994"/>
      <point x="289.00000000000006" y="477.99999999999994" type="curve" smooth="yes"/>
      <point x="308.00000000000006" y="636.0" type="line" smooth="yes"/>
      <point x="324.0" y="762.5000000000001"/>
      <point x="266.50000000000006" y="755.5"/>
      <point x="203.5" y="755.5" type="curve" smooth="yes"/>
      <point x="140.0" y="755.5" type="line"/>
      <point x="130.0" y="673.0" type="line"/>
      <point x="174.49999999999997" y="673.0" type="line" smooth="yes"/>
      <point x="216.00000000000003" y="673.0"/>
      <point x="225.0" y="656.5"/>
      <point x="214.00000000000003" y="569.5" type="curve" smooth="yes"/>
      <point x="198.0" y="438.5" type="line" smooth="yes"/>
      <point x="187.99999999999997" y="356.00000000000006"/>
      <point x="223.5" y="319.5"/>
      <point x="247.50000000000003" y="301.5" type="curve"/>
      <point x="220.50000000000003" y="285.5"/>
      <point x="174.99999999999997" y="248.0"/>
      <point x="164.49999999999997" y="166.50000000000003" type="curve" smooth="yes"/>
      <point x="148.49999999999997" y="35.50000000000001" type="line" smooth="yes"/>
      <point x="137.99999999999997" y="-51.49999999999999"/>
      <point x="124.99999999999997" y="-68.99999999999999"/>
    </contour>
  </outline>
</glyph>
<glyph name="asciitilde" format="2">
  <advance width="465.0"/>
  <unicode hex="007E"/>
  <outline>
    <contour>
      <point x="310.00000000000006" y="431.0" type="curve"/>
      <point x="369.50000000000006" y="426.99999999999994"/>
      <point x="423.5" y="485.50000000000006"/>
      <point x="425.00000000000006" y="580.0" type="curve"/>
      <point x="366.5" y="584.5" type="line"/>
      <point x="361.00000000000006" y="531.5"/>
      <point x="345.0" y="497.5"/>
      <point x="315.5" y="499.5" type="curve"/>
      <point x="293.0" y="500.5"/>
      <point x="277.0" y="520.0"/>
      <point x="259.0" y="540.5000000000001" type="curve"/>
      <point x="237.5" y="566.0"/>
      <point x="214.0" y="593.5"/>
      <point x="174.50000000000003" y="595.5" type="curve"/>
      <point x="103.0" y="600.0000000000001"/>
      <point x="51.5" y="533.9999999999999"/>
      <point x="46.0" y="446.5" type="curve"/>
      <point x="104.5" y="441.49999999999994" type="line"/>
      <point x="110.0" y="493.5"/>
      <point x="131.5" y="525.4999999999999"/>
      <point x="160.50000000000003" y="523.9999999999999" type="curve"/>
      <point x="182.5" y="522.4999999999999"/>
      <point x="197.0" y="505.5"/>
      <point x="212.5" y="487.5" type="curve"/>
      <point x="236.0" y="461.99999999999994"/>
      <point x="261.0" y="433.5"/>
    </contour>
  </outline>
</glyph>
<glyph name="exclamdown" format="2">
  <advance width="201.0"/>
  <unicode hex="00A1"/>
  <outline>
    <contour>
      <point x="96.0" y="-199.5" type="line"/>
      <point x="166.5" y="373.0" type="line"/>
      <point x="82.5" y="373.0" type="line"/>
      <point x="11.999999999999993" y="-199.5" type="line"/>
    </contour>
    <contour>
      <point x="154.0" y="549.0000000000001" type="curve" smooth="yes"/>
      <point x="124.0" y="554.0"/>
      <point x="99.99999999999999" y="541.5"/>
      <point x="91.99999999999999" y="513.9999999999999" type="curve" smooth="yes"/>
      <point x="84.49999999999997" y="488.00000000000006"/>
      <point x="98.0" y="463.00000000000006"/>
      <point x="127.5" y="456.5" type="curve" smooth="yes"/>
      <point x="157.5" y="451.0"/>
      <point x="185.0" y="467.0"/>
      <point x="192.0" y="493.0" type="curve" smooth="yes"/>
      <point x="199.5" y="520.5"/>
      <point x="184.5" y="543.0000000000001"/>
    </contour>
  </outline>
</glyph>
<glyph name="cent" format="2">
  <advance width="460.5"/>
  <unicode hex="00A2"/>
  <anchor x="197.50000000000003" y="0.0" name="bottom"/>
  <anchor x="260.0" y="422.50000000000006" name="top"/>
  <outline>
    <contour>
      <point x="272.0" y="481.0" type="line"/>
      <point x="204.99999999999997" y="-68.0" type="line"/>
      <point x="263.5" y="-68.0" type="line"/>
      <point x="330.50000000000006" y="481.0" type="line"/>
    </contour>
    <component base="c"/>
  </outline>
</glyph>
<glyph name="sterling" format="2">
  <advance width="577.5"/>
  <unicode hex="00A3"/>
  <outline>
    <contour>
      <point x="399.50000000000006" y="384.0" type="line"/>
      <point x="98.5" y="384.0" type="line"/>
      <point x="87.0" y="290.0" type="line"/>
      <point x="388.0" y="290.0" type="line"/>
    </contour>
    <contour>
      <point x="182.50000000000003" y="538.0" type="curve" smooth="yes"/>
      <point x="141.0" y="195.00000000000003" type="line" smooth="yes"/>
      <point x="130.5" y="109.0"/>
      <point x="118.0" y="93.50000000000001"/>
      <point x="76.0" y="93.50000000000001" type="curve" smooth="yes"/>
      <point x="31.000000000000004" y="93.50000000000001" type="line"/>
      <point x="19.500000000000004" y="0.0" type="line"/>
      <point x="411.0" y="0.0" type="line" smooth="yes"/>
      <point x="515.5" y="0.0"/>
      <point x="550.0" y="49.5"/>
      <point x="558.5" y="115.0" type="curve" smooth="yes"/>
      <point x="566.0" y="180.0" type="line"/>
      <point x="481.50000000000006" y="179.5" type="line"/>
      <point x="476.00000000000006" y="137.5" type="line" smooth="yes"/>
      <point x="472.5" y="105.50000000000001"/>
      <point x="449.5" y="93.50000000000001"/>
      <point x="402.0" y="93.50000000000001" type="curve" smooth="yes"/>
      <point x="195.5" y="93.50000000000001" type="line"/>
      <point x="202.0" y="89.50000000000001" type="line"/>
      <point x="221.0" y="106.50000000000001"/>
      <point x="230.5" y="149.5"/>
      <point x="235.50000000000003" y="177.5" type="curve" smooth="yes"/>
      <point x="238.0" y="197.5" type="line"/>
      <point x="276.0" y="504.0" type="line" smooth="yes"/>
      <point x="283.5" y="568.0"/>
      <point x="319.5" y="605.5"/>
      <point x="402.00000000000006" y="605.5" type="curve" smooth="yes"/>
      <point x="470.50000000000006" y="605.5"/>
      <point x="496.0" y="578.5"/>
      <point x="513.5" y="549.0" type="curve"/>
      <point x="589.5" y="597.0" type="line"/>
      <point x="564.5" y="660.0000000000001"/>
      <point x="507.00000000000006" y="699.0"/>
      <point x="411.50000000000006" y="699.0" type="curve" smooth="yes"/>
      <point x="287.0" y="699.0"/>
      <point x="194.50000000000003" y="633.0000000000001"/>
    </contour>
  </outline>
</glyph>
<glyph name="currency" format="2">
  <advance width="504.5"/>
  <unicode hex="00A4"/>
  <outline>
    <contour>
      <point x="413.50000000000006" y="437.5" type="curve"/>
      <point x="445.0" y="464.99999999999994" type="line"/>
      <point x="408.99999999999994" y="507.50000000000006" type="line"/>
      <point x="376.0" y="480.0" type="line"/>
      <point x="376.0" y="480.0" type="line"/>
      <point x="354.49999999999994" y="497.0"/>
      <point x="327.0" y="508.5"/>
      <point x="296.49999999999994" y="510.0" type="curve" smooth="yes"/>
      <point x="265.5" y="511.0"/>
      <point x="236.49999999999997" y="501.0"/>
      <point x="209.99999999999997" y="486.5" type="curve"/>
      <point x="184.5" y="516.0" type="line"/>
      <point x="139.5" y="478.0" type="line"/>
      <point x="147.99999999999997" y="467.49999999999994"/>
      <point x="155.5" y="458.0"/>
      <point x="163.99999999999997" y="447.5" type="curve"/>
      <point x="143.99999999999997" y="423.0"/>
      <point x="131.0" y="395.0"/>
      <point x="128.5" y="362.0" type="curve" smooth="yes"/>
      <point x="128.5" y="362.0" type="line" smooth="yes"/>
      <point x="125.99999999999997" y="332.5"/>
      <point x="132.0" y="304.0"/>
      <point x="144.99999999999997" y="281.50000000000006" type="curve"/>
      <point x="111.00000000000001" y="252.00000000000003" type="line"/>
      <point x="147.50000000000003" y="208.99999999999997" type="line"/>
      <point x="181.99999999999997" y="238.5" type="line"/>
      <point x="181.99999999999997" y="238.5" type="line"/>
      <point x="202.49999999999997" y="222.99999999999997"/>
      <point x="229.5" y="213.0"/>
      <point x="260.0" y="211.49999999999997" type="curve" smooth="yes"/>
      <point x="290.5" y="210.99999999999997"/>
      <point x="319.0" y="218.5"/>
      <point x="344.5" y="233.0" type="curve"/>
      <point x="354.0" y="222.99999999999997"/>
      <point x="362.99999999999994" y="212.0"/>
      <point x="372.5" y="201.5" type="curve"/>
      <point x="417.50000000000006" y="240.00000000000003" type="line"/>
      <point x="391.5" y="271.5" type="line"/>
      <point x="412.5" y="296.5"/>
      <point x="427.0" y="325.5"/>
      <point x="429.00000000000006" y="359.5" type="curve" smooth="yes"/>
      <point x="431.5" y="387.5"/>
      <point x="425.5" y="414.5"/>
    </contour>
    <contour>
      <point x="186.5" y="359.0" type="curve" smooth="yes"/>
      <point x="186.5" y="359.0" type="line" smooth="yes"/>
      <point x="189.50000000000003" y="413.0"/>
      <point x="238.00000000000003" y="454.49999999999994"/>
      <point x="290.0" y="453.49999999999994" type="curve" smooth="yes"/>
      <point x="338.99999999999994" y="451.5"/>
      <point x="374.5" y="411.0"/>
      <point x="371.5" y="361.49999999999994" type="curve" smooth="yes"/>
      <point x="368.49999999999994" y="308.5"/>
      <point x="319.99999999999994" y="266.5"/>
      <point x="267.5" y="268.0" type="curve" smooth="yes"/>
      <point x="219.00000000000003" y="270.0"/>
      <point x="183.0" y="310.5"/>
    </contour>
  </outline>
</glyph>
<glyph name="yen" format="2">
  <advance width="691.5"/>
  <unicode hex="00A5"/>
  <outline>
    <contour>
      <point x="173.50000000000003" y="301.0" type="line"/>
      <point x="164.5" y="224.5" type="line"/>
      <point x="532.0" y="224.5" type="line"/>
      <point x="541.0" y="301.0" type="line"/>
    </contour>
    <contour>
      <point x="163.5" y="154.0" type="line"/>
      <point x="154.5" y="77.0" type="line"/>
      <point x="521.0" y="77.0" type="line"/>
      <point x="530.0" y="154.0" type="line"/>
    </contour>
    <contour>
      <point x="307.0" y="297.0" type="line"/>
      <point x="270.5" y="0.0" type="line"/>
      <point x="368.0" y="0.0" type="line"/>
      <point x="404.5" y="297.0" type="line"/>
      <point x="727.5000000000001" y="723.0" type="line"/>
      <point x="607.4999999999999" y="723.0" type="line"/>
      <point x="353.00000000000006" y="377.50000000000006" type="line"/>
      <point x="383.00000000000006" y="380.0" type="line"/>
      <point x="210.00000000000003" y="723.0" type="line"/>
      <point x="91.5" y="723.0" type="line"/>
    </contour>
  </outline>
</glyph>
<glyph name="brokenbar" format="2">
  <advance width="217.5"/>
  <unicode hex="00A6"/>
  <outline>
    <contour>
      <point x="84.5" y="118.5" type="line"/>
      <point x="40.99999999999999" y="-236.00000000000003" type="line"/>
      <point x="125.5" y="-236.00000000000003" type="line"/>
      <point x="169.00000000000003" y="118.5" type="line"/>
    </contour>
    <contour>
      <point x="156.99999999999997" y="709.0" type="line"/>
      <point x="113.49999999999999" y="354.50000000000006" type="line"/>
      <point x="198.00000000000003" y="354.50000000000006" type="line"/>
      <point x="242.0" y="709.0" type="line"/>
    </contour>
  </outline>
</glyph>
<glyph name="section" format="2">
  <advance width="572.5"/>
  <unicode hex="00A7"/>
  <outline>
    <contour>
      <point x="362.0" y="131.50000000000003" type="line"/>
      <point x="460.50000000000006" y="145.0"/>
      <point x="522.5" y="208.5"/>
      <point x="532.0000000000001" y="286.0" type="curve" smooth="yes"/>
      <point x="546.5" y="399.0"/>
      <point x="451.00000000000006" y="439.0"/>
      <point x="367.0" y="467.0" type="curve" smooth="yes"/>
      <point x="291.5" y="492.0"/>
      <point x="231.5" y="516.5"/>
      <point x="238.50000000000003" y="574.5" type="curve" smooth="yes"/>
      <point x="243.0" y="615.0"/>
      <point x="286.50000000000006" y="650.0"/>
      <point x="364.5" y="645.5" type="curve" smooth="yes"/>
      <point x="410.5" y="641.5"/>
      <point x="456.49999999999994" y="623.0"/>
      <point x="498.49999999999994" y="586.0" type="curve"/>
      <point x="549.0" y="655.4999999999999" type="line"/>
      <point x="503.5" y="694.9999999999999"/>
      <point x="437.5" y="724.5000000000001"/>
      <point x="364.5" y="730.0" type="curve" smooth="yes"/>
      <point x="223.5" y="739.0000000000001"/>
      <point x="146.5" y="652.4999999999999"/>
      <point x="136.0" y="568.0" type="curve" smooth="yes"/>
      <point x="127.50000000000001" y="493.0"/>
      <point x="165.5" y="433.5"/>
      <point x="263.0" y="396.5" type="curve"/>
      <point x="274.5" y="429.99999999999994" type="line"/>
      <point x="187.49999999999997" y="439.0"/>
      <point x="91.0" y="393.0"/>
      <point x="79.0" y="288.5" type="curve" smooth="yes"/>
      <point x="66.0" y="183.0"/>
      <point x="162.99999999999997" y="137.5"/>
      <point x="247.50000000000003" y="108.99999999999999" type="curve"/>
      <point x="316.0" y="87.5"/>
      <point x="378.99999999999994" y="62.5"/>
      <point x="371.0" y="3.0000000000000018" type="curve" smooth="yes"/>
      <point x="364.49999999999994" y="-56.49999999999999"/>
      <point x="301.49999999999994" y="-87.0"/>
      <point x="235.0" y="-83.0" type="curve" smooth="yes"/>
      <point x="177.50000000000003" y="-80.0"/>
      <point x="122.0" y="-50.5"/>
      <point x="72.5" y="-4.999999999999993" type="curve"/>
      <point x="14.5" y="-82.0" type="line"/>
      <point x="63.0" y="-128.5"/>
      <point x="141.5" y="-164.5"/>
      <point x="230.5" y="-170.00000000000003" type="curve" smooth="yes"/>
      <point x="358.0" y="-178.00000000000003"/>
      <point x="461.00000000000006" y="-97.0"/>
      <point x="474.0" y="10.000000000000004" type="curve" smooth="yes"/>
      <point x="485.5" y="103.5"/>
      <point x="418.5" y="155.5"/>
      <point x="331.5" y="169.0" type="curve"/>
    </contour>
    <contour>
      <point x="435.49999999999994" y="274.99999999999994" type="curve" smooth="yes"/>
      <point x="427.0" y="217.0"/>
      <point x="356.0" y="187.00000000000003"/>
      <point x="301.5" y="186.00000000000003" type="curve"/>
      <point x="226.0" y="212.0"/>
      <point x="166.5" y="243.00000000000003"/>
      <point x="176.0" y="305.99999999999994" type="curve" smooth="yes"/>
      <point x="183.5" y="353.99999999999994"/>
      <point x="238.0" y="389.49999999999994"/>
      <point x="315.5" y="382.49999999999994" type="curve"/>
      <point x="377.5" y="366.49999999999994"/>
      <point x="444.5" y="331.49999999999994"/>
    </contour>
  </outline>
</glyph>
<glyph name="dieresis" format="2">
  <advance width="375.0"/>
  <unicode hex="00A8"/>
  <outline>
    <contour>
      <point x="84.5" y="533.0" type="curve" smooth="yes"/>
      <point x="84.5" y="533.0" type="line" smooth="yes"/>
      <point x="81.5" y="502.5"/>
      <point x="104.99999999999997" y="478.5"/>
      <point x="131.49999999999997" y="477.5" type="curve" smooth="yes"/>
      <point x="156.49999999999997" y="475.99999999999994"/>
      <point x="185.00000000000003" y="496.5"/>
      <point x="188.5" y="528.0" type="curve" smooth="yes"/>
      <point x="191.50000000000003" y="558.5000000000001"/>
      <point x="167.5" y="582.5000000000001"/>
      <point x="142.5" y="584.0" type="curve" smooth="yes"/>
      <point x="116.0" y="585.0"/>
      <point x="87.5" y="563.5"/>
    </contour>
    <contour>
      <point x="271.0" y="533.0" type="curve" smooth="yes"/>
      <point x="271.0" y="533.0" type="line" smooth="yes"/>
      <point x="268.0" y="501.50000000000006"/>
      <point x="291.5" y="478.5"/>
      <point x="318.0" y="477.5" type="curve" smooth="yes"/>
      <point x="342.50000000000006" y="475.99999999999994"/>
      <point x="371.5" y="496.5"/>
      <point x="375.0" y="528.0" type="curve" smooth="yes"/>
      <point x="378.0" y="558.0000000000001"/>
      <point x="354.0" y="582.5000000000001"/>
      <point x="329.0" y="584.0" type="curve" smooth="yes"/>
      <point x="302.0" y="585.0"/>
      <point x="273.99999999999994" y="563.5"/>
    </contour>
  </outline>
</glyph>
<glyph name="copyright" format="2">
  <advance width="848.5"/>
  <unicode hex="00A9"/>
  <outline>
    <contour>
      <point x="566.0" y="193.49999999999997" type="curve"/>
      <point x="531.0" y="259.5" type="line"/>
      <point x="506.00000000000006" y="238.0"/>
      <point x="474.00000000000006" y="229.0"/>
      <point x="445.00000000000006" y="231.0" type="curve" smooth="yes"/>
      <point x="385.0" y="235.0"/>
      <point x="351.00000000000006" y="284.5"/>
      <point x="358.5" y="342.5" type="curve" smooth="yes"/>
      <point x="366.0" y="400.49999999999994"/>
      <point x="414.00000000000006" y="447.0"/>
      <point x="470.0" y="444.0" type="curve" smooth="yes"/>
      <point x="496.50000000000006" y="442.0"/>
      <point x="521.0" y="435.5"/>
      <point x="540.5" y="414.49999999999994" type="curve"/>
      <point x="587.0" y="484.5" type="line"/>
      <point x="561.0" y="510.0"/>
      <point x="511.5" y="523.5"/>
      <point x="473.5" y="526.0" type="curve" smooth="yes"/>
      <point x="361.99999999999994" y="533.0"/>
      <point x="275.49999999999994" y="456.5"/>
      <point x="262.0" y="345.5" type="curve" smooth="yes"/>
      <point x="249.50000000000003" y="245.0"/>
      <point x="316.5" y="155.0"/>
      <point x="420.00000000000006" y="146.49999999999997" type="curve" smooth="yes"/>
      <point x="481.0" y="142.5"/>
      <point x="533.0" y="167.5"/>
    </contour>
    <contour>
      <point x="399.00000000000006" y="-1.0000000000000142" type="curve" smooth="yes"/>
      <point x="590.0" y="-12.500000000000014"/>
      <point x="755.0" y="122.49999999999997"/>
      <point x="778.5000000000001" y="313.0" type="curve" smooth="yes"/>
      <point x="802.0000000000001" y="507.00000000000006"/>
      <point x="667.5" y="658.5000000000001"/>
      <point x="481.0" y="670.0" type="curve" smooth="yes"/>
      <point x="294.49999999999994" y="681.0"/>
      <point x="125.0" y="548.0"/>
      <point x="100.99999999999999" y="354.99999999999994" type="curve" smooth="yes"/>
      <point x="78.5" y="163.5"/>
      <point x="212.0" y="10.499999999999986"/>
    </contour>
    <contour>
      <point x="408.00000000000006" y="75.5" type="curve" smooth="yes"/>
      <point x="255.5" y="84.5"/>
      <point x="163.50000000000003" y="200.5"/>
      <point x="181.50000000000003" y="349.5" type="curve" smooth="yes"/>
      <point x="200.5" y="499.49999999999994"/>
      <point x="327.0" y="603.5"/>
      <point x="471.0" y="593.9999999999999" type="curve" smooth="yes"/>
      <point x="616.0" y="584.9999999999999"/>
      <point x="716.0000000000001" y="468.0"/>
      <point x="696.5" y="318.0" type="curve" smooth="yes"/>
      <point x="678.5" y="170.0"/>
      <point x="552.5" y="66.0"/>
    </contour>
  </outline>
</glyph>
<glyph name="ordfeminine" format="2">
  <advance width="399.49999999999994"/>
  <unicode hex="00AA"/>
  <outline>
    <contour>
      <point x="191.0" y="422.0" type="curve"/>
      <point x="250.5" y="422.0"/>
      <point x="292.5" y="463.50000000000006"/>
      <point x="304.5" y="483.5" type="curve"/>
      <point x="301.99999999999994" y="498.0" type="line"/>
      <point x="293.0" y="428.00000000000006" type="line"/>
      <point x="365.0" y="428.00000000000006" type="line"/>
      <point x="399.5" y="714.5" type="line"/>
      <point x="332.5" y="714.5" type="line"/>
      <point x="323.0" y="667.0" type="line"/>
      <point x="308.5" y="699.5"/>
      <point x="279.0" y="724.0000000000001"/>
      <point x="226.0" y="724.0000000000001" type="curve"/>
      <point x="156.49999999999997" y="724.0000000000001"/>
      <point x="87.5" y="666.0"/>
      <point x="76.5" y="571.5" type="curve"/>
      <point x="65.0" y="475.0"/>
      <point x="117.00000000000001" y="422.0"/>
    </contour>
    <contour>
      <point x="220.0" y="480.50000000000006" type="curve"/>
      <point x="174.0" y="480.50000000000006"/>
      <point x="143.0" y="521.5"/>
      <point x="149.5" y="574.0" type="curve"/>
      <point x="156.5" y="629.0"/>
      <point x="196.50000000000003" y="665.4999999999999"/>
      <point x="241.99999999999997" y="665.4999999999999" type="curve"/>
      <point x="282.0" y="665.4999999999999"/>
      <point x="309.5" y="637.9999999999999"/>
      <point x="314.5" y="600.0000000000001" type="curve"/>
      <point x="308.0" y="551.0" type="line"/>
      <point x="295.99999999999994" y="509.0"/>
      <point x="262.0" y="480.50000000000006"/>
    </contour>
  </outline>
</glyph>
<glyph name="guillemetleft" format="2">
  <advance width="608.5"/>
  <unicode hex="00AB"/>
  <outline>
    <contour>
      <point x="148.00000000000003" y="242.00000000000003" type="curve"/>
      <point x="297.5" y="53.0" type="line"/>
      <point x="309.0" y="148.5" type="line"/>
      <point x="294.0" y="166.50000000000003"/>
      <point x="257.5" y="224.0"/>
      <point x="242.50000000000003" y="242.00000000000003" type="curve"/>
      <point x="262.0" y="259.99999999999994"/>
      <point x="313.0" y="316.49999999999994"/>
      <point x="332.5" y="334.49999999999994" type="curve"/>
      <point x="344.0" y="430.5" type="line"/>
      <point x="320.50000000000006" y="410.5"/>
      <point x="171.49999999999997" y="262.0"/>
    </contour>
    <contour>
      <point x="321.00000000000006" y="242.00000000000003" type="curve"/>
      <point x="471.0" y="53.0" type="line"/>
      <point x="482.50000000000006" y="148.5" type="line"/>
      <point x="467.5" y="166.50000000000003"/>
      <point x="430.5" y="224.0"/>
      <point x="415.50000000000006" y="242.00000000000003" type="curve"/>
      <point x="435.0" y="259.99999999999994"/>
      <point x="486.50000000000006" y="317.5"/>
      <point x="506.0" y="334.99999999999994" type="curve"/>
      <point x="517.5" y="430.5" type="line"/>
      <point x="494.0" y="410.5"/>
      <point x="344.5" y="262.0"/>
    </contour>
  </outline>
</glyph>
<glyph name="logicalnot" format="2">
  <advance width="501.0"/>
  <unicode hex="00AC"/>
  <outline>
    <contour>
      <point x="88.5" y="296.5" type="line"/>
      <point x="76.0" y="202.99999999999997" type="line"/>
      <point x="343.5" y="202.99999999999997" type="line"/>
      <point x="332.5" y="112.0" type="line"/>
      <point x="429.49999999999994" y="112.0" type="line"/>
      <point x="452.5" y="296.5" type="line"/>
    </contour>
  </outline>
</glyph>
<glyph name="registered" format="2">
  <advance width="486.5"/>
  <unicode hex="00AE"/>
  <outline>
    <contour>
      <point x="255.0" y="302.99999999999994" type="curve"/>
      <point x="371.5" y="296.5"/>
      <point x="477.50000000000006" y="379.49999999999994"/>
      <point x="491.5" y="498.49999999999994" type="curve"/>
      <point x="506.5" y="619.4999999999999"/>
      <point x="422.5" y="713.0"/>
      <point x="306.0" y="720.5" type="curve"/>
      <point x="190.0" y="727.0000000000001"/>
      <point x="84.0" y="645.0"/>
      <point x="69.5" y="524.5" type="curve"/>
      <point x="55.0" y="405.0"/>
      <point x="139.0" y="310.5"/>
    </contour>
    <contour>
      <point x="261.0" y="355.5" type="curve"/>
      <point x="175.0" y="360.5"/>
      <point x="115.0" y="431.49999999999994"/>
      <point x="126.5" y="520.9999999999999" type="curve"/>
      <point x="137.5" y="611.4999999999999"/>
      <point x="212.5" y="673.5"/>
      <point x="300.0" y="668.5" type="curve"/>
      <point x="386.5" y="663.0"/>
      <point x="446.50000000000006" y="592.5"/>
      <point x="435.0" y="502.00000000000006" type="curve"/>
      <point x="424.0" y="412.5"/>
      <point x="349.0" y="350.0"/>
    </contour>
    <contour>
      <point x="219.50000000000003" y="625.5" type="line"/>
      <point x="193.00000000000003" y="412.99999999999994" type="line"/>
      <point x="245.0" y="413.0" type="line"/>
      <point x="254.0" y="483.0" type="line"/>
      <point x="294.5" y="482.5" type="line"/>
      <point x="343.0" y="481.49999999999994"/>
      <point x="365.00000000000006" y="511.49999999999994"/>
      <point x="368.50000000000006" y="547.0" type="curve"/>
      <point x="375.0" y="591.4999999999999"/>
      <point x="350.5" y="624.0"/>
      <point x="302.0" y="624.0" type="curve"/>
    </contour>
    <contour>
      <point x="279.5" y="523.0" type="curve"/>
      <point x="260.0" y="523.5" type="line"/>
      <point x="267.0" y="582.0" type="line"/>
      <point x="288.0" y="581.0" type="line"/>
      <point x="306.5" y="580.0"/>
      <point x="315.50000000000006" y="566.0"/>
      <point x="314.0" y="549.0" type="curve"/>
      <point x="311.5" y="531.9999999999999"/>
      <point x="302.5" y="522.0"/>
    </contour>
    <contour>
      <point x="324.0" y="491.0" type="line"/>
      <point x="270.0" y="493.0" type="line"/>
      <point x="293.5" y="411.5" type="line"/>
      <point x="351.5" y="411.0" type="line"/>
    </contour>
  </outline>
</glyph>
<glyph name="macron" format="2">
  <advance width="404.5"/>
  <unicode hex="00AF"/>
  <outline>
    <contour>
      <point x="152.0" y="537.5" type="line"/>
      <point x="145.5" y="484.0" type="line"/>
      <point x="379.00000000000006" y="484.0" type="line"/>
      <point x="385.0" y="537.5" type="line"/>
    </contour>
  </outline>
</glyph>
<glyph name="degree" format="2">
  <advance width="285.0"/>
  <unicode hex="00B0"/>
  <outline>
    <contour>
      <point x="61.999999999999986" y="568.5" type="curve" smooth="yes"/>
      <point x="61.999999999999986" y="568.5" type="line" smooth="yes"/>
      <point x="56.999999999999986" y="513.5"/>
      <point x="95.99999999999997" y="468.0"/>
      <point x="152.49999999999997" y="465.49999999999994" type="curve" smooth="yes"/>
      <point x="209.0" y="463.0"/>
      <point x="261.0" y="507.49999999999994"/>
      <point x="265.5" y="566.0" type="curve" smooth="yes"/>
      <point x="270.49999999999994" y="621.0"/>
      <point x="231.99999999999997" y="665.5"/>
      <point x="177.49999999999997" y="668.5000000000001" type="curve" smooth="yes"/>
      <point x="118.5" y="671.0"/>
      <point x="67.0" y="627.0"/>
    </contour>
    <contour>
      <point x="159.0" y="517.5" type="curve"/>
      <point x="159.0" y="517.5" type="line"/>
      <point x="133.0" y="518.0"/>
      <point x="114.0" y="539.0"/>
      <point x="116.00000000000001" y="565.5000000000001" type="curve" smooth="yes"/>
      <point x="117.50000000000001" y="594.0"/>
      <point x="142.5" y="616.4999999999999"/>
      <point x="171.0" y="615.5" type="curve" smooth="yes"/>
      <point x="197.0" y="614.5"/>
      <point x="216.00000000000003" y="592.9999999999999"/>
      <point x="214.5" y="566.5" type="curve" smooth="yes"/>
      <point x="212.5" y="538.0"/>
      <point x="187.5" y="517.0"/>
    </contour>
  </outline>
</glyph>
<glyph name="plusminus" format="2">
  <advance width="531.0"/>
  <unicode hex="00B1"/>
  <outline>
    <contour>
      <point x="297.5" y="578.0" type="line"/>
      <point x="280.0" y="436.5" type="line"/>
      <point x="140.5" y="436.5" type="line"/>
      <point x="130.99999999999997" y="354.5" type="line"/>
      <point x="270.5" y="354.5" type="line"/>
      <point x="253.00000000000003" y="213.50000000000003" type="line"/>
      <point x="338.0" y="213.50000000000003" type="line"/>
      <point x="356.0" y="354.5" type="line"/>
      <point x="495.5" y="354.5" type="line"/>
      <point x="505.0" y="436.5" type="line"/>
      <point x="365.5" y="436.5" type="line"/>
      <point x="383.00000000000006" y="578.0" type="line"/>
    </contour>
    <contour>
      <point x="108.0" y="171.0" type="line"/>
      <point x="98.0" y="88.5" type="line"/>
      <point x="462.5" y="88.5" type="line"/>
      <point x="472.5" y="171.0" type="line"/>
    </contour>
  </outline>
</glyph>
<glyph name="twosuperior" format="2">
  <advance width="403.5"/>
  <unicode hex="00B2"/>
  <outline>
    <contour>
      <point x="120.99999999999997" y="635.5" type="curve"/>
      <point x="141.49999999999997" y="575.0" type="line"/>
      <point x="158.49999999999997" y="596.5"/>
      <point x="192.0" y="616.0"/>
      <point x="223.99999999999997" y="616.0" type="curve" smooth="yes"/>
      <point x="262.5" y="616.0"/>
      <point x="283.5" y="594.9999999999999"/>
      <point x="277.49999999999994" y="544.0" type="curve" smooth="yes"/>
      <point x="268.99999999999994" y="473.99999999999994"/>
      <point x="166.0" y="403.5"/>
      <point x="94.5" y="356.99999999999994" type="curve"/>
      <point x="88.0" y="305.49999999999994" type="line"/>
      <point x="360.00000000000006" y="305.49999999999994" type="line"/>
      <point x="369.50000000000006" y="383.49999999999994" type="line"/>
      <point x="169.0" y="383.49999999999994" type="line"/>
      <point x="149.00000000000003" y="320.5" type="line"/>
      <point x="226.00000000000003" y="380.99999999999994"/>
      <point x="364.50000000000006" y="462.0"/>
      <point x="378.0" y="568.5" type="curve" smooth="yes"/>
      <point x="387.50000000000006" y="647.0"/>
      <point x="339.0" y="693.0"/>
      <point x="258.0" y="694.4999999999999" type="curve" smooth="yes"/>
      <point x="204.99999999999997" y="694.9999999999999"/>
      <point x="147.5" y="669.4999999999999"/>
    </contour>
  </outline>
</glyph>
<glyph name="threesuperior" format="2">
  <advance width="389.49999999999994"/>
  <unicode hex="00B3"/>
  <outline>
    <contour>
      <point x="176.0" y="302.5" type="curve" smooth="yes"/>
      <point x="262.0" y="302.5"/>
      <point x="325.0" y="359.49999999999994"/>
      <point x="334.5" y="433.5" type="curve" smooth="yes"/>
      <point x="342.5" y="500.00000000000006"/>
      <point x="281.0" y="550.0"/>
      <point x="233.5" y="548.9999999999999" type="curve"/>
      <point x="203.5" y="548.9999999999999"/>
      <point x="179.5" y="538.0"/>
      <point x="161.99999999999997" y="524.5" type="curve"/>
      <point x="221.5" y="508.5" type="line"/>
      <point x="348.00000000000006" y="687.4999999999999" type="line"/>
      <point x="126.99999999999999" y="687.4999999999999" type="line"/>
      <point x="117.99999999999999" y="619.5" type="line"/>
      <point x="259.0" y="619.5" type="line"/>
      <point x="239.99999999999997" y="635.4999999999999" type="line"/>
      <point x="135.0" y="502.49999999999994" type="line"/>
      <point x="139.0" y="493.99999999999994" type="line"/>
      <point x="151.0" y="499.0"/>
      <point x="168.49999999999997" y="504.00000000000006"/>
      <point x="186.99999999999997" y="504.00000000000006" type="curve" smooth="yes"/>
      <point x="225.5" y="504.00000000000006"/>
      <point x="254.99999999999997" y="479.00000000000006"/>
      <point x="249.49999999999997" y="436.0" type="curve" smooth="yes"/>
      <point x="244.00000000000003" y="394.0"/>
      <point x="214.5" y="368.0"/>
      <point x="172.5" y="364.5" type="curve" smooth="yes"/>
      <point x="140.0" y="361.0"/>
      <point x="116.0" y="390.0"/>
      <point x="105.5" y="404.0" type="curve"/>
      <point x="72.0" y="349.5" type="line"/>
      <point x="89.0" y="328.5"/>
      <point x="122.0" y="302.5"/>
    </contour>
  </outline>
</glyph>
<glyph name="acute" format="2">
  <advance width="277.5"/>
  <unicode hex="00B4"/>
  <outline>
    <contour>
      <point x="315.00000000000006" y="619.5" type="line"/>
      <point x="211.5" y="619.5" type="line"/>
      <point x="123.0" y="485.5" type="line"/>
      <point x="182.5" y="485.5" type="line"/>
    </contour>
  </outline>
</glyph>
<glyph name="micro" format="2">
  <advance width="546.5"/>
  <unicode hex="00B5"/>
  <outline>
    <contour>
      <point x="185.49999999999997" y="-16.000000000000004" type="curve" smooth="yes"/>
      <point x="262.0" y="-16.000000000000004"/>
      <point x="327.49999999999994" y="26.999999999999996"/>
      <point x="359.99999999999994" y="85.0" type="curve"/>
      <point x="356.0" y="0.0" type="line"/>
      <point x="440.50000000000006" y="0.0" type="line"/>
      <point x="491.5" y="414.0" type="line"/>
      <point x="398.0" y="414.0" type="line"/>
      <point x="374.00000000000006" y="221.00000000000003" type="line" smooth="yes"/>
      <point x="363.50000000000006" y="130.5"/>
      <point x="301.0" y="64.0"/>
      <point x="231.5" y="64.0" type="curve"/>
      <point x="181.5" y="65.5"/>
      <point x="163.0" y="96.0"/>
      <point x="166.0" y="141.0" type="curve"/>
      <point x="199.50000000000003" y="414.0" type="line"/>
      <point x="106.0" y="414.0" type="line"/>
      <point x="69.0" y="109.5" type="line"/>
      <point x="31.499999999999996" y="-201.0" type="line"/>
      <point x="109.5" y="-201.0" type="line"/>
      <point x="152.0" y="146.0" type="line"/>
      <point x="72.5" y="95.0" type="line"/>
      <point x="72.0" y="30.0"/>
      <point x="115.0" y="-16.000000000000004"/>
    </contour>
  </outline>
</glyph>
<glyph name="paragraph" format="2">
  <advance width="554.0"/>
  <unicode hex="00B6"/>
  <outline>
    <contour>
      <point x="256.0" y="428.00000000000006" type="curve"/>
      <point x="203.50000000000003" y="0.0" type="line"/>
      <point x="287.5" y="0.0" type="line"/>
      <point x="371.0" y="678.0" type="line"/>
      <point x="452.5" y="678.0" type="line"/>
      <point x="369.00000000000006" y="0.0" type="line"/>
      <point x="452.5" y="0.0" type="line"/>
      <point x="546.0" y="759.5" type="line"/>
      <point x="297.00000000000006" y="759.5" type="line" smooth="yes"/>
      <point x="197.50000000000003" y="759.5"/>
      <point x="110.5" y="677.0"/>
      <point x="110.5" y="576.5" type="curve" smooth="yes"/>
      <point x="110.5" y="493.5"/>
      <point x="171.00000000000003" y="428.00000000000006"/>
    </contour>
  </outline>
</glyph>
<glyph name="cedilla" format="2">
  <advance width="457.5"/>
  <unicode hex="00B8"/>
  <outline>
    <contour>
      <point x="107.5" y="-147.5" type="curve"/>
      <point x="73.5" y="-185.5" type="line"/>
      <point x="91.99999999999997" y="-207.5"/>
      <point x="123.5" y="-227.0"/>
      <point x="174.0" y="-230.0" type="curve"/>
      <point x="245.49999999999997" y="-234.0"/>
      <point x="314.49999999999994" y="-207.00000000000003"/>
      <point x="322.5" y="-140.5" type="curve"/>
      <point x="329.5" y="-82.5"/>
      <point x="283.5" y="-49.0"/>
      <point x="213.0" y="-46.0" type="curve"/>
      <point x="192.5" y="-45.5"/>
      <point x="169.5" y="-48.5"/>
      <point x="154.5" y="-53.0" type="curve"/>
      <point x="173.00000000000003" y="-77.5" type="line"/>
      <point x="250.00000000000003" y="0.5000000000000009" type="line"/>
      <point x="178.99999999999997" y="3.5" type="line"/>
      <point x="107.49999999999997" y="-50.0" type="line"/>
      <point x="119.0" y="-97.0" type="line"/>
      <point x="136.99999999999997" y="-91.5"/>
      <point x="163.5" y="-87.5"/>
      <point x="185.0" y="-88.5" type="curve"/>
      <point x="233.5" y="-91.5"/>
      <point x="247.0" y="-113.5"/>
      <point x="244.0" y="-137.0" type="curve"/>
      <point x="240.0" y="-166.5"/>
      <point x="205.0" y="-179.99999999999997"/>
      <point x="171.0" y="-178.5" type="curve"/>
      <point x="142.0" y="-176.5"/>
      <point x="119.49999999999999" y="-164.0"/>
    </contour>
  </outline>
</glyph>
<glyph name="onesuperior" format="2">
  <advance width="271.5"/>
  <unicode hex="00B9"/>
  <outline>
    <contour>
      <point x="102.0" y="669.0000000000001" type="line"/>
      <point x="92.5" y="585.0" type="line"/>
      <point x="151.5" y="585.0" type="line"/>
      <point x="116.5" y="296.49999999999994" type="line"/>
      <point x="204.50000000000003" y="296.49999999999994" type="line"/>
      <point x="249.00000000000003" y="669.0000000000001" type="line"/>
    </contour>
  </outline>
</glyph>
<glyph name="ordmasculine" format="2">
  <advance width="377.5"/>
  <unicode hex="00BA"/>
  <outline>
    <contour>
      <point x="78.5" y="580.5000000000001" type="curve"/>
      <point x="67.0" y="488.5"/>
      <point x="126.00000000000001" y="425.00000000000006"/>
      <point x="214.99999999999997" y="419.50000000000006" type="curve"/>
      <point x="308.0" y="414.00000000000006"/>
      <point x="377.50000000000006" y="475.00000000000006"/>
      <point x="388.5" y="561.0" type="curve"/>
      <point x="399.0" y="647.0"/>
      <point x="343.5" y="716.5"/>
      <point x="252.49999999999997" y="722.0" type="curve"/>
      <point x="161.5" y="728.0"/>
      <point x="89.0" y="666.5"/>
    </contour>
    <contour>
      <point x="151.0" y="575.0" type="curve"/>
      <point x="157.5" y="623.0"/>
      <point x="197.0" y="662.0"/>
      <point x="244.0" y="659.0" type="curve"/>
      <point x="290.99999999999994" y="655.9999999999999"/>
      <point x="321.49999999999994" y="614.9999999999999"/>
      <point x="315.5" y="565.0000000000001" type="curve"/>
      <point x="309.0" y="516.5"/>
      <point x="269.0" y="479.50000000000006"/>
      <point x="222.00000000000003" y="482.50000000000006" type="curve"/>
      <point x="176.5" y="485.5"/>
      <point x="145.5" y="526.0"/>
    </contour>
  </outline>
</glyph>
<glyph name="guillemetright" format="2">
  <advance width="608.5"/>
  <unicode hex="00BB"/>
  <outline>
    <contour>
      <point x="435.5" y="242.00000000000003" type="curve"/>
      <point x="286.0" y="53.0" type="line"/>
      <point x="274.5" y="148.5" type="line"/>
      <point x="289.5" y="166.50000000000003"/>
      <point x="326.0" y="224.0"/>
      <point x="341.0" y="242.00000000000003" type="curve"/>
      <point x="321.5" y="259.99999999999994"/>
      <point x="270.5" y="316.49999999999994"/>
      <point x="251.0" y="334.49999999999994" type="curve"/>
      <point x="239.5" y="430.5" type="line"/>
      <point x="262.99999999999994" y="410.5"/>
      <point x="412.0" y="262.0"/>
    </contour>
    <contour>
      <point x="262.5" y="242.00000000000003" type="curve"/>
      <point x="112.5" y="53.0" type="line"/>
      <point x="101.0" y="148.5" type="line"/>
      <point x="116.0" y="166.50000000000003"/>
      <point x="153.0" y="224.0"/>
      <point x="168.0" y="242.00000000000003" type="curve"/>
      <point x="148.5" y="259.99999999999994"/>
      <point x="97.0" y="317.5"/>
      <point x="77.5" y="334.99999999999994" type="curve"/>
      <point x="66.0" y="430.5" type="line"/>
      <point x="89.5" y="410.5"/>
      <point x="239.0" y="262.0"/>
    </contour>
  </outline>
</glyph>
<glyph name="onequarter" format="2">
  <advance width="870.5"/>
  <unicode hex="00BC"/>
  <outline>
    <contour>
      <point x="676.0" y="764.1205000000001" type="curve"/>
      <point x="591.5" y="764.1205000000001" type="line"/>
      <point x="465.50000000000006" y="509.24699999999996"/>
      <point x="341.0" y="254.87349999999998"/>
      <point x="215.0" y="0.0" type="curve"/>
      <point x="300.0" y="0.0" type="line"/>
      <point x="426.0" y="254.87349999999998"/>
      <point x="550.0" y="509.24699999999996"/>
    </contour>
    <component base="onesuperior"/>
    <component base="foursuperior" xOffset="453.0" yOffset="-290.5"/>
  </outline>
</glyph>
<glyph name="questiondown" format="2">
  <advance width="431.5"/>
  <unicode hex="00BF"/>
  <outline>
    <contour>
      <point x="314.5" y="275.0" type="curve" smooth="yes"/>
      <point x="326.5" y="373.0" type="line"/>
      <point x="242.0" y="373.0" type="line"/>
      <point x="232.0" y="294.0" type="line" smooth="yes"/>
      <point x="223.0" y="222.5"/>
      <point x="164.5" y="198.0"/>
      <point x="123.5" y="170.5" type="curve" smooth="yes"/>
      <point x="47.99999999999999" y="119.0"/>
      <point x="1.499999999999993" y="59.0"/>
      <point x="1.499999999999993" y="-25.0" type="curve" smooth="yes"/>
      <point x="1.499999999999993" y="-123.0"/>
      <point x="74.0" y="-202.5"/>
      <point x="177.0" y="-202.5" type="curve" smooth="yes"/>
      <point x="314.5" y="-202.5"/>
      <point x="372.5" y="-106.0"/>
      <point x="398.5" y="-47.5" type="curve"/>
      <point x="376.0" y="-38.0"/>
      <point x="351.5" y="-28.999999999999996"/>
      <point x="328.5" y="-20.499999999999993" type="curve"/>
      <point x="328.5" y="-20.499999999999993" type="line"/>
      <point x="300.5" y="-85.5"/>
      <point x="262.5" y="-120.0"/>
      <point x="187.0" y="-120.0" type="curve" smooth="yes"/>
      <point x="126.5" y="-120.0"/>
      <point x="88.0" y="-77.0"/>
      <point x="88.0" y="-18.5" type="curve" smooth="yes"/>
      <point x="88.0" y="35.0"/>
      <point x="117.0" y="82.5"/>
      <point x="176.0" y="125.5" type="curve" smooth="yes"/>
      <point x="243.5" y="174.0"/>
      <point x="303.5" y="188.5"/>
    </contour>
    <contour>
      <point x="306.0" y="538.5" type="curve" smooth="yes"/>
      <point x="306.0" y="538.5" type="line" smooth="yes"/>
      <point x="278.5" y="538.5"/>
      <point x="247.5" y="515.5"/>
      <point x="247.5" y="481.0" type="curve" smooth="yes"/>
      <point x="247.5" y="454.0"/>
      <point x="270.0" y="433.0"/>
      <point x="293.0" y="433.0" type="curve" smooth="yes"/>
      <point x="321.0" y="433.0"/>
      <point x="352.5" y="458.5"/>
      <point x="352.5" y="491.5" type="curve" smooth="yes"/>
      <point x="352.5" y="520.0"/>
      <point x="330.0" y="538.5"/>
    </contour>
  </outline>
</glyph>
<glyph name="AE" format="2">
  <advance width="952.5"/>
  <unicode hex="00C6"/>
  <anchor x="427.5" y="0.0" name="bottom"/>
  <anchor x="688.5000000000001" y="723.0" name="top"/>
  <outline>
    <contour>
      <point x="540.0" y="723.0" type="line"/>
      <point x="451.50000000000006" y="0.0" type="line"/>
      <point x="860.5" y="0.0" type="line"/>
      <point x="872.0" y="93.50000000000001" type="line"/>
      <point x="560.0" y="93.50000000000001" type="line"/>
      <point x="587.0" y="315.0" type="line"/>
      <point x="844.5" y="315.0" type="line"/>
      <point x="856.0000000000001" y="408.50000000000006" type="line"/>
      <point x="598.0" y="408.50000000000006" type="line"/>
      <point x="625.5" y="629.0" type="line"/>
      <point x="923.5" y="629.0" type="line"/>
      <point x="935.0" y="723.0" type="line"/>
    </contour>
    <contour>
      <point x="541.0" y="614.5" type="curve"/>
      <point x="540.0" y="723.0" type="line"/>
      <point x="-13.000000000000002" y="0.0" type="line"/>
      <point x="98.50000000000001" y="0.0" type="line"/>
      <point x="526.5" y="577.0" type="line"/>
      <point x="528.0" y="580.0"/>
      <point x="536.5" y="601.9999999999999"/>
    </contour>
    <contour>
      <point x="237.0" y="256.0" type="line"/>
      <point x="199.5" y="178.5" type="line"/>
      <point x="487.5" y="178.5" type="line"/>
      <point x="497.0" y="256.0" type="line"/>
    </contour>
  </outline>
</glyph>
<glyph name="multiply" format="2">
  <advance width="517.5"/>
  <unicode hex="00D7"/>
  <outline>
    <contour>
      <point x="307.0" y="240.0" type="curve"/>
      <point x="221.0" y="337.5" type="line"/>
      <point x="140.0" y="263.5" type="line"/>
      <point x="225.0" y="167.0" type="line"/>
      <point x="188.5" y="134.5"/>
      <point x="153.49999999999997" y="104.0"/>
      <point x="118.50000000000001" y="72.0" type="curve"/>
      <point x="139.0" y="48.50000000000001"/>
      <point x="160.00000000000003" y="25.000000000000004"/>
      <point x="181.5" y="1.5000000000000002" type="curve"/>
      <point x="215.5" y="32.0"/>
      <point x="252.0" y="63.5"/>
      <point x="286.0" y="95.0" type="curve"/>
      <point x="314.5" y="63.0"/>
      <point x="343.49999999999994" y="32.0"/>
      <point x="371.0" y="0.0" type="curve"/>
      <point x="453.5" y="72.5" type="line"/>
      <point x="425.0" y="105.5"/>
      <point x="398.5" y="137.5"/>
      <point x="370.0" y="169.0" type="curve"/>
      <point x="404.00000000000006" y="200.5"/>
      <point x="440.5" y="233.0"/>
      <point x="474.50000000000006" y="263.0" type="curve"/>
      <point x="454.0" y="286.5"/>
      <point x="434.5" y="312.0"/>
      <point x="414.0" y="335.00000000000006" type="curve"/>
      <point x="376.50000000000006" y="302.5"/>
      <point x="343.50000000000006" y="272.5"/>
    </contour>
  </outline>
</glyph>
<glyph name="Oslash" format="2">
  <advance width="850.0"/>
  <unicode hex="00D8"/>
  <anchor x="399.50000000000006" y="0.0" name="bottom"/>
  <anchor x="488.5" y="723.0" name="top"/>
  <anchor x="460.00000000000006" y="350.0" name="center"/>
  <anchor x="564.5" y="6.500000000000001" name="ogonek"/>
  <anchor x="56.0" y="700.0" name="topleft"/>
  <anchor x="716.5" y="590.5" name="topright"/>
  <outline>
    <contour>
      <point x="834.0" y="687.0" type="line"/>
      <point x="792.0" y="730.5" type="line"/>
      <point x="105.5" y="28.000000000000004" type="line"/>
      <point x="148.5" y="-14.500000000000002" type="line"/>
    </contour>
    <component base="O"/>
  </outline>
</glyph>
<glyph name="Thorn" format="2">
  <advance width="583.5"/>
  <unicode hex="00DE"/>
  <outline>
    <contour>
      <point x="341.50000000000006" y="586.0" type="curve" smooth="yes"/>
      <point x="249.00000000000003" y="586.0" type="line"/>
      <point x="264.0" y="709.0" type="line"/>
      <point x="163.99999999999997" y="709.0" type="line"/>
      <point x="76.5" y="0.0" type="line"/>
      <point x="176.5" y="0.0" type="line"/>
      <point x="192.5" y="129.0" type="line"/>
      <point x="296.5" y="129.0" type="line" smooth="yes"/>
      <point x="491.5" y="129.0"/>
      <point x="568.5" y="270.00000000000006"/>
      <point x="568.5" y="389.0" type="curve" smooth="yes"/>
      <point x="568.5" y="517.0"/>
      <point x="473.0" y="586.0"/>
    </contour>
    <contour>
      <point x="305.0" y="223.00000000000003" type="curve" smooth="yes"/>
      <point x="204.00000000000003" y="223.00000000000003" type="line"/>
      <point x="237.0" y="492.5" type="line"/>
      <point x="339.0" y="492.5" type="line" smooth="yes"/>
      <point x="431.0" y="492.5"/>
      <point x="467.0" y="430.0"/>
      <point x="467.0" y="375.50000000000006" type="curve" smooth="yes"/>
      <point x="467.0" y="322.0"/>
      <point x="428.00000000000006" y="223.00000000000003"/>
    </contour>
  </outline>
</glyph>
<glyph name="germandbls" format="2">
  <advance width="604.0"/>
  <unicode hex="00DF"/>
  <outline>
    <contour>
      <point x="338.5" y="-6.0" type="curve" smooth="yes"/>
      <point x="480.0" y="-9.5"/>
      <point x="544.5" y="101.5"/>
      <point x="551.5" y="205.50000000000003" type="curve" smooth="yes"/>
      <point x="557.5" y="303.0"/>
      <point x="517.0" y="363.50000000000006"/>
      <point x="452.0" y="393.00000000000006" type="curve"/>
      <point x="523.0" y="419.5"/>
      <point x="541.5" y="473.5"/>
      <point x="541.5" y="522.0" type="curve" smooth="yes"/>
      <point x="541.5" y="605.0"/>
      <point x="485.5" y="664.0000000000001"/>
      <point x="378.50000000000006" y="666.5000000000001" type="curve"/>
      <point x="254.0" y="668.0000000000001"/>
      <point x="164.00000000000003" y="600.5"/>
      <point x="145.0" y="470.5" type="curve" smooth="yes"/>
      <point x="137.5" y="420.0" type="line"/>
      <point x="72.5" y="420.0" type="line"/>
      <point x="58.0" y="342.99999999999994" type="line"/>
      <point x="123.00000000000001" y="342.99999999999994" type="line"/>
      <point x="66.5" y="0.0" type="line"/>
      <point x="160.5" y="0.0" type="line"/>
      <point x="230.50000000000003" y="423.0" type="line" smooth="yes"/>
      <point x="247.00000000000003" y="525.4999999999999"/>
      <point x="284.5" y="591.4999999999999"/>
      <point x="365.5" y="589.5" type="curve" smooth="yes"/>
      <point x="422.0" y="587.5"/>
      <point x="445.99999999999994" y="556.0"/>
      <point x="445.99999999999994" y="512.9999999999999" type="curve" smooth="yes"/>
      <point x="445.99999999999994" y="481.5"/>
      <point x="422.50000000000006" y="427.50000000000006"/>
      <point x="355.5" y="432.50000000000006" type="curve"/>
      <point x="346.0" y="350.49999999999994" type="line"/>
      <point x="351.0" y="349.99999999999994" type="line"/>
      <point x="422.0" y="346.5"/>
      <point x="464.49999999999994" y="291.0"/>
      <point x="458.0" y="211.5" type="curve" smooth="yes"/>
      <point x="452.99999999999994" y="150.0"/>
      <point x="412.00000000000006" y="65.5"/>
      <point x="336.5" y="65.5" type="curve" smooth="yes"/>
      <point x="317.5" y="65.5"/>
      <point x="282.5" y="73.5"/>
      <point x="259.0" y="94.5" type="curve"/>
      <point x="218.50000000000003" y="36.5" type="line"/>
      <point x="245.00000000000003" y="9.0"/>
      <point x="294.5" y="-6.0"/>
    </contour>
  </outline>
</glyph>
<glyph name="ae" format="2">
  <advance width="806.0"/>
  <unicode hex="00E6"/>
  <anchor x="377.00000000000006" y="0.0" name="bottom"/>
  <anchor x="428.0" y="414.0" name="top"/>
  <outline>
    <contour>
      <point x="538.5" y="-10.0" type="curve" smooth="yes"/>
      <point x="586.5" y="-11.5"/>
      <point x="639.5" y="3.499999999999999"/>
      <point x="683.5" y="28.5" type="curve"/>
      <point x="649.0" y="100.0" type="line"/>
      <point x="618.5" y="80.0"/>
      <point x="584.5000000000001" y="69.00000000000001"/>
      <point x="549.0" y="70.0" type="curve" smooth="yes"/>
      <point x="488.00000000000006" y="73.5"/>
      <point x="412.0" y="118.5"/>
      <point x="424.50000000000006" y="222.50000000000003" type="curve"/>
      <point x="435.50000000000006" y="303.5"/>
      <point x="494.5" y="358.5"/>
      <point x="568.0" y="355.99999999999994" type="curve" smooth="yes"/>
      <point x="620.0" y="354.0"/>
      <point x="660.9999999999999" y="324.0"/>
      <point x="675.4999999999999" y="267.5" type="curve"/>
      <point x="696.4999999999999" y="280.0" type="line"/>
      <point x="390.00000000000006" y="213.0" type="line"/>
      <point x="394.5" y="158.5" type="line"/>
      <point x="775.0" y="237.49999999999997" type="line"/>
      <point x="760.0" y="382.0"/>
      <point x="667.0000000000001" y="427.00000000000006"/>
      <point x="582.0" y="430.00000000000006" type="curve" smooth="yes"/>
      <point x="456.5" y="433.5"/>
      <point x="346.0" y="344.00000000000006"/>
      <point x="331.5" y="223.50000000000003" type="curve"/>
      <point x="310.99999999999994" y="50.5"/>
      <point x="447.50000000000006" y="-6.000000000000001"/>
    </contour>
    <contour>
      <point x="197.5" y="-10.5" type="curve" smooth="yes"/>
      <point x="259.0" y="-10.5"/>
      <point x="324.0" y="7.500000000000003"/>
      <point x="366.5" y="54.0" type="curve"/>
      <point x="379.5" y="157.00000000000003" type="line"/>
      <point x="340.0" y="184.99999999999997" type="line"/>
      <point x="329.0" y="97.5" type="line"/>
      <point x="305.0" y="72.5"/>
      <point x="264.5" y="56.00000000000001"/>
      <point x="228.0" y="54.50000000000001" type="curve" smooth="yes"/>
      <point x="180.0" y="53.50000000000001"/>
      <point x="139.0" y="70.0"/>
      <point x="137.5" y="113.0" type="curve"/>
      <point x="136.0" y="145.5"/>
      <point x="159.5" y="182.0"/>
      <point x="226.0" y="179.5" type="curve" smooth="yes"/>
      <point x="270.0" y="180.0"/>
      <point x="312.0" y="161.99999999999997"/>
      <point x="348.5" y="123.0" type="curve"/>
      <point x="371.00000000000006" y="178.5" type="line"/>
      <point x="330.0" y="222.0"/>
      <point x="282.5" y="243.5"/>
      <point x="212.0" y="246.00000000000003" type="curve" smooth="yes"/>
      <point x="82.5" y="249.00000000000003"/>
      <point x="33.5" y="176.00000000000003"/>
      <point x="33.5" y="112.5" type="curve" smooth="yes"/>
      <point x="33.5" y="31.0"/>
      <point x="114.0" y="-10.5"/>
    </contour>
    <contour>
      <point x="324.0" y="214.00000000000003" type="line"/>
      <point x="420.0" y="257.5" type="line"/>
      <point x="423.0" y="278.00000000000006" type="line" smooth="yes"/>
      <point x="437.0" y="393.0"/>
      <point x="334.5" y="426.5"/>
      <point x="263.50000000000006" y="429.5" type="curve" smooth="yes"/>
      <point x="182.49999999999997" y="431.5"/>
      <point x="120.00000000000001" y="399.5"/>
      <point x="73.0" y="358.0" type="curve"/>
      <point x="113.0" y="295.49999999999994" type="line"/>
      <point x="148.0" y="329.99999999999994"/>
      <point x="192.0" y="354.0"/>
      <point x="241.5" y="352.5" type="curve" smooth="yes"/>
      <point x="281.5" y="351.0"/>
      <point x="339.5" y="337.99999999999994"/>
      <point x="329.5" y="257.5" type="curve" smooth="yes"/>
    </contour>
  </outline>
</glyph>
<glyph name="ccedilla" format="2">
  <advance width="435.5"/>
  <unicode hex="00E7"/>
  <outline>
    <contour>
      <point x="362.5" y="97.5" type="curve"/>
      <point x="362.5" y="97.5" type="line"/>
      <point x="336.5" y="78.5"/>
      <point x="304.5" y="67.5"/>
      <point x="269.0" y="67.5" type="curve" smooth="yes"/>
      <point x="193.5" y="67.5"/>
      <point x="144.0" y="122.5"/>
      <point x="144.0" y="193.00000000000003" type="curve" smooth="yes"/>
      <point x="144.0" y="279.5"/>
      <point x="214.00000000000003" y="347.5"/>
      <point x="304.0" y="347.5" type="curve" smooth="yes"/>
      <point x="338.50000000000006" y="347.5"/>
      <point x="368.50000000000006" y="336.5"/>
      <point x="389.50000000000006" y="317.49999999999994" type="curve"/>
      <point x="409.0" y="338.00000000000006"/>
      <point x="428.5" y="357.0"/>
      <point x="447.5" y="376.5" type="curve"/>
      <point x="412.50000000000006" y="406.0"/>
      <point x="367.0" y="424.50000000000006"/>
      <point x="313.0" y="424.50000000000006" type="curve" smooth="yes"/>
      <point x="182.0" y="424.50000000000006"/>
      <point x="65.0" y="315.5"/>
      <point x="65.0" y="185.50000000000003" type="curve" smooth="yes"/>
      <point x="65.0" y="77.5"/>
      <point x="147.00000000000003" y="-10.0"/>
      <point x="259.5" y="-10.0" type="curve" smooth="yes"/>
      <point x="312.5" y="-10.0"/>
      <point x="362.50000000000006" y="8.499999999999998"/>
      <point x="403.5" y="38.5" type="curve"/>
      <point x="389.00000000000006" y="58.5"/>
      <point x="377.50000000000006" y="77.5"/>
    </contour>
    <contour>
      <point x="263.5" y="-7.5" type="curve" smooth="yes"/>
      <point x="264.5" y="0.0" type="line"/>
      <point x="212.5" y="0.0" type="line"/>
      <point x="209.49999999999997" y="-21.5" type="line" smooth="yes"/>
      <point x="202.49999999999997" y="-84.5"/>
      <point x="266.5" y="-79.5"/>
      <point x="266.5" y="-128.0" type="curve" smooth="yes"/>
      <point x="266.5" y="-161.5"/>
      <point x="245.0" y="-190.5"/>
      <point x="208.5" y="-190.5" type="curve" smooth="yes"/>
      <point x="182.5" y="-190.5"/>
      <point x="165.0" y="-174.5"/>
      <point x="162.0" y="-153.0" type="curve"/>
      <point x="145.50000000000003" y="-160.49999999999997"/>
      <point x="127.99999999999999" y="-169.0"/>
      <point x="111.5" y="-177.0" type="curve"/>
      <point x="122.99999999999999" y="-228.50000000000003"/>
      <point x="162.49999999999997" y="-253.50000000000003"/>
      <point x="208.00000000000003" y="-253.50000000000003" type="curve" smooth="yes"/>
      <point x="284.0" y="-253.50000000000003"/>
      <point x="329.00000000000006" y="-193.00000000000003"/>
      <point x="329.00000000000006" y="-129.0" type="curve" smooth="yes"/>
      <point x="329.00000000000006" y="-103.5"/>
      <point x="320.00000000000006" y="-79.0"/>
      <point x="299.0" y="-61.5" type="curve" smooth="yes"/>
      <point x="283.5" y="-48.5"/>
      <point x="258.5" y="-45.5"/>
    </contour>
  </outline>
</glyph>
<glyph name="eth" format="2">
  <advance width="545.5"/>
  <unicode hex="00F0"/>
  <outline>
    <contour>
      <point x="252.00000000000003" y="-8.5" type="curve" smooth="yes"/>
      <point x="429.0" y="-10.0"/>
      <point x="505.50000000000006" y="142.0"/>
      <point x="508.50000000000006" y="287.5" type="curve" smooth="yes"/>
      <point x="511.0" y="450.00000000000006"/>
      <point x="429.0" y="641.5000000000001"/>
      <point x="281.5" y="768.0" type="curve"/>
      <point x="206.0" y="710.4999999999999" type="line"/>
      <point x="339.5" y="586.9999999999999"/>
      <point x="424.99999999999994" y="441.5"/>
      <point x="408.0" y="245.5" type="curve"/>
      <point x="440.0" y="243.0" type="line"/>
      <point x="438.50000000000006" y="370.00000000000006"/>
      <point x="346.50000000000006" y="430.5"/>
      <point x="265.5" y="431.50000000000006" type="curve" smooth="yes"/>
      <point x="126.0" y="433.5"/>
      <point x="50.0" y="325.00000000000006"/>
      <point x="46.0" y="220.0" type="curve" smooth="yes"/>
      <point x="38.5" y="36.5"/>
      <point x="176.0" y="-7.500000000000001"/>
    </contour>
    <contour>
      <point x="261.5" y="68.0" type="curve" smooth="yes"/>
      <point x="209.5" y="69.0"/>
      <point x="135.0" y="103.5"/>
      <point x="136.5" y="204.0" type="curve" smooth="yes"/>
      <point x="138.0" y="268.49999999999994"/>
      <point x="180.50000000000003" y="354.5"/>
      <point x="279.5" y="353.0" type="curve" smooth="yes"/>
      <point x="316.5" y="352.5"/>
      <point x="413.0" y="326.5"/>
      <point x="404.5" y="210.5" type="curve" smooth="yes"/>
      <point x="399.5" y="148.50000000000003"/>
      <point x="355.0" y="68.0"/>
    </contour>
    <contour>
      <point x="480.00000000000006" y="664.0" type="line"/>
      <point x="457.5" y="727.5" type="line"/>
      <point x="203.0" y="595.0" type="line"/>
      <point x="227.0" y="531.0" type="line"/>
    </contour>
  </outline>
</glyph>
<glyph name="divide" format="2">
  <advance width="506.5"/>
  <unicode hex="00F7"/>
  <outline>
    <contour>
      <point x="214.0" y="100.0" type="curve" smooth="yes"/>
      <point x="214.0" y="100.0" type="line" smooth="yes"/>
      <point x="214.0" y="71.5"/>
      <point x="236.5" y="52.5"/>
      <point x="261.5" y="52.5" type="curve" smooth="yes"/>
      <point x="288.0" y="52.5"/>
      <point x="319.5" y="76.0"/>
      <point x="319.5" y="110.5" type="curve" smooth="yes"/>
      <point x="319.5" y="138.0"/>
      <point x="297.0" y="159.0"/>
      <point x="274.0" y="159.0" type="curve" smooth="yes"/>
      <point x="245.5" y="159.0"/>
      <point x="214.0" y="133.5"/>
    </contour>
    <contour>
      <point x="250.00000000000003" y="391.0" type="curve" smooth="yes"/>
      <point x="250.00000000000003" y="391.0" type="line" smooth="yes"/>
      <point x="250.00000000000003" y="362.50000000000006"/>
      <point x="272.0" y="344.0"/>
      <point x="296.50000000000006" y="344.0" type="curve" smooth="yes"/>
      <point x="324.0" y="344.0"/>
      <point x="355.5" y="367.0"/>
      <point x="355.5" y="402.0" type="curve" smooth="yes"/>
      <point x="355.5" y="429.00000000000006"/>
      <point x="333.00000000000006" y="450.0"/>
      <point x="310.0" y="450.0" type="curve" smooth="yes"/>
      <point x="281.0" y="450.0"/>
      <point x="250.00000000000003" y="424.5"/>
    </contour>
    <contour>
      <point x="105.0" y="290.5" type="line"/>
      <point x="94.5" y="208.49999999999997" type="line"/>
      <point x="459.00000000000006" y="208.49999999999997" type="line"/>
      <point x="469.5" y="290.5" type="line"/>
    </contour>
  </outline>
</glyph>
<glyph name="oslash" format="2">
  <advance width="517.5"/>
  <unicode hex="00F8"/>
  <anchor x="255.0" y="0.0" name="bottom"/>
  <anchor x="263.5" y="227.00000000000003" name="center"/>
  <anchor x="357.5" y="4.500000000000002" name="ogonek"/>
  <anchor x="284.50000000000006" y="422.50000000000006" name="top"/>
  <anchor x="400.00000000000006" y="353.99999999999994" name="topright"/>
  <outline>
    <contour>
      <point x="506.50000000000006" y="404.0" type="curve"/>
      <point x="469.00000000000006" y="437.50000000000006" type="line"/>
      <point x="408.0" y="375.0"/>
      <point x="108.0" y="75.0"/>
      <point x="47.5" y="12.500000000000002" type="curve"/>
      <point x="82.5" y="-23.500000000000004" type="line"/>
      <point x="143.5" y="39.99999999999999"/>
      <point x="444.5" y="340.5"/>
    </contour>
    <component base="o"/>
  </outline>
</glyph>
<glyph name="thorn" format="2">
  <advance width="567.5"/>
  <unicode hex="00FE"/>
  <outline>
    <contour>
      <point x="229.50000000000003" y="774.5" type="line"/>
      <point x="150.0" y="774.5" type="line"/>
      <point x="30.499999999999996" y="-199.0" type="line"/>
      <point x="109.5" y="-199.0" type="line"/>
      <point x="143.5" y="70.0" type="line"/>
      <point x="137.0" y="61.49999999999999" type="line"/>
      <point x="154.0" y="24.999999999999996"/>
      <point x="208.0" y="-10.0"/>
      <point x="278.00000000000006" y="-10.0" type="curve" smooth="yes"/>
      <point x="415.00000000000006" y="-10.0"/>
      <point x="524.0" y="75.5"/>
      <point x="524.0" y="234.5" type="curve" smooth="yes"/>
      <point x="524.0" y="350.5"/>
      <point x="449.5" y="424.50000000000006"/>
      <point x="335.5" y="424.50000000000006" type="curve" smooth="yes"/>
      <point x="259.0" y="424.50000000000006"/>
      <point x="199.50000000000003" y="384.0"/>
      <point x="172.5" y="348.0" type="curve"/>
      <point x="174.0" y="324.5" type="line"/>
    </contour>
    <contour>
      <point x="437.99999999999994" y="225.5" type="curve" smooth="yes"/>
      <point x="437.99999999999994" y="128.5"/>
      <point x="374.5" y="67.5"/>
      <point x="284.0" y="67.5" type="curve" smooth="yes"/>
      <point x="209.0" y="67.5"/>
      <point x="158.5" y="122.0"/>
      <point x="158.5" y="193.00000000000003" type="curve" smooth="yes"/>
      <point x="158.5" y="279.5"/>
      <point x="230.0" y="347.5"/>
      <point x="318.5" y="347.5" type="curve" smooth="yes"/>
      <point x="392.49999999999994" y="347.5"/>
      <point x="437.99999999999994" y="295.0"/>
    </contour>
  </outline>
</glyph>
<glyph name="dcroat" format="2">
  <advance width="562.0"/>
  <unicode hex="0111"/>
  <anchor x="290.0" y="0.0" name="bottom"/>
  <anchor x="387.0" y="373.4999999999999" name="center"/>
  <anchor x="307.0" y="454.0" name="top"/>
  <anchor x="625.0000000000001" y="583.5" name="topright"/>
  <outline>
    <contour>
      <point x="325.5" y="674.5" type="line"/>
      <point x="317.5" y="606.5" type="line"/>
      <point x="615.5000000000001" y="606.5" type="line"/>
      <point x="624.0000000000001" y="674.5" type="line"/>
    </contour>
    <component base="d"/>
  </outline>
</glyph>
<glyph name="eogonek" format="2">
  <advance width="514.0"/>
  <unicode hex="0119"/>
  <outline>
    <contour>
      <point x="294.0" y="-197.0" type="curve"/>
      <point x="335.5" y="-198.5"/>
      <point x="384.5" y="-172.5"/>
      <point x="412.0" y="-135.00000000000003" type="curve"/>
      <point x="382.00000000000006" y="-86.0" type="line"/>
      <point x="360.50000000000006" y="-114.49999999999997"/>
      <point x="337.0" y="-131.5"/>
      <point x="310.0" y="-130.5" type="curve"/>
      <point x="285.50000000000006" y="-129.5"/>
      <point x="263.0" y="-111.5"/>
      <point x="265.5" y="-79.5" type="curve"/>
      <point x="267.0" y="-47.5"/>
      <point x="293.5" y="-21.0"/>
      <point x="337.50000000000006" y="3.9999999999999982" type="curve" smooth="yes"/>
      <point x="355.00000000000006" y="12.499999999999998"/>
      <point x="375.00000000000006" y="20.5"/>
      <point x="397.0" y="28.5" type="curve"/>
      <point x="362.50000000000006" y="100.5" type="line"/>
      <point x="334.5" y="82.0"/>
      <point x="304.0" y="70.0"/>
      <point x="271.5" y="70.0" type="curve" smooth="yes"/>
      <point x="202.0" y="70.0"/>
      <point x="136.5" y="116.0"/>
      <point x="136.5" y="211.0" type="curve" smooth="yes"/>
      <point x="136.5" y="287.00000000000006"/>
      <point x="189.50000000000003" y="355.49999999999994"/>
      <point x="279.50000000000006" y="355.49999999999994" type="curve" smooth="yes"/>
      <point x="333.49999999999994" y="355.49999999999994"/>
      <point x="374.0" y="319.50000000000006"/>
      <point x="389.0" y="267.5" type="curve"/>
      <point x="422.00000000000006" y="280.0" type="line"/>
      <point x="119.5" y="193.5" type="line"/>
      <point x="134.5" y="138.50000000000003" type="line"/>
      <point x="489.00000000000006" y="237.49999999999997" type="line"/>
      <point x="466.0" y="383.0"/>
      <point x="380.0" y="429.50000000000006"/>
      <point x="282.0" y="429.50000000000006" type="curve" smooth="yes"/>
      <point x="123.50000000000001" y="429.50000000000006"/>
      <point x="43.0" y="307.5"/>
      <point x="43.0" y="200.5" type="curve" smooth="yes"/>
      <point x="43.0" y="67.0"/>
      <point x="131.0" y="-9.0"/>
      <point x="261.5" y="-9.0" type="curve" smooth="yes"/>
      <point x="283.50000000000006" y="-2.9999999999999996"/>
      <point x="308.50000000000006" y="7.000000000000001"/>
      <point x="329.0" y="18.5" type="curve"/>
      <point x="290.5" y="40.0" type="line"/>
      <point x="219.5" y="11.500000000000002"/>
      <point x="186.49999999999997" y="-46.5"/>
      <point x="186.49999999999997" y="-92.5" type="curve"/>
      <point x="186.49999999999997" y="-152.99999999999997"/>
      <point x="233.50000000000003" y="-193.5"/>
    </contour>
  </outline>
</glyph>
<glyph name="gcommaaccent" format="2">
  <advance width="600.5"/>
  <unicode hex="0123"/>
  <anchor x="370.5" y="695.5" name="bottom"/>
  <anchor x="322.0" y="454.0" name="top"/>
  <outline>
    <contour>
      <point x="364.50000000000006" y="663.5" type="line"/>
      <point x="306.5" y="629.5"/>
      <point x="278.0" y="554.0"/>
      <point x="285.0" y="498.5" type="curve"/>
      <point x="368.00000000000006" y="497.5" type="line"/>
      <point x="362.5" y="548.5"/>
      <point x="378.5" y="603.5"/>
      <point x="412.0" y="630.0" type="curve"/>
    </contour>
    <component base="g"/>
  </outline>
</glyph>
<glyph name="Hbar" format="2">
  <advance width="939.0"/>
  <unicode hex="0126"/>
  <anchor x="432.5" y="0.0" name="bottom"/>
  <anchor x="473.5" y="356.5" name="center"/>
  <anchor x="514.5" y="725.5000000000001" name="top"/>
  <anchor x="64.49999999999999" y="700.0" name="topleft"/>
  <outline>
    <contour>
      <point x="146.99999999999997" y="569.0" type="line"/>
      <point x="140.5" y="515.5" type="line"/>
      <point x="869.5" y="515.5" type="line"/>
      <point x="876.0000000000001" y="569.0" type="line"/>
    </contour>
    <component base="H" xOffset="70.5"/>
  </outline>
</glyph>
<glyph name="Iogonek" format="2">
  <advance width="302.0"/>
  <unicode hex="012E"/>
  <outline>
    <contour>
      <point x="89.5" y="-214.50000000000003" type="curve"/>
      <point x="131.0" y="-216.5"/>
      <point x="180.0" y="-190.00000000000003"/>
      <point x="207.5" y="-152.5" type="curve"/>
      <point x="177.50000000000003" y="-103.5" type="line"/>
      <point x="156.00000000000003" y="-132.49999999999997"/>
      <point x="132.5" y="-149.0"/>
      <point x="106.0" y="-148.0" type="curve"/>
      <point x="81.0" y="-146.99999999999997"/>
      <point x="58.50000000000001" y="-132.0"/>
      <point x="61.00000000000001" y="-97.0" type="curve"/>
      <point x="64.0" y="-56.5"/>
      <point x="109.0" y="-28.5"/>
      <point x="177.0" y="0.0" type="curve"/>
      <point x="265.5" y="723.0" type="line"/>
      <point x="165.49999999999997" y="723.0" type="line"/>
      <point x="77.0" y="0.0" type="line"/>
      <point x="84.0" y="21.0" type="line"/>
      <point x="14.999999999999993" y="-5.999999999999999"/>
      <point x="-18.000000000000004" y="-67.0"/>
      <point x="-18.000000000000004" y="-110.5" type="curve"/>
      <point x="-18.000000000000004" y="-170.50000000000003"/>
      <point x="29.0" y="-211.0"/>
    </contour>
  </outline>
</glyph>
<glyph name="iogonek" format="2">
  <advance width="238.5"/>
  <unicode hex="012F"/>
  <outline>
    <contour>
      <point x="75.0" y="-214.50000000000003" type="curve"/>
      <point x="116.0" y="-216.5"/>
      <point x="165.00000000000003" y="-190.00000000000003"/>
      <point x="192.50000000000003" y="-152.5" type="curve"/>
      <point x="162.5" y="-103.5" type="line"/>
      <point x="141.0" y="-132.49999999999997"/>
      <point x="117.5" y="-149.0"/>
      <point x="91.0" y="-148.0" type="curve"/>
      <point x="66.0" y="-146.99999999999997"/>
      <point x="43.50000000000001" y="-132.0"/>
      <point x="46.00000000000001" y="-97.0" type="curve"/>
      <point x="48.50000000000001" y="-58.0"/>
      <point x="87.5" y="-28.5"/>
      <point x="149.5" y="0.4999999999999999" type="curve"/>
      <point x="200.00000000000003" y="414.0" type="line"/>
      <point x="106.5" y="414.0" type="line"/>
      <point x="55.5" y="0.0" type="line"/>
      <point x="139.5" y="2.499999999999999" type="line"/>
      <point x="66.0" y="13.5" type="line"/>
      <point x="-3.000000000000007" y="-12.5"/>
      <point x="-33.0" y="-69.0"/>
      <point x="-33.0" y="-110.5" type="curve"/>
      <point x="-33.0" y="-170.50000000000003"/>
      <point x="13.999999999999998" y="-211.0"/>
    </contour>
    <component base="dotaccentcomb" xOffset="-19.000000000000004" yOffset="-25.500000000000004"/>
  </outline>
</glyph>
<glyph name="idotless" format="2">
  <advance width="254.5"/>
  <unicode hex="0131"/>
  <anchor x="94.5" y="0.0" name="bottom"/>
  <anchor x="119.0" y="10.0" name="ogonek"/>
  <anchor x="151.50000000000003" y="414.0" name="top"/>
  <outline>
    <contour>
      <point x="106.0" y="414.0" type="line"/>
      <point x="55.0" y="0.0" type="line"/>
      <point x="148.5" y="0.0" type="line"/>
      <point x="199.50000000000003" y="414.0" type="line"/>
    </contour>
  </outline>
</glyph>
<glyph name="kgreenlandic" format="2">
  <advance width="507.0"/>
  <unicode hex="0138"/>
  <outline>
    <contour>
      <point x="156.0" y="125.49999999999999" type="line"/>
      <point x="487.0" y="414.0" type="line"/>
      <point x="373.0" y="414.0" type="line"/>
      <point x="152.0" y="208.50000000000003" type="line"/>
    </contour>
    <contour>
      <point x="148.5" y="0.0" type="line"/>
      <point x="199.50000000000003" y="414.0" type="line"/>
      <point x="106.0" y="414.0" type="line"/>
      <point x="55.0" y="0.0" type="line"/>
    </contour>
    <contour>
      <point x="269.5" y="237.5" type="line"/>
      <point x="194.0" y="195.49999999999997" type="line"/>
      <point x="328.50000000000006" y="0.0" type="line"/>
      <point x="437.0" y="0.0" type="line"/>
    </contour>
  </outline>
</glyph>
<glyph name="Lslash" format="2">
  <advance width="607.0"/>
  <unicode hex="0141"/>
  <anchor x="299.99999999999994" y="0.0" name="bottom"/>
  <anchor x="416.9999999999999" y="361.50000000000006" name="center"/>
  <anchor x="211.0" y="735.5" name="top"/>
  <anchor x="645.0" y="723.0" name="topright"/>
  <outline>
    <contour>
      <point x="458.0" y="448.50000000000006" type="line"/>
      <point x="58.5" y="326.50000000000006" type="line"/>
      <point x="48.0" y="244.99999999999997" type="line"/>
      <point x="447.50000000000006" y="366.99999999999994" type="line"/>
    </contour>
    <component base="L"/>
  </outline>
</glyph>
<glyph name="lslash" format="2">
  <advance width="264.0"/>
  <unicode hex="0142"/>
  <anchor x="113.0" y="0.0" name="bottom"/>
  <anchor x="138.5" y="264.5" name="center"/>
  <anchor x="196.50000000000003" y="766.5" name="top"/>
  <anchor x="321.5" y="741.0" name="topright"/>
  <outline>
    <contour>
      <point x="284.5" y="389.50000000000006" type="line"/>
      <point x="41.5" y="326.50000000000006" type="line"/>
      <point x="31.499999999999996" y="244.99999999999997" type="line"/>
      <point x="275.0" y="307.99999999999994" type="line"/>
    </contour>
    <component base="l" xOffset="8.000000000000002"/>
  </outline>
</glyph>
<glyph name="Eng" format="2">
  <advance width="805.5"/>
  <unicode hex="014A"/>
  <anchor x="387.50000000000006" y="0.0" name="bottom"/>
  <anchor x="458.5" y="700.0" name="top"/>
  <outline>
    <contour>
      <point x="569.0" y="-199.5" type="line"/>
      <point x="642.0" y="-159.5"/>
      <point x="680.5" y="-92.0"/>
      <point x="691.5" y="-2.499999999999999" type="curve" smooth="yes"/>
      <point x="780.5000000000001" y="723.0" type="line"/>
      <point x="683.0" y="723.0" type="line"/>
      <point x="618.5" y="181.00000000000003" type="line"/>
      <point x="641.5" y="171.50000000000003" type="line"/>
      <point x="158.5" y="745.0000000000001" type="line"/>
      <point x="154.5" y="745.0000000000001" type="line"/>
      <point x="62.99999999999999" y="0.0" type="line"/>
      <point x="161.0" y="0.0" type="line"/>
      <point x="224.5" y="536.9999999999999" type="line"/>
      <point x="197.5" y="548.4999999999999" type="line"/>
      <point x="683.5000000000001" y="-19.000000000000004" type="line"/>
      <point x="611.5" y="107.50000000000001" type="line"/>
      <point x="598.9999999999999" y="1.0000000000000018" type="line" smooth="yes"/>
      <point x="592.4999999999999" y="-62.5"/>
      <point x="565.0" y="-111.0"/>
      <point x="521.5" y="-141.5" type="curve"/>
    </contour>
  </outline>
</glyph>
<glyph name="eng" format="2">
  <advance width="553.5"/>
  <unicode hex="014B"/>
  <outline>
    <contour>
      <point x="447.50000000000006" y="2.0000000000000018" type="curve" smooth="yes"/>
      <point x="485.0" y="306.0" type="line" smooth="yes"/>
      <point x="492.5" y="379.5"/>
      <point x="443.0" y="430.00000000000006"/>
      <point x="363.0" y="430.00000000000006" type="curve" smooth="yes"/>
      <point x="283.5" y="430.00000000000006"/>
      <point x="222.00000000000003" y="391.0"/>
      <point x="187.0" y="333.5" type="curve"/>
      <point x="189.5" y="318.50000000000006" type="line"/>
      <point x="190.0" y="414.0" type="line"/>
      <point x="106.0" y="414.0" type="line"/>
      <point x="55.5" y="0.0" type="line"/>
      <point x="149.0" y="0.0" type="line"/>
      <point x="173.0" y="193.5" type="line" smooth="yes"/>
      <point x="183.50000000000003" y="284.0"/>
      <point x="243.5" y="349.49999999999994"/>
      <point x="317.0" y="349.49999999999994" type="curve" smooth="yes"/>
      <point x="369.0" y="349.49999999999994"/>
      <point x="391.5" y="319.0"/>
      <point x="387.50000000000006" y="274.0" type="curve" smooth="yes"/>
      <point x="354.00000000000006" y="1.0000000000000018" type="line" smooth="yes"/>
      <point x="346.00000000000006" y="-62.5"/>
      <point x="320.5" y="-111.0"/>
      <point x="277.0" y="-141.5" type="curve"/>
      <point x="325.00000000000006" y="-199.5" type="line"/>
      <point x="397.00000000000006" y="-159.5"/>
      <point x="437.00000000000006" y="-87.5"/>
    </contour>
  </outline>
</glyph>
<glyph name="OE" format="2">
  <advance width="1009.0"/>
  <unicode hex="0152"/>
  <outline>
    <contour>
      <point x="567.4999999999999" y="628.0" type="curve"/>
      <point x="613.0" y="718.0" type="line"/>
      <point x="584.5" y="726.0"/>
      <point x="553.5" y="731.0"/>
      <point x="521.0" y="731.0" type="curve" smooth="yes"/>
      <point x="292.5" y="731.0"/>
      <point x="104.5" y="547.0"/>
      <point x="104.5" y="323.0" type="curve" smooth="yes"/>
      <point x="104.5" y="138.5"/>
      <point x="241.99999999999997" y="-8.0"/>
      <point x="430.50000000000006" y="-8.0" type="curve" smooth="yes"/>
      <point x="462.00000000000006" y="-8.0"/>
      <point x="492.00000000000006" y="-4.0"/>
      <point x="522.5" y="3.5" type="curve"/>
      <point x="505.0" y="93.50000000000001" type="line"/>
      <point x="484.5" y="88.50000000000001"/>
      <point x="464.50000000000006" y="86.50000000000001"/>
      <point x="444.00000000000006" y="86.50000000000001" type="curve" smooth="yes"/>
      <point x="306.0" y="86.50000000000001"/>
      <point x="205.00000000000003" y="195.00000000000003"/>
      <point x="205.00000000000003" y="332.00000000000006" type="curve" smooth="yes"/>
      <point x="205.00000000000003" y="501.00000000000006"/>
      <point x="339.50000000000006" y="634.5"/>
      <point x="509.5" y="634.5" type="curve" smooth="yes"/>
      <point x="530.0" y="634.5"/>
      <point x="549.0" y="632.0"/>
    </contour>
    <contour>
      <point x="572.5" y="723.0" type="line"/>
      <point x="483.99999999999994" y="0.0" type="line"/>
      <point x="938.0" y="0.0" type="line"/>
      <point x="949.5" y="93.00000000000001" type="line"/>
      <point x="595.5000000000001" y="93.00000000000001" type="line"/>
      <point x="623.0" y="316.5" type="line"/>
      <point x="922.5" y="316.5" type="line"/>
      <point x="933.5000000000001" y="408.50000000000006" type="line"/>
      <point x="633.5" y="408.50000000000006" type="line"/>
      <point x="661.5" y="632.5" type="line"/>
      <point x="1001.5" y="632.5" type="line"/>
      <point x="1012.5" y="723.0" type="line"/>
    </contour>
  </outline>
</glyph>
<glyph name="oe" format="2">
  <advance width="789.5"/>
  <unicode hex="0153"/>
  <anchor x="353.5" y="0.0" name="bottom"/>
  <anchor x="404.5" y="414.0" name="top"/>
  <anchor x="650.0" y="25.0" name="ogonek"/>
  <outline>
    <contour>
      <point x="258.0" y="-11.0" type="curve" smooth="yes"/>
      <point x="307.0" y="-11.0"/>
      <point x="359.0" y="3.4999999999999996"/>
      <point x="397.00000000000006" y="28.0" type="curve"/>
      <point x="356.5" y="90.0" type="line"/>
      <point x="333.0" y="74.5"/>
      <point x="305.5" y="65.5"/>
      <point x="274.0" y="65.5" type="curve" smooth="yes"/>
      <point x="192.0" y="65.5"/>
      <point x="138.0" y="123.0"/>
      <point x="138.0" y="195.0" type="curve" smooth="yes"/>
      <point x="138.0" y="281.0"/>
      <point x="205.00000000000003" y="345.0"/>
      <point x="280.0" y="345.0" type="curve" smooth="yes"/>
      <point x="324.5" y="345.0"/>
      <point x="358.50000000000006" y="326.0"/>
      <point x="380.5" y="307.49999999999994" type="curve"/>
      <point x="435.50000000000006" y="365.0" type="line"/>
      <point x="399.5" y="398.50000000000006"/>
      <point x="347.0" y="422.5"/>
      <point x="274.00000000000006" y="422.5" type="curve" smooth="yes"/>
      <point x="127.99999999999999" y="422.5"/>
      <point x="43.5" y="303.0"/>
      <point x="43.5" y="189.0" type="curve" smooth="yes"/>
      <point x="43.5" y="41.99999999999999"/>
      <point x="172.50000000000003" y="-11.0"/>
    </contour>
    <component base="e" xOffset="268.0"/>
  </outline>
</glyph>
<glyph name="uring" format="2">
  <advance width="543.0"/>
  <unicode hex="016F"/>
  <anchor x="264.5" y="-12.500000000000004" name="bottom"/>
  <anchor x="424.5" y="7.000000000000001" name="ogonek"/>
  <anchor x="304.00000000000006" y="454.0" name="top"/>
  <anchor x="459.5" y="301.50000000000006" name="topright"/>
  <outline>
    <contour>
      <point x="256.0" y="528.5" type="curve" smooth="yes"/>
      <point x="256.0" y="528.5" type="line" smooth="yes"/>
      <point x="256.0" y="487.0"/>
      <point x="288.0" y="453.50000000000006"/>
      <point x="329.50000000000006" y="453.50000000000006" type="curve" smooth="yes"/>
      <point x="378.0" y="453.50000000000006"/>
      <point x="423.0" y="496.0"/>
      <point x="423.0" y="545.0" type="curve" smooth="yes"/>
      <point x="423.0" y="586.0"/>
      <point x="391.50000000000006" y="619.5"/>
      <point x="350.00000000000006" y="619.5" type="curve" smooth="yes"/>
      <point x="301.5" y="619.5"/>
      <point x="256.0" y="577.0"/>
    </contour>
    <contour>
      <point x="303.0" y="532.0" type="curve" smooth="yes"/>
      <point x="303.0" y="532.0" type="line" smooth="yes"/>
      <point x="303.0" y="554.5"/>
      <point x="322.50000000000006" y="572.5000000000001"/>
      <point x="344.5" y="572.5000000000001" type="curve" smooth="yes"/>
      <point x="363.5" y="572.5000000000001"/>
      <point x="376.5" y="558.5"/>
      <point x="376.5" y="539.5" type="curve" smooth="yes"/>
      <point x="376.5" y="517.5"/>
      <point x="357.0" y="499.5"/>
      <point x="335.5" y="499.5" type="curve" smooth="yes"/>
      <point x="316.5" y="499.5"/>
      <point x="303.0" y="514.5"/>
    </contour>
    <component base="u"/>
  </outline>
</glyph>
<glyph name="Uogonek" format="2">
  <advance width="751.5"/>
  <unicode hex="0172"/>
  <anchor x="348.00000000000006" y="0.0" name="bottom"/>
  <anchor x="486.5" y="10.0" name="ogonek"/>
  <anchor x="438.5" y="719.0000000000001" name="top"/>
  <anchor x="733.0" y="655.5" name="topright"/>
  <outline>
    <contour>
      <point x="346.5" y="-8.0" type="curve" smooth="yes"/>
      <point x="393.0" y="-8.0"/>
      <point x="418.5" y="-0.49999999999999956"/>
      <point x="455.0" y="13.5" type="curve"/>
      <point x="410.0" y="30.5" type="line"/>
      <point x="340.99999999999994" y="0.5000000000000018"/>
      <point x="304.5" y="-46.0"/>
      <point x="304.5" y="-101.5" type="curve"/>
      <point x="304.5" y="-161.0"/>
      <point x="341.49999999999994" y="-210.5"/>
      <point x="412.0" y="-210.5" type="curve"/>
      <point x="453.5" y="-210.5"/>
      <point x="502.5" y="-186.0"/>
      <point x="530.0" y="-148.50000000000003" type="curve"/>
      <point x="500.00000000000006" y="-99.5" type="line"/>
      <point x="478.50000000000006" y="-128.5"/>
      <point x="455.0" y="-145.49999999999997"/>
      <point x="428.5" y="-144.0" type="curve"/>
      <point x="403.50000000000006" y="-143.5"/>
      <point x="383.50000000000006" y="-120.00000000000001"/>
      <point x="383.50000000000006" y="-91.5" type="curve"/>
      <point x="383.50000000000006" y="-50.5"/>
      <point x="408.50000000000006" y="-10.999999999999998"/>
      <point x="463.5" y="12.000000000000002" type="curve" smooth="yes"/>
      <point x="557.0" y="52.5"/>
      <point x="635.5" y="136.5"/>
      <point x="650.5000000000001" y="253.0" type="curve" smooth="yes"/>
      <point x="707.5" y="723.0" type="line"/>
      <point x="607.4999999999999" y="723.0" type="line"/>
      <point x="550.4999999999999" y="256.0" type="line" smooth="yes"/>
      <point x="538.4999999999999" y="159.0"/>
      <point x="459.5" y="86.00000000000001"/>
      <point x="358.0" y="86.00000000000001" type="curve" smooth="yes"/>
      <point x="260.5" y="86.00000000000001"/>
      <point x="196.00000000000003" y="159.0"/>
      <point x="208.5" y="256.0" type="curve" smooth="yes"/>
      <point x="265.5" y="723.0" type="line"/>
      <point x="165.49999999999997" y="723.0" type="line"/>
      <point x="108.0" y="253.0" type="line" smooth="yes"/>
      <point x="88.5" y="96.0"/>
      <point x="189.99999999999997" y="-8.0"/>
    </contour>
  </outline>
</glyph>
<glyph name="uogonek" format="2">
  <advance width="546.5"/>
  <unicode hex="0173"/>
  <outline>
    <contour>
      <point x="378.0" y="-213.5" type="curve"/>
      <point x="419.0" y="-215.5"/>
      <point x="468.5" y="-189.0"/>
      <point x="496.0" y="-152.0" type="curve"/>
      <point x="466.00000000000006" y="-103.0" type="line"/>
      <point x="444.50000000000006" y="-131.5"/>
      <point x="421.0" y="-148.49999999999997"/>
      <point x="394.0" y="-147.0" type="curve"/>
      <point x="369.50000000000006" y="-146.5"/>
      <point x="346.5" y="-131.49999999999997"/>
      <point x="349.50000000000006" y="-96.0" type="curve"/>
      <point x="351.00000000000006" y="-58.5"/>
      <point x="385.5" y="-27.5"/>
      <point x="438.0" y="0.0" type="curve"/>
      <point x="489.0" y="414.0" type="line"/>
      <point x="395.5" y="414.0" type="line"/>
      <point x="371.5" y="221.00000000000003" type="line" smooth="yes"/>
      <point x="361.0" y="130.5"/>
      <point x="298.50000000000006" y="64.0"/>
      <point x="229.00000000000003" y="64.0" type="curve"/>
      <point x="179.5" y="65.5"/>
      <point x="159.5" y="96.0"/>
      <point x="163.0" y="138.5" type="curve" smooth="yes"/>
      <point x="197.0" y="414.0" type="line"/>
      <point x="103.5" y="414.0" type="line"/>
      <point x="66.0" y="106.5" type="line" smooth="yes"/>
      <point x="58.5" y="33.5"/>
      <point x="107.5" y="-16.000000000000004"/>
      <point x="183.0" y="-16.000000000000004" type="curve" smooth="yes"/>
      <point x="259.5" y="-16.000000000000004"/>
      <point x="325.0" y="26.999999999999996"/>
      <point x="357.5" y="85.0" type="curve"/>
      <point x="353.5" y="0.0" type="line"/>
      <point x="435.5" y="0.9999999999999998" type="line"/>
      <point x="369.50000000000006" y="17.5" type="line"/>
      <point x="300.49999999999994" y="-11.5"/>
      <point x="270.50000000000006" y="-62.5"/>
      <point x="270.50000000000006" y="-109.5" type="curve"/>
      <point x="270.50000000000006" y="-169.5"/>
      <point x="317.50000000000006" y="-210.50000000000003"/>
    </contour>
  </outline>
</glyph>
